<svg width="60" height="60" viewBox="0 0 60 60" fill="none" xmlns="http://www.w3.org/2000/svg">
<path d="M0 18C0 8.05888 8.05888 0 18 0H42C51.9411 0 60 8.05888 60 18V42C60 51.9411 51.9411 60 42 60H18C8.05888 60 0 51.9411 0 42V18Z" fill="#D9FFEC"/>
<g clip-path="url(#clip0_620_214)">
<path d="M37.5002 24H31.0002V33.5856L34.2934 30.2931C34.4824 30.1135 34.7342 30.0148 34.9949 30.0182C35.2557 30.0215 35.5048 30.1266 35.6892 30.311C35.8736 30.4954 35.9787 30.7445 35.9821 31.0053C35.9854 31.2661 35.8867 31.5178 35.7071 31.7069L30.7071 36.7069C30.5196 36.8943 30.2653 36.9995 30.0002 36.9995C29.7351 36.9995 29.4809 36.8943 29.2934 36.7069L24.2934 31.7069C24.1137 31.5178 24.0151 31.2661 24.0184 31.0053C24.0218 30.7445 24.1268 30.4954 24.3112 30.311C24.4956 30.1266 24.7448 30.0215 25.0055 30.0182C25.2663 30.0148 25.5181 30.1135 25.7071 30.2931L29.0002 33.5856V24H22.5002C21.5723 24.001 20.6826 24.3701 20.0265 25.0262C19.3703 25.6824 19.0012 26.572 19.0002 27.5V40.5C19.0012 41.428 19.3703 42.3176 20.0265 42.9738C20.6826 43.6299 21.5723 43.999 22.5002 44H37.5002C38.4282 43.999 39.3179 43.6299 39.974 42.9738C40.6302 42.3176 40.9993 41.428 41.0002 40.5V27.5C40.9993 26.572 40.6302 25.6824 39.974 25.0262C39.3179 24.3701 38.4282 24.001 37.5002 24ZM31.0002 17C31.0002 16.7348 30.8949 16.4804 30.7074 16.2929C30.5198 16.1054 30.2655 16 30.0002 16C29.735 16 29.4807 16.1054 29.2931 16.2929C29.1056 16.4804 29.0002 16.7348 29.0002 17V24H31.0002V17Z" fill="#4AD991"/>
</g>
<defs>
<clipPath id="clip0_620_214">
<rect width="32" height="32" fill="white" transform="translate(14.0002 14)"/>
</clipPath>
</defs>
</svg>
