<svg width="24" height="24" viewBox="0 0 24 24" fill="none" xmlns="http://www.w3.org/2000/svg">
<g clip-path="url(#clip0_620_258)">
<path d="M9.78003 9.53333C11.9892 9.53333 13.78 7.74246 13.78 5.53333C13.78 3.32419 11.9892 1.53333 9.78003 1.53333C7.57089 1.53333 5.78003 3.32419 5.78003 5.53333C5.78003 7.74246 7.57089 9.53333 9.78003 9.53333Z" fill="#7653C2"/>
<path d="M10.9599 21.2134C10.7396 20.9955 10.5958 20.712 10.5502 20.4056C10.5045 20.0991 10.5594 19.786 10.7066 19.5134L11.0599 18.8467L10.3333 18.6267C10.0369 18.534 9.77895 18.3471 9.59847 18.0944C9.418 17.8417 9.32488 17.5371 9.33325 17.2267V15.86C9.33269 15.551 9.43156 15.25 9.61524 15.0015C9.79892 14.753 10.0577 14.5702 10.3533 14.48L11.0799 14.26L10.7333 13.5934C10.5904 13.3244 10.536 13.0172 10.5779 12.7156C10.6198 12.4139 10.7558 12.1332 10.9666 11.9134C10.4537 11.8461 9.93717 11.8105 9.41992 11.8067C7.89213 11.7707 6.37523 12.0724 4.97741 12.69C3.57959 13.3077 2.33529 14.2262 1.33325 15.38V20.5467C1.33325 20.7235 1.40349 20.8931 1.52851 21.0181C1.65354 21.1431 1.82311 21.2134 1.99992 21.2134H10.9599Z" fill="#7653C2"/>
<path d="M22.4668 15.64L21.1334 15.24C21.041 14.9107 20.9113 14.5931 20.7468 14.2933L21.4134 13.0533C21.4392 13.0073 21.4486 12.9539 21.4401 12.9018C21.4317 12.8498 21.4058 12.8021 21.3668 12.7666L20.4001 11.7933C20.3629 11.7571 20.3154 11.7332 20.2641 11.7248C20.2128 11.7165 20.1602 11.7241 20.1134 11.7466L18.8801 12.4133C18.5765 12.2484 18.2571 12.1144 17.9268 12.0133L17.5201 10.68C17.5022 10.6308 17.4695 10.5884 17.4265 10.5586C17.3836 10.5287 17.3324 10.5129 17.2801 10.5133H15.8934C15.8414 10.5148 15.7912 10.5322 15.7494 10.5632C15.7077 10.5942 15.6765 10.6373 15.6601 10.6866L15.2601 12.02C14.9233 12.118 14.599 12.2544 14.2934 12.4266L13.0868 11.76C13.0398 11.735 12.9863 11.7255 12.9336 11.7327C12.881 11.7399 12.8319 11.7634 12.7934 11.8L11.8134 12.76C11.7748 12.7972 11.7494 12.8459 11.741 12.8988C11.7326 12.9518 11.7416 13.006 11.7668 13.0533L12.4334 14.2666C12.2548 14.5678 12.1095 14.8874 12.0001 15.22L10.6668 15.6266C10.6163 15.6412 10.5721 15.6719 10.5408 15.7141C10.5094 15.7562 10.4928 15.8075 10.4934 15.86V17.2266C10.4928 17.2791 10.5094 17.3304 10.5408 17.3725C10.5721 17.4147 10.6163 17.4454 10.6668 17.46L12.0001 17.8666C12.1 18.1932 12.2341 18.5082 12.4001 18.8066L11.7334 20.0733C11.7083 20.1206 11.6992 20.1749 11.7077 20.2278C11.7161 20.2807 11.7415 20.3295 11.7801 20.3666L12.7734 21.3333C12.8119 21.3699 12.861 21.3934 12.9136 21.4006C12.9663 21.4078 13.0198 21.3982 13.0668 21.3733L14.3134 20.7066C14.6101 20.8662 14.923 20.9936 15.2468 21.0866L15.6468 22.4533C15.6635 22.5037 15.6957 22.5476 15.7388 22.5787C15.7819 22.6098 15.8336 22.6266 15.8868 22.6266H17.2534C17.3054 22.6252 17.3557 22.6078 17.3974 22.5768C17.4392 22.5458 17.4704 22.5027 17.4868 22.4533L17.8868 21.0866C18.2067 20.9948 18.5153 20.8673 18.8068 20.7066L20.0668 21.3733C20.1137 21.3982 20.1672 21.4078 20.2199 21.4006C20.2725 21.3934 20.3216 21.3699 20.3601 21.3333L21.3334 20.3666C21.37 20.3281 21.3936 20.2791 21.4007 20.2264C21.4079 20.1738 21.3984 20.1202 21.3734 20.0733L20.7068 18.82C20.8662 18.5279 20.9936 18.2195 21.0868 17.9L22.4201 17.4933C22.4702 17.4772 22.5142 17.4463 22.5463 17.4046C22.5785 17.363 22.5972 17.3125 22.6001 17.26V15.88C22.6017 15.8316 22.5902 15.7838 22.5667 15.7415C22.5432 15.6992 22.5087 15.6641 22.4668 15.64ZM16.5801 18.7866C16.1394 18.788 15.7083 18.6585 15.3412 18.4146C14.9742 18.1708 14.6877 17.8235 14.5182 17.4167C14.3486 17.01 14.3036 16.562 14.3887 16.1297C14.4739 15.6973 14.6854 15.2999 14.9966 14.9879C15.3077 14.6758 15.7045 14.4631 16.1366 14.3766C16.5687 14.2901 17.0167 14.3338 17.424 14.5022C17.8312 14.6705 18.1794 14.9559 18.4244 15.3222C18.6693 15.6885 18.8001 16.1193 18.8001 16.56C18.8001 17.1494 18.5664 17.7147 18.1503 18.1321C17.7341 18.5495 17.1695 18.7849 16.5801 18.7866Z" fill="#7653C2"/>
</g>
<defs>
<clipPath id="clip0_620_258">
<rect width="24" height="24" fill="white"/>
</clipPath>
</defs>
</svg>
