<svg width="60" height="60" viewBox="0 0 60 60" fill="none" xmlns="http://www.w3.org/2000/svg">
<path d="M0 18C0 8.05888 8.05888 0 18 0H42C51.9411 0 60 8.05888 60 18V42C60 51.9411 51.9411 60 42 60H18C8.05888 60 0 51.9411 0 42V18Z" fill="#FFECC7"/>
<g clip-path="url(#clip0_620_200)">
<path d="M35.7232 17.8048C34.614 17.3782 33.3859 17.3782 32.2768 17.8048L26.7392 19.9344C26.2862 20.1085 25.8967 20.4157 25.6219 20.8156C25.3471 21.2155 25.2 21.6892 25.2 22.1744V23.9344C26.2477 23.8023 27.3119 23.9315 28.2976 24.3104L33.8336 26.4416C34.5885 26.7315 35.2379 27.2433 35.6961 27.9097C36.1542 28.5761 36.3997 29.3657 36.4 30.1744V37.8224C36.4 38.1438 36.3613 38.464 36.2848 38.776L41.2624 36.8624C41.7153 36.6884 42.1048 36.3812 42.3796 35.9813C42.6544 35.5814 42.8015 35.1076 42.8016 34.6224V22.1744C42.8015 21.6892 42.6544 21.2155 42.3796 20.8156C42.1048 20.4157 41.7153 20.1085 41.2624 19.9344L35.7232 17.8048ZM38.712 21.2512C38.8101 21.2135 38.9147 21.1955 39.0198 21.1982C39.1248 21.2009 39.2284 21.2243 39.3244 21.267C39.4205 21.3097 39.5072 21.3709 39.5796 21.4472C39.652 21.5234 39.7086 21.6131 39.7464 21.7112C39.7841 21.8094 39.8021 21.914 39.7994 22.019C39.7967 22.1241 39.7733 22.2277 39.7306 22.3237C39.6879 22.4198 39.6267 22.5065 39.5504 22.5789C39.4742 22.6513 39.3845 22.7079 39.2864 22.7456L34.8608 24.4464C34.3062 24.6598 33.6921 24.6598 33.1376 24.4464L28.712 22.7456C28.5138 22.6693 28.3541 22.5173 28.268 22.3231C28.1818 22.129 28.1764 21.9086 28.2528 21.7104C28.3291 21.5123 28.4811 21.3526 28.6752 21.2664C28.8694 21.1803 29.0898 21.1749 29.288 21.2512L33.712 22.9536C33.8973 23.0252 34.1026 23.0252 34.288 22.9536L38.712 21.2512ZM24.2768 25.8048C25.3859 25.3782 26.614 25.3782 27.7232 25.8048L33.2608 27.9344C34.1888 28.2912 34.7984 29.1824 34.7984 30.1744V37.8224C34.7984 38.3075 34.6515 38.7811 34.377 39.181C34.1026 39.5808 33.7134 39.8882 33.2608 40.0624L27.7232 42.192C26.614 42.6187 25.3859 42.6187 24.2768 42.192L18.7392 40.064C18.2862 39.89 17.8967 39.5828 17.6219 39.1829C17.3471 38.783 17.2 38.3092 17.2 37.824V30.176C17.2 29.6908 17.3471 29.2171 17.6219 28.8172C17.8967 28.4173 18.2862 28.1101 18.7392 27.936L24.2768 25.8048ZM31.7456 30.4688C31.6693 30.2709 31.5176 30.1114 31.3238 30.0253C31.13 29.9392 30.9099 29.9335 30.712 30.0096L26 31.8224L21.2864 30.0096C21.1877 29.9688 21.0819 29.9481 20.9752 29.9488C20.8684 29.9495 20.7629 29.9716 20.6648 30.0137C20.5667 30.0558 20.478 30.1171 20.404 30.1941C20.33 30.271 20.2721 30.3619 20.2338 30.4615C20.1954 30.5612 20.1774 30.6675 20.1808 30.7742C20.1842 30.8808 20.2089 30.9858 20.2534 31.0828C20.298 31.1798 20.3615 31.2669 20.4403 31.339C20.519 31.411 20.6114 31.4666 20.712 31.5024L25.2 33.2288V37.2128C25.2 37.425 25.2842 37.6285 25.4343 37.7785C25.5843 37.9286 25.7878 38.0128 26 38.0128C26.2121 38.0128 26.4156 37.9286 26.5656 37.7785C26.7157 37.6285 26.8 37.425 26.8 37.2128V33.2288L31.2864 31.5024C31.4843 31.4262 31.6438 31.2745 31.7299 31.0807C31.816 30.8869 31.8217 30.6668 31.7456 30.4688Z" fill="#FEC53D"/>
</g>
<defs>
<clipPath id="clip0_620_200">
<rect width="32" height="32" fill="white" transform="translate(14 14)"/>
</clipPath>
</defs>
</svg>
