<svg width="24" height="24" viewBox="0 0 24 24" fill="none" xmlns="http://www.w3.org/2000/svg">
<path d="M5.03839 8.25C5.03839 7.12283 5.46522 6.04183 6.22496 5.2448C6.98471 4.44777 8.01514 4 9.08959 4C10.164 4 11.1945 4.44777 11.9542 5.2448C12.714 6.04183 13.1408 7.12283 13.1408 8.25C13.1408 9.37717 12.714 10.4582 11.9542 11.2552C11.1945 12.0522 10.164 12.5 9.08959 12.5C8.01514 12.5 6.98471 12.0522 6.22496 11.2552C5.46522 10.4582 5.03839 9.37717 5.03839 8.25ZM2 20.0139C2 16.7434 4.52567 14.0938 7.64319 14.0938H10.536C13.6535 14.0938 16.1792 16.7434 16.1792 20.0139C16.1792 20.5584 15.7582 21 15.2392 21H2.94C2.42094 21 2 20.5584 2 20.0139ZM21.7812 9.87695L17.73 14.127C17.4325 14.4391 16.9514 14.4391 16.6571 14.127L14.6315 12.002C14.334 11.6898 14.334 11.1852 14.6315 10.8764C14.929 10.5676 15.4101 10.5643 15.7044 10.8764L17.192 12.4369L20.7051 8.74805C21.0026 8.43594 21.4837 8.43594 21.7781 8.74805C22.0724 9.06016 22.0756 9.56484 21.7781 9.87363L21.7812 9.87695Z" fill="#FB8C63"/>
</svg>
