<svg width="24" height="24" viewBox="0 0 24 24" fill="none" xmlns="http://www.w3.org/2000/svg">
<path d="M12 12.5C14.8406 12.5 17.1429 10.2617 17.1429 7.5C17.1429 4.73828 14.8406 2.5 12 2.5C9.15938 2.5 6.85714 4.73828 6.85714 7.5C6.85714 10.2617 9.15938 12.5 12 12.5ZM15.8491 13.7734L13.9286 21.25L12.6429 15.9375L13.9286 13.75H10.0714L11.3571 15.9375L10.0714 21.25L8.15089 13.7734C5.28616 13.9063 3 16.1836 3 19V20.625C3 21.6602 3.86384 22.5 4.92857 22.5H19.0714C20.1362 22.5 21 21.6602 21 20.625V19C21 16.1836 18.7138 13.9063 15.8491 13.7734Z" fill="#4AD991"/>
</svg>
