<svg width="60" height="60" viewBox="0 0 60 60" fill="none" xmlns="http://www.w3.org/2000/svg">
<path d="M0 18C0 8.05888 8.05888 0 18 0H42.0005C51.9416 0 60.0005 8.05888 60.0005 18V42C60.0005 51.9411 51.9416 60 42.0005 60H18C8.05888 60 0 51.9411 0 42V18Z" fill="#E2E2FE"/>
<g clip-path="url(#clip0_620_194)">
<path d="M37.4379 19.9095L34.7712 18.5095C32.4298 17.2815 31.2592 16.6669 30.0005 16.6669C28.7418 16.6669 27.5711 17.2802 25.2298 18.5095L24.8018 18.7348L36.6992 25.5333L42.054 22.8534C41.1926 21.8774 39.8033 21.1481 37.4379 19.9068M42.998 24.6187L37.6672 27.2853V31.3332C37.6672 31.5984 37.5619 31.8527 37.3743 32.0403C37.1868 32.2278 36.9325 32.3331 36.6672 32.3331C36.402 32.3331 36.1477 32.2278 35.9601 32.0403C35.7726 31.8527 35.6672 31.5984 35.6672 31.3332V28.2852L31.0005 30.6185V43.2049C31.9578 42.9662 33.0472 42.3956 34.7712 41.4902L37.4379 40.0903C40.3059 38.585 41.7406 37.833 42.538 36.4797C43.334 35.1277 43.334 33.4438 43.334 30.0799V29.9239C43.334 27.3999 43.334 25.8213 42.998 24.6187ZM29.0005 43.2049V30.6185L17.003 24.6187C16.667 25.8213 16.667 27.3999 16.667 29.9212V30.0772C16.667 33.4438 16.667 35.1277 17.463 36.4797C18.2603 37.833 19.695 38.5863 22.5631 40.0916L25.2298 41.4902C26.9538 42.3956 28.0431 42.9662 29.0005 43.2049ZM17.947 22.8547L30.0005 28.8812L34.5485 26.608L22.7004 19.8375L22.5631 19.9095C20.199 21.1494 18.8084 21.8787 17.947 22.856" fill="#7653C2"/>
</g>
<defs>
<clipPath id="clip0_620_194">
<rect width="32.0004" height="32.0003" fill="white" transform="translate(14.0002 14.0002)"/>
</clipPath>
</defs>
</svg>
