<svg width="60" height="60" viewBox="0 0 60 60" fill="none" xmlns="http://www.w3.org/2000/svg">
<rect width="60.0015" height="60" rx="18" fill="#FEE7E5"/>
<g clip-path="url(#clip0_620_207)">
<path fill-rule="evenodd" clip-rule="evenodd" d="M20.6675 22.3334C19.695 22.3334 18.7624 22.7197 18.0747 23.4073C17.3871 24.0949 17.0007 25.0276 17.0007 26V38C17.0007 38.9725 17.3871 39.9051 18.0747 40.5928C18.7624 41.2804 19.695 41.6667 20.6675 41.6667H39.3346C40.3071 41.6667 41.2398 41.2804 41.9274 40.5928C42.6151 39.9051 43.0014 38.9725 43.0014 38V26C43.0014 25.0276 42.6151 24.0949 41.9274 23.4073C41.2398 22.7197 40.3071 22.3334 39.3346 22.3334H20.6675ZM36.0012 30.3334C35.5592 30.3334 35.1352 30.509 34.8227 30.8215C34.5101 31.1341 34.3345 31.558 34.3345 32C34.3345 32.4421 34.5101 32.866 34.8227 33.1786C35.1352 33.4911 35.5592 33.6667 36.0012 33.6667C36.4432 33.6667 36.8672 33.4911 37.1797 33.1786C37.4923 32.866 37.6679 32.4421 37.6679 32C37.6679 31.558 37.4923 31.1341 37.1797 30.8215C36.8672 30.509 36.4432 30.3334 36.0012 30.3334Z" fill="#E11D07"/>
<path d="M35.9812 18.092C36.376 17.9868 36.7897 17.9737 37.1903 18.0537C37.591 18.1338 37.9679 18.3048 38.2919 18.5536C38.616 18.8024 38.8785 19.1224 39.0593 19.4887C39.2401 19.8551 39.3343 20.2581 39.3346 20.6667H26.001L35.9812 18.092Z" fill="#E11D07"/>
</g>
<defs>
<clipPath id="clip0_620_207">
<rect x="14.0007" y="14" width="32.0008" height="32" rx="16" fill="white"/>
</clipPath>
</defs>
</svg>
