<svg width="18" height="18" viewBox="0 0 18 18" fill="none" xmlns="http://www.w3.org/2000/svg">
<g clip-path="url(#clip0_213_6285)">
<circle cx="9" cy="9" r="6.75" fill="#F7CD13"/>
<path d="M9 4.5C8.10999 4.5 7.23996 4.76392 6.49994 5.25839C5.75991 5.75285 5.18314 6.45566 4.84254 7.27792C4.50195 8.10019 4.41283 9.00499 4.58647 9.87791C4.7601 10.7508 5.18868 11.5526 5.81802 12.182C6.44736 12.8113 7.24918 13.2399 8.1221 13.4135C8.99501 13.5872 9.89981 13.4981 10.7221 13.1575C11.5443 12.8169 12.2471 12.2401 12.7416 11.5001C13.2361 10.76 13.5 9.89001 13.5 9C13.4986 7.80694 13.0241 6.66314 12.1805 5.81952C11.3369 4.9759 10.1931 4.50136 9 4.5ZM9 12.8571C7.97702 12.8571 6.99594 12.4508 6.27259 11.7274C5.54924 11.0041 5.14286 10.023 5.14286 9C5.14286 7.97702 5.54924 6.99594 6.27259 6.27259C6.99594 5.54923 7.97702 5.14286 9 5.14286V9L11.726 11.726C11.3685 12.0848 10.9437 12.3694 10.4759 12.5635C10.008 12.7577 9.50649 12.8574 9 12.8571Z" fill="white"/>
</g>
<defs>
<clipPath id="clip0_213_6285">
<rect width="18" height="18" fill="white"/>
</clipPath>
</defs>
</svg>
