<svg width="18" height="18" viewBox="0 0 18 18" fill="none" xmlns="http://www.w3.org/2000/svg">
<g clip-path="url(#clip0_213_6273)">
<circle cx="9" cy="9" r="6.75" fill="#855CDE"/>
<g clip-path="url(#clip1_213_6273)">
<path d="M7.3126 6.5251C7.10374 6.5251 6.90344 6.60807 6.75575 6.75575C6.60807 6.90344 6.5251 7.10374 6.5251 7.3126V10.6876C6.5251 11.1223 6.8779 11.4751 7.3126 11.4751H10.6876C10.8965 11.4751 11.0968 11.3921 11.2444 11.2444C11.3921 11.0968 11.4751 10.8965 11.4751 10.6876V9.7876C11.4751 9.69809 11.5107 9.61224 11.5739 9.54895C11.6372 9.48566 11.7231 9.4501 11.8126 9.4501C11.9021 9.4501 11.988 9.48566 12.0512 9.54895C12.1145 9.61224 12.1501 9.69809 12.1501 9.7876V10.6876C12.1501 11.0755 11.996 11.4475 11.7217 11.7217C11.4475 11.996 11.0755 12.1501 10.6876 12.1501H7.3126C6.92472 12.1501 6.55273 11.996 6.27845 11.7217C6.00418 11.4475 5.8501 11.0755 5.8501 10.6876V7.3126C5.8501 6.92472 6.00418 6.55273 6.27845 6.27845C6.55273 6.00418 6.92472 5.8501 7.3126 5.8501H8.2126C8.30211 5.8501 8.38795 5.88566 8.45125 5.94895C8.51454 6.01224 8.5501 6.09809 8.5501 6.1876C8.5501 6.27711 8.51454 6.36295 8.45125 6.42625C8.38795 6.48954 8.30211 6.5251 8.2126 6.5251H7.3126ZM9.2251 6.1876C9.2251 6.09809 9.26066 6.01224 9.32395 5.94895C9.38724 5.88566 9.47309 5.8501 9.5626 5.8501H11.8126C11.9021 5.8501 11.988 5.88566 12.0512 5.94895C12.1145 6.01224 12.1501 6.09809 12.1501 6.1876V8.4376C12.1501 8.52711 12.1145 8.61295 12.0512 8.67625C11.988 8.73954 11.9021 8.7751 11.8126 8.7751C11.7231 8.7751 11.6372 8.73954 11.5739 8.67625C11.5107 8.61295 11.4751 8.52711 11.4751 8.4376V7.0021L9.8011 8.6761C9.7702 8.70926 9.73294 8.73585 9.69154 8.7543C9.65014 8.77275 9.60545 8.78266 9.56013 8.78346C9.51482 8.78426 9.4698 8.77593 9.42778 8.75895C9.38575 8.74198 9.34758 8.71671 9.31553 8.68466C9.28348 8.65262 9.25822 8.61444 9.24124 8.57242C9.22427 8.53039 9.21593 8.48538 9.21673 8.44006C9.21753 8.39475 9.22745 8.35006 9.2459 8.30866C9.26434 8.26726 9.29094 8.23 9.3241 8.1991L10.9981 6.5251H9.5626C9.47309 6.5251 9.38724 6.48954 9.32395 6.42625C9.26066 6.36295 9.2251 6.27711 9.2251 6.1876Z" fill="white"/>
</g>
</g>
<defs>
<clipPath id="clip0_213_6273">
<rect width="18" height="18" fill="white"/>
</clipPath>
<clipPath id="clip1_213_6273">
<rect width="9" height="9" fill="white" transform="translate(4.5 4.5)"/>
</clipPath>
</defs>
</svg>
