<svg width="18" height="18" viewBox="0 0 18 18" fill="none" xmlns="http://www.w3.org/2000/svg">
<g clip-path="url(#clip0_213_6284)">
<path d="M9 2.25C7.66498 2.25 6.35993 2.64588 5.2499 3.38758C4.13987 4.12928 3.27471 5.18348 2.76382 6.41689C2.25292 7.65029 2.11925 9.00749 2.3797 10.3169C2.64015 11.6262 3.28303 12.829 4.22703 13.773C5.17104 14.717 6.37377 15.3598 7.68314 15.6203C8.99251 15.8807 10.3497 15.7471 11.5831 15.2362C12.8165 14.7253 13.8707 13.8601 14.6124 12.7501C15.3541 11.6401 15.75 10.335 15.75 9C15.7481 7.21037 15.0363 5.49458 13.7709 4.22912C12.5054 2.96366 10.7896 2.25189 9 2.25ZM11.9635 7.80966L8.3289 11.4443C8.28067 11.4926 8.22341 11.5309 8.16037 11.557C8.09734 11.5831 8.02977 11.5966 7.96154 11.5966C7.8933 11.5966 7.82574 11.5831 7.76271 11.557C7.69967 11.5309 7.64241 11.4926 7.59418 11.4443L6.03649 9.88658C5.93906 9.78916 5.88433 9.65701 5.88433 9.51923C5.88433 9.38144 5.93906 9.2493 6.03649 9.15187C6.13392 9.05444 6.26606 8.99971 6.40385 8.99971C6.54163 8.99971 6.67377 9.05444 6.7712 9.15187L7.96154 10.3429L11.2288 7.07495C11.277 7.02671 11.3343 6.98844 11.3973 6.96233C11.4604 6.93622 11.5279 6.92279 11.5962 6.92279C11.6644 6.92279 11.7319 6.93622 11.795 6.96233C11.858 6.98844 11.9153 7.02671 11.9635 7.07495C12.0118 7.12319 12.05 7.18046 12.0761 7.24349C12.1022 7.30653 12.1157 7.37408 12.1157 7.44231C12.1157 7.51053 12.1022 7.57809 12.0761 7.64112C12.05 7.70415 12.0118 7.76142 11.9635 7.80966Z" fill="#6FCF87"/>
</g>
<defs>
<clipPath id="clip0_213_6284">
<rect width="18" height="18" fill="white"/>
</clipPath>
</defs>
</svg>
