<svg width="204" height="69" viewBox="0 0 204 69" fill="none" xmlns="http://www.w3.org/2000/svg">
<g clip-path="url(#clip0_10_2715)">
<path d="M17.0683 16.1745C19.8215 16.1745 21.1981 17.6399 21.1981 20.5707V33.3264C21.1981 36.2573 19.8215 37.7227 17.0683 37.7227H8.50898V16.1745H17.0683ZM16.5354 33.8593V20.0046C16.5354 19.8269 16.4688 19.6715 16.3356 19.5383C16.2246 19.4051 16.0803 19.3385 15.9026 19.3385H13.1716V34.5254H15.9026C16.0803 34.5254 16.2246 34.4588 16.3356 34.3256C16.4688 34.1924 16.5354 34.0369 16.5354 33.8593ZM29.3361 16.1745V37.7227H24.6735V16.1745H29.3361ZM39.0991 29.1634V25.733H45.2604V33.6595C45.2604 36.5903 43.8839 38.0557 41.1307 38.0557H36.9343C34.1811 38.0557 32.8045 36.5903 32.8045 33.6595V20.2377C32.8045 17.3069 34.1811 15.8415 36.9343 15.8415H41.1307C43.8839 15.8415 45.2604 17.3069 45.2604 20.2377V22.2693H40.8309V19.6715C40.8309 19.4939 40.7643 19.3385 40.6311 19.2052C40.5201 19.072 40.3758 19.0054 40.1981 19.0054H38.0999C37.9223 19.0054 37.7669 19.072 37.6337 19.2052C37.5227 19.3385 37.4672 19.4939 37.4672 19.6715V34.1924C37.4672 34.37 37.5227 34.5254 37.6337 34.6586C37.7669 34.7918 37.9223 34.8585 38.0999 34.8585H40.1981C40.3758 34.8585 40.5201 34.7918 40.6311 34.6586C40.7643 34.5254 40.8309 34.37 40.8309 34.1924V29.1634H39.0991ZM52.4933 16.1745V37.7227H47.8306V16.1745H52.4933ZM60.6243 33.7927H65.7199V37.7227H55.9617V16.1745H60.6243V33.7927ZM80.6196 20.2377V33.6595C80.6196 36.5903 79.243 38.0557 76.4898 38.0557H72.0603C69.3071 38.0557 67.9305 36.5903 67.9305 33.6595V20.2377C67.9305 17.3069 69.3071 15.8415 72.0603 15.8415H76.4898C79.243 15.8415 80.6196 17.3069 80.6196 20.2377ZM75.957 34.1924V19.6715C75.957 19.4939 75.8904 19.3385 75.7571 19.2052C75.6461 19.072 75.5018 19.0054 75.3242 19.0054H73.226C73.0484 19.0054 72.8929 19.072 72.7597 19.2052C72.6487 19.3385 72.5932 19.4939 72.5932 19.6715V34.1924C72.5932 34.37 72.6487 34.5254 72.7597 34.6586C72.8929 34.7918 73.0484 34.8585 73.226 34.8585H75.3242C75.5018 34.8585 75.6461 34.7918 75.7571 34.6586C75.8904 34.5254 75.957 34.37 75.957 34.1924ZM90.3571 29.1634V25.733H96.5184V33.6595C96.5184 36.5903 95.1418 38.0557 92.3887 38.0557H88.1923C85.4391 38.0557 84.0625 36.5903 84.0625 33.6595V20.2377C84.0625 17.3069 85.4391 15.8415 88.1923 15.8415H92.3887C95.1418 15.8415 96.5184 17.3069 96.5184 20.2377V22.2693H92.0889V19.6715C92.0889 19.4939 92.0223 19.3385 91.8891 19.2052C91.7781 19.072 91.6338 19.0054 91.4561 19.0054H89.3579C89.1803 19.0054 89.0249 19.072 88.8917 19.2052C88.7807 19.3385 88.7251 19.4939 88.7251 19.6715V34.1924C88.7251 34.37 88.7807 34.5254 88.8917 34.6586C89.0249 34.7918 89.1803 34.8585 89.3579 34.8585H91.4561C91.6338 34.8585 91.7781 34.7918 91.8891 34.6586C92.0223 34.5254 92.0889 34.37 92.0889 34.1924V29.1634H90.3571ZM103.751 16.1745V37.7227H99.0886V16.1745H103.751ZM119.709 16.1745L116.279 26.9319L120.142 37.7227H115.279L113.015 30.1958L110.75 37.7227H105.854L109.718 26.9319L106.354 16.1745H110.883L113.015 23.1352L115.146 16.1745H119.709Z" fill="#E11D07"/>
<path d="M129.651 38.7127C129.682 35.9691 129.833 33.2413 130.008 30.5214C130.19 27.8015 130.42 25.0895 130.682 22.3776C130.943 19.6656 131.253 16.9695 131.578 14.2734C131.911 11.5773 132.283 8.88125 132.664 6.19309C132.807 5.18602 133.679 4.45648 134.662 4.46441H134.686C136.415 4.46441 138.064 4.41684 139.848 4.46441L141.173 4.49613L142.497 4.58336C143.385 4.62301 144.257 4.73402 145.137 4.84504C148.65 5.27324 152.116 6.08207 155.438 7.24773C158.769 8.40547 161.948 9.95176 164.922 11.7835C167.88 13.6311 170.655 15.7721 173.042 18.2621C170.029 16.573 167.023 15.0188 163.915 13.7263C160.822 12.4179 157.65 11.3791 154.439 10.5465C151.235 9.70594 147.968 9.17465 144.693 8.84953C143.877 8.77816 143.052 8.69887 142.235 8.66715L141.006 8.59578L139.769 8.57992C138.136 8.5482 136.375 8.55613 134.686 8.54027L136.708 6.8116C136.256 9.49184 135.78 12.1641 135.273 14.8364C134.757 17.5087 134.234 20.1731 133.655 22.8296C133.076 25.486 132.466 28.1425 131.808 30.791C131.149 33.4395 130.46 36.0801 129.643 38.6969L129.651 38.7127Z" fill="#202A31"/>
<path d="M139.84 20.0463C143.377 19.6498 146.906 19.3722 150.442 19.1344C152.211 18.9995 153.979 18.9123 155.739 18.8092C157.508 18.7061 159.276 18.6031 161.037 18.5476L163.685 18.4445L165.009 18.389L165.675 18.3652H166.429C167.452 18.3652 168.514 18.5396 169.569 18.8965C170.616 19.2692 171.631 19.848 172.463 20.6331C174.144 22.2031 175.032 24.249 175.508 26.1759C175.992 28.1187 176.143 30.0297 176.151 31.9011L174.374 29.8632C177.657 30.2835 180.932 30.7513 184.199 31.2113L189.108 31.9408L190.337 32.1311C190.527 32.1549 190.773 32.2104 191.027 32.2659C191.272 32.3214 191.526 32.3769 191.748 32.4483C192.684 32.7179 193.596 33.0827 194.436 33.5664C196.125 34.5179 197.584 35.866 198.655 37.4599C199.194 38.2528 199.622 39.1172 199.955 40.0132L200.185 40.6714L200.368 41.2661L200.733 42.4476L202.184 47.1817L203.579 51.9395L203.611 52.0505C203.778 52.6294 203.452 53.232 202.874 53.3985C202.755 53.4302 202.636 53.4461 202.517 53.4382C200.059 53.3272 178.648 52.5818 176.19 52.3122C178.648 52.0426 200.059 51.2972 202.517 51.1862L201.454 52.6849L199.567 48.1015L197.743 43.4944L197.291 42.3445L197.061 41.7657L196.847 41.274C196.554 40.6397 196.189 40.0529 195.776 39.4978C194.952 38.3956 193.85 37.5154 192.644 36.8969C192.042 36.5876 191.399 36.3576 190.741 36.199C190.575 36.1515 190.416 36.1277 190.265 36.096C190.115 36.0642 189.956 36.0325 189.734 36.0167L188.505 35.8739L183.604 35.2633C180.337 34.8351 177.078 34.4069 173.819 33.947H173.811C172.788 33.7963 172.043 32.9162 172.043 31.9091C172.043 30.2518 171.948 28.6103 171.623 27.1116C171.29 25.6129 170.735 24.2728 169.846 23.3767C168.99 22.4569 167.737 21.9573 166.246 21.8067L165.675 21.7591L165.009 21.7353L163.685 21.6798L161.037 21.5767C159.268 21.5133 157.5 21.4181 155.739 21.315C153.971 21.2119 152.203 21.1326 150.442 20.9899C146.906 20.7441 143.377 20.4745 139.84 20.078V20.0463Z" fill="#202A31"/>
<path d="M4.13964 51.5668C8.26308 51.0275 117.296 49.9095 121.42 49.7667C129.667 49.4733 137.913 49.4416 146.16 49.5764L143.908 51.5668C143.948 48.6804 145.486 45.8653 147.929 44.0574C149.142 43.1454 150.577 42.4793 152.092 42.0908C152.845 41.9005 153.63 41.7974 154.399 41.7498C154.788 41.734 155.176 41.7498 155.565 41.7419L156.564 41.7974L157.563 41.8688C157.944 41.9084 158.324 41.9401 158.697 41.9956C159.443 42.1225 160.172 42.297 160.87 42.5507C162.266 43.0424 163.503 43.8274 164.486 44.7631C166.492 46.6266 167.388 49.2513 166.976 51.5747C166.778 50.409 166.326 49.3227 165.683 48.3632C165.025 47.4195 164.185 46.6107 163.225 45.9843C162.258 45.3578 161.171 44.9375 160.061 44.6997C159.506 44.5807 158.943 44.5252 158.38 44.5093C158.102 44.5093 157.817 44.5252 157.539 44.5331L156.564 44.5966L155.589 44.6521C155.319 44.6838 155.042 44.7076 154.78 44.7472C154.249 44.8424 153.733 44.9772 153.234 45.1516C152.242 45.5006 151.362 46.0398 150.625 46.69C149.15 47.9984 148.341 49.7905 148.404 51.5826C148.444 52.6452 147.508 53.5333 146.303 53.5651H146.279H146.152C137.906 53.6999 129.659 53.6681 121.412 53.3747C117.288 53.232 8.25515 52.1139 4.13171 51.5747L4.13964 51.5668Z" fill="#202A31"/>
</g>
<defs>
<clipPath id="clip0_10_2715">
<rect width="203" height="68.1953" fill="white" transform="translate(0.5)"/>
</clipPath>
</defs>
</svg>
