<svg width="224" height="46" viewBox="0 0 224 46" fill="none" xmlns="http://www.w3.org/2000/svg">
<rect width="3.6129" height="45.7634" fill="#1B1B1B"/>
<rect x="18.0645" width="7.82796" height="45.7634" fill="#1B1B1B"/>
<rect x="31.3118" width="6.02151" height="45.7634" fill="#1B1B1B"/>
<rect x="59.6129" width="5.41935" height="45.7634" fill="#1B1B1B"/>
<rect x="74.6667" width="3.6129" height="45.7634" fill="#1B1B1B"/>
<rect x="104.774" width="5.41935" height="45.7634" fill="#1B1B1B"/>
<rect x="112" width="6.62366" height="45.7634" fill="#1B1B1B"/>
<rect x="146.323" width="7.22581" height="45.7634" fill="#1B1B1B"/>
<rect x="173.419" width="4.8172" height="45.7634" fill="#1B1B1B"/>
<rect x="120.43" width="3.6129" height="45.7634" fill="#1B1B1B"/>
<rect x="140.903" width="3.6129" height="45.7634" fill="#1B1B1B"/>
<rect x="155.355" width="3.6129" height="45.7634" fill="#1B1B1B"/>
<rect x="166.194" width="3.6129" height="45.7634" fill="#1B1B1B"/>
<rect x="180.043" width="3.6129" height="45.7634" fill="#1B1B1B"/>
<rect x="200.516" width="3.6129" height="45.7634" fill="#1B1B1B"/>
<rect x="210.151" width="4.8172" height="45.7634" fill="#1B1B1B"/>
<rect x="220.387" width="3.6129" height="45.7634" fill="#1B1B1B"/>
<rect x="90.9247" width="4.21505" height="45.7634" fill="#1B1B1B"/>
<rect x="87.3118" width="1.80645" height="45.7634" fill="#1B1B1B"/>
<rect x="101.161" width="1.80645" height="45.7634" fill="#1B1B1B"/>
<rect x="127.656" width="1.80645" height="45.7634" fill="#1B1B1B"/>
<rect x="133.075" width="1.80645" height="45.7634" fill="#1B1B1B"/>
<rect x="160.774" width="1.80645" height="45.7634" fill="#1B1B1B"/>
<rect x="187.269" width="1.80645" height="45.7634" fill="#1B1B1B"/>
<rect x="195.097" width="1.80645" height="45.7634" fill="#1B1B1B"/>
<rect x="216.774" width="1.80645" height="45.7634" fill="#1B1B1B"/>
<rect x="80.086" width="1.80645" height="45.7634" fill="#1B1B1B"/>
<rect x="49.9785" width="3.6129" height="45.7634" fill="#1B1B1B"/>
<rect x="66.8387" width="1.80645" height="45.7634" fill="#1B1B1B"/>
<rect x="5.41936" width="1.80645" height="45.7634" fill="#1B1B1B"/>
<rect x="10.8387" width="1.80645" height="45.7634" fill="#1B1B1B"/>
<rect x="27.6989" width="1.80645" height="45.7634" fill="#1B1B1B"/>
<rect x="39.1398" width="1.80645" height="45.7634" fill="#1B1B1B"/>
<rect x="42.7527" width="1.80645" height="45.7634" fill="#1B1B1B"/>
</svg>
