<svg width="22" height="22" viewBox="0 0 22 22" fill="none" xmlns="http://www.w3.org/2000/svg">
<g clip-path="url(#clip0_35_2265)">
<path d="M6.26405 19.1815C6.59041 19.5942 7.00628 19.9273 7.48026 20.1557C7.95423 20.3841 8.47391 20.5019 9.00005 20.5C9.52618 20.5019 10.0459 20.3841 10.5198 20.1557C10.9938 19.9273 11.4097 19.5942 11.736 19.1815C9.92035 19.4276 8.07974 19.4276 6.26405 19.1815ZM14.0625 10.75V11.278C14.0625 11.9118 14.2425 12.5313 14.5815 13.0585L15.4125 14.3508C16.1708 15.5313 15.5918 17.1355 14.2725 17.5083C10.8254 18.4847 7.17473 18.4847 3.72755 17.5083C2.4083 17.1355 1.8293 15.5313 2.58755 14.3508L3.41855 13.0585C3.75873 12.527 3.93913 11.909 3.9383 11.278V10.75C3.9383 7.8505 6.2048 5.5 9.00005 5.5C11.7953 5.5 14.0625 7.8505 14.0625 10.75Z" fill="#343434"/>
</g>
<path fill-rule="evenodd" clip-rule="evenodd" d="M16 12C19.3137 12 22 9.31371 22 6C22 2.68629 19.3137 0 16 0C12.6863 0 10 2.68629 10 6C10 9.31371 12.6863 12 16 12Z" fill="#E11D07"/>
<path d="M16.2096 9.08C15.5109 9.08 14.9696 8.83467 14.5856 8.344C14.2069 7.85333 14.0176 7.16533 14.0176 6.28C14.0176 5.32533 14.2309 4.58667 14.6576 4.064C15.0896 3.54133 15.6842 3.28 16.4416 3.28C16.7402 3.28 17.0362 3.336 17.3296 3.448C17.6229 3.55467 17.8736 3.70933 18.0816 3.912L17.7456 4.68C17.5482 4.49867 17.3376 4.36533 17.1136 4.28C16.8896 4.18933 16.6602 4.144 16.4256 4.144C15.9616 4.144 15.6069 4.30667 15.3616 4.632C15.1162 4.95733 14.9936 5.44267 14.9936 6.088V6.32C15.1056 6.02667 15.2869 5.79733 15.5376 5.632C15.7882 5.46667 16.0762 5.384 16.4016 5.384C16.7269 5.384 17.0149 5.46133 17.2656 5.616C17.5162 5.77067 17.7136 5.984 17.8576 6.256C18.0016 6.528 18.0736 6.84 18.0736 7.192C18.0736 7.55467 17.9936 7.88 17.8336 8.168C17.6789 8.45067 17.4602 8.67467 17.1776 8.84C16.9002 9 16.5776 9.08 16.2096 9.08ZM16.1536 8.264C16.4416 8.264 16.6736 8.17067 16.8496 7.984C17.0309 7.792 17.1216 7.54133 17.1216 7.232C17.1216 6.92267 17.0309 6.672 16.8496 6.48C16.6736 6.288 16.4416 6.192 16.1536 6.192C15.8656 6.192 15.6309 6.288 15.4496 6.48C15.2736 6.672 15.1856 6.92267 15.1856 7.232C15.1856 7.54133 15.2736 7.792 15.4496 7.984C15.6309 8.17067 15.8656 8.264 16.1536 8.264Z" fill="white"/>
<defs>
<clipPath id="clip0_35_2265">
<rect width="18" height="18" fill="white" transform="translate(0 4)"/>
</clipPath>
</defs>
</svg>
