<svg width="40" height="40" viewBox="0 0 40 40" fill="none" xmlns="http://www.w3.org/2000/svg">
<circle cx="20" cy="20" r="20" fill="#FEF8F8"/>
<g clip-path="url(#clip0_456_86)">
<path d="M17.8572 13.1429H22.143C22.143 12.5745 21.9172 12.0295 21.5153 11.6276C21.1135 11.2258 20.5684 11 20.0001 11C19.4318 11 18.8867 11.2258 18.4849 11.6276C18.083 12.0295 17.8572 12.5745 17.8572 13.1429ZM16.5715 13.1429C16.5715 12.2336 16.9328 11.3615 17.5757 10.7185C18.2187 10.0755 19.0908 9.71429 20.0001 9.71429C20.9094 9.71429 21.7815 10.0755 22.4245 10.7185C23.0675 11.3615 23.4287 12.2336 23.4287 13.1429H28.7858C28.9563 13.1429 29.1198 13.2106 29.2404 13.3312C29.3609 13.4517 29.4287 13.6152 29.4287 13.7857C29.4287 13.9562 29.3609 14.1197 29.2404 14.2403C29.1198 14.3609 28.9563 14.4286 28.7858 14.4286H27.663L26.6198 26.9454C26.5439 27.856 26.1286 28.7048 25.4562 29.3235C24.7839 29.9422 23.9035 30.2857 22.9898 30.2857H17.0104C16.0967 30.2857 15.2163 29.9422 14.544 29.3235C13.8716 28.7048 13.4563 27.856 13.3804 26.9454L12.3372 14.4286H11.2144C11.0439 14.4286 10.8804 14.3609 10.7598 14.2403C10.6393 14.1197 10.5715 13.9562 10.5715 13.7857C10.5715 13.6152 10.6393 13.4517 10.7598 13.3312C10.8804 13.2106 11.0439 13.1429 11.2144 13.1429H16.5715ZM18.7144 18.0714C18.7144 17.9009 18.6467 17.7374 18.5261 17.6169C18.4055 17.4963 18.242 17.4286 18.0715 17.4286C17.901 17.4286 17.7375 17.4963 17.617 17.6169C17.4964 17.7374 17.4287 17.9009 17.4287 18.0714V25.3572C17.4287 25.5276 17.4964 25.6912 17.617 25.8117C17.7375 25.9323 17.901 26 18.0715 26C18.242 26 18.4055 25.9323 18.5261 25.8117C18.6467 25.6912 18.7144 25.5276 18.7144 25.3572V18.0714ZM21.9287 17.4286C21.7582 17.4286 21.5947 17.4963 21.4741 17.6169C21.3535 17.7374 21.2858 17.9009 21.2858 18.0714V25.3572C21.2858 25.5276 21.3535 25.6912 21.4741 25.8117C21.5947 25.9323 21.7582 26 21.9287 26C22.0992 26 22.2627 25.9323 22.3832 25.8117C22.5038 25.6912 22.5715 25.5276 22.5715 25.3572V18.0714C22.5715 17.9009 22.5038 17.7374 22.3832 17.6169C22.2627 17.4963 22.0992 17.4286 21.9287 17.4286Z" fill="#BA9775"/>
</g>
<defs>
<clipPath id="clip0_456_86">
<rect width="24" height="24" fill="white" transform="translate(8 8)"/>
</clipPath>
</defs>
</svg>
