<svg width="15" height="15" viewBox="0 0 15 15" fill="none" xmlns="http://www.w3.org/2000/svg">
<g clip-path="url(#clip0_211_3111)">
<path d="M7.50016 6.75C8.0969 6.75 8.66919 6.51295 9.09115 6.09099C9.51311 5.66903 9.75016 5.09674 9.75016 4.5C9.75016 3.90326 9.51311 3.33097 9.09115 2.90901C8.66919 2.48705 8.0969 2.25 7.50016 2.25C6.90342 2.25 6.33113 2.48705 5.90917 2.90901C5.48721 3.33097 5.25016 3.90326 5.25016 4.5C5.25016 5.09674 5.48721 5.66903 5.90917 6.09099C6.33113 6.51295 6.90342 6.75 7.50016 6.75ZM4.50016 6C4.50016 6.39783 4.34213 6.77936 4.06082 7.06066C3.77952 7.34196 3.39798 7.5 3.00016 7.5C2.60234 7.5 2.2208 7.34196 1.9395 7.06066C1.6582 6.77936 1.50016 6.39783 1.50016 6C1.50016 5.60218 1.6582 5.22064 1.9395 4.93934C2.2208 4.65804 2.60234 4.5 3.00016 4.5C3.39798 4.5 3.77952 4.65804 4.06082 4.93934C4.34213 5.22064 4.50016 5.60218 4.50016 6ZM1.11766 11.4945C0.989625 11.4217 0.893744 11.3034 0.84916 11.163C0.717014 10.735 0.715629 10.2773 0.84518 9.84849C0.974732 9.4197 1.22932 9.03933 1.57635 8.7561C1.92339 8.47287 2.34706 8.29967 2.79312 8.25867C3.23918 8.21768 3.68732 8.31076 4.08016 8.526C3.27288 9.31932 2.76761 10.3694 2.65141 11.4953C2.63416 11.6618 2.64091 11.8268 2.67016 11.9858C2.12278 11.9384 1.59263 11.7707 1.11766 11.4945ZM12.3302 11.985C12.8775 11.9379 13.4076 11.7704 13.8827 11.4945C14.0104 11.4216 14.106 11.3032 14.1504 11.163C14.2828 10.7349 14.2843 10.2771 14.1549 9.84819C14.0254 9.41926 13.7708 9.03874 13.4237 8.75539C13.0767 8.47205 12.6529 8.29877 12.2067 8.25777C11.7606 8.21677 11.3123 8.30991 10.9194 8.52525C11.7274 9.31855 12.2332 10.3689 12.3497 11.4953C12.3664 11.6589 12.3598 11.824 12.3302 11.9858M13.5002 6C13.5002 6.39783 13.3421 6.77936 13.0608 7.06066C12.7795 7.34196 12.398 7.5 12.0002 7.5C11.6023 7.5 11.2208 7.34196 10.9395 7.06066C10.6582 6.77936 10.5002 6.39783 10.5002 6C10.5002 5.60218 10.6582 5.22064 10.9395 4.93934C11.2208 4.65804 11.6023 4.5 12.0002 4.5C12.398 4.5 12.7795 4.65804 13.0608 4.93934C13.3421 5.22064 13.5002 5.60218 13.5002 6ZM3.97816 12.1425C3.90419 12.0763 3.84685 11.9935 3.81076 11.901C3.77467 11.8085 3.76085 11.7088 3.77041 11.61C3.86581 10.6871 4.29994 9.83235 4.9889 9.21094C5.67786 8.58952 6.57273 8.24557 7.50054 8.24557C8.42834 8.24557 9.32321 8.58952 10.0122 9.21094C10.7011 9.83235 11.1353 10.6871 11.2307 11.61C11.2403 11.7088 11.2265 11.8086 11.1904 11.9011C11.1543 11.9936 11.0969 12.0763 11.0229 12.1425C10.0586 13.0177 8.80245 13.5018 7.50016 13.5C6.19812 13.5016 4.94228 13.0176 3.97816 12.1425Z" fill="#BA9775"/>
</g>
<defs>
<clipPath id="clip0_211_3111">
<rect width="15" height="15" fill="white"/>
</clipPath>
</defs>
</svg>
