<svg width="15" height="15" viewBox="0 0 15 15" fill="none" xmlns="http://www.w3.org/2000/svg">
<g clip-path="url(#clip0_213_6270)">
<path d="M10.6618 9.70063C10.9542 9.50097 11.2971 9.38817 11.6509 9.37527C12.0047 9.36238 12.355 9.44992 12.6611 9.62776C12.9672 9.80561 13.2167 10.0665 13.3808 10.3802C13.5448 10.694 13.6167 11.0477 13.5881 11.4006C12.8382 11.6627 12.0417 11.7647 11.25 11.7C11.2475 10.9916 11.0435 10.298 10.6618 9.70125C10.323 9.16987 9.85566 8.73252 9.30298 8.42969C8.7503 8.12686 8.13017 7.96832 7.49996 7.96875C6.86986 7.96843 6.24985 8.12701 5.69729 8.42984C5.14473 8.73267 4.67746 9.16996 4.33871 9.70125M11.2493 11.6994L11.25 11.7188C11.25 11.8594 11.2425 11.9981 11.2268 12.135C10.0927 12.7857 8.80752 13.1271 7.49996 13.125C6.14371 13.125 4.87059 12.765 3.77309 12.135C3.75702 11.9904 3.7493 11.8449 3.74996 11.6994M3.74996 11.6994C2.95848 11.7664 2.1624 11.6648 1.41309 11.4013C1.38455 11.0485 1.45646 10.6948 1.62048 10.3812C1.7845 10.0676 2.03394 9.80675 2.33996 9.62893C2.64598 9.45111 2.99608 9.36353 3.34978 9.37633C3.70349 9.38913 4.04634 9.50178 4.33871 9.70125M3.74996 11.6994C3.75221 10.9911 3.95723 10.298 4.33871 9.70125M9.37496 4.21875C9.37496 4.71603 9.17742 5.19295 8.82579 5.54458C8.47415 5.89621 7.99724 6.09375 7.49996 6.09375C7.00268 6.09375 6.52577 5.89621 6.17413 5.54458C5.8225 5.19295 5.62496 4.71603 5.62496 4.21875C5.62496 3.72147 5.8225 3.24456 6.17413 2.89292C6.52577 2.54129 7.00268 2.34375 7.49996 2.34375C7.99724 2.34375 8.47415 2.54129 8.82579 2.89292C9.17742 3.24456 9.37496 3.72147 9.37496 4.21875ZM13.125 6.09375C13.125 6.27842 13.0886 6.46129 13.0179 6.6319C12.9472 6.80251 12.8437 6.95754 12.7131 7.08812C12.5825 7.2187 12.4275 7.32229 12.2569 7.39296C12.0862 7.46363 11.9034 7.5 11.7187 7.5C11.534 7.5 11.3512 7.46363 11.1806 7.39296C11.0099 7.32229 10.8549 7.2187 10.7243 7.08812C10.5938 6.95754 10.4902 6.80251 10.4195 6.6319C10.3488 6.46129 10.3125 6.27842 10.3125 6.09375C10.3125 5.72079 10.4606 5.3631 10.7243 5.09938C10.9881 4.83566 11.3457 4.6875 11.7187 4.6875C12.0917 4.6875 12.4494 4.83566 12.7131 5.09938C12.9768 5.3631 13.125 5.72079 13.125 6.09375ZM4.68746 6.09375C4.68746 6.27842 4.65109 6.46129 4.58042 6.6319C4.50975 6.80251 4.40616 6.95754 4.27558 7.08812C4.145 7.2187 3.98997 7.32229 3.81936 7.39296C3.64874 7.46363 3.46588 7.5 3.28121 7.5C3.09654 7.5 2.91368 7.46363 2.74306 7.39296C2.57245 7.32229 2.41742 7.2187 2.28684 7.08812C2.15626 6.95754 2.05268 6.80251 1.982 6.6319C1.91133 6.46129 1.87496 6.27842 1.87496 6.09375C1.87496 5.72079 2.02312 5.3631 2.28684 5.09938C2.55056 4.83566 2.90825 4.6875 3.28121 4.6875C3.65417 4.6875 4.01186 4.83566 4.27558 5.09938C4.5393 5.3631 4.68746 5.72079 4.68746 6.09375Z" stroke="#1B1B1B" stroke-width="0.75" stroke-linecap="round" stroke-linejoin="round"/>
</g>
<defs>
<clipPath id="clip0_213_6270">
<rect width="15" height="15" fill="white"/>
</clipPath>
</defs>
</svg>
