<svg width="15" height="15" viewBox="0 0 15 15" fill="none" xmlns="http://www.w3.org/2000/svg">
<g clip-path="url(#clip0_35_1847)">
<path fill-rule="evenodd" clip-rule="evenodd" d="M3.0625 1.875C2.4375 1.875 1.875 2.375 1.875 3.0625V5.625C1.875 6.25 2.375 6.8125 3.0625 6.8125H5.625C6.25 6.8125 6.8125 6.3125 6.8125 5.625V3.125C6.8125 2.5 6.3125 1.9375 5.625 1.9375H3.125L3.0625 1.875ZM9.3125 1.875C8.6875 1.875 8.125 2.375 8.125 3.0625V5.625C8.125 6.25 8.625 6.8125 9.3125 6.8125H11.875C12.5 6.8125 13.0625 6.3125 13.0625 5.625V3.125C13.0625 2.5 12.5625 1.9375 11.875 1.9375H9.375L9.3125 1.875ZM3.0625 8.125C2.4375 8.125 1.875 8.625 1.875 9.3125V11.875C1.875 12.5 2.375 13.0625 3.0625 13.0625H5.625C6.25 13.0625 6.8125 12.5625 6.8125 11.875V9.375C6.8125 8.75 6.3125 8.1875 5.625 8.1875H3.125L3.0625 8.125ZM9.3125 8.125C8.6875 8.125 8.125 8.625 8.125 9.3125V11.875C8.125 12.5 8.625 13.0625 9.3125 13.0625H11.875C12.5 13.0625 13.0625 12.5625 13.0625 11.875V9.375C13.0625 8.75 12.5625 8.1875 11.875 8.1875H9.375L9.3125 8.125Z" fill="#E11D07"/>
</g>
<defs>
<clipPath id="clip0_35_1847">
<rect width="15" height="15" fill="white"/>
</clipPath>
</defs>
</svg>
