<svg width="15" height="15" viewBox="0 0 15 15" fill="none" xmlns="http://www.w3.org/2000/svg">
<g clip-path="url(#clip0_213_6267)">
<path fill-rule="evenodd" clip-rule="evenodd" d="M4.68748 2.96875C4.68748 2.83219 6.09873 1.875 7.49998 1.875C8.90123 1.875 10.3125 2.83219 10.3125 2.96875C10.3125 3.45625 10.2606 3.745 10.2169 3.90219C10.1878 4.00531 10.0912 4.0625 9.98404 4.0625H5.01592C4.90873 4.0625 4.81217 4.00531 4.78311 3.90219C4.73936 3.745 4.68748 3.45625 4.68748 2.96875ZM7.03123 2.8125C6.94835 2.8125 6.86887 2.84542 6.81026 2.90403C6.75165 2.96263 6.71873 3.04212 6.71873 3.125C6.71873 3.20788 6.75165 3.28737 6.81026 3.34597C6.86887 3.40458 6.94835 3.4375 7.03123 3.4375H7.96873C8.05161 3.4375 8.1311 3.40458 8.1897 3.34597C8.24831 3.28737 8.28123 3.20788 8.28123 3.125C8.28123 3.04212 8.24831 2.96263 8.1897 2.90403C8.1311 2.84542 8.05161 2.8125 7.96873 2.8125H7.03123ZM5.01186 6.00563C3.97123 5.68375 4.23373 5.10875 4.63061 4.6875H10.4562C10.7737 5.09313 10.944 5.64031 9.98436 5.96781C10.0236 6.31594 9.9892 6.66843 9.88344 7.00242C9.77768 7.33641 9.60291 7.64445 9.37045 7.90655C9.13799 8.16865 8.85304 8.37897 8.53408 8.52387C8.21511 8.66877 7.86925 8.74501 7.51893 8.74765C7.1686 8.7503 6.82163 8.67928 6.50052 8.53921C6.17941 8.39914 5.89132 8.19314 5.65493 7.93457C5.41855 7.676 5.23915 7.37064 5.12836 7.03828C5.01758 6.70593 4.97789 6.354 5.01186 6.00531M7.41498 6.24969C8.24061 6.24969 8.88061 6.20594 9.37123 6.12969C9.38736 6.38447 9.35129 6.63987 9.26522 6.88022C9.17916 7.12057 9.04492 7.34082 8.87073 7.52746C8.69654 7.7141 8.48607 7.8632 8.25222 7.96562C8.01837 8.06805 7.76607 8.12164 7.51078 8.12311C7.25548 8.12458 7.00258 8.0739 6.76757 7.97417C6.53255 7.87445 6.32038 7.72778 6.14405 7.54316C5.96772 7.35854 5.83095 7.13986 5.74213 6.90051C5.6533 6.66117 5.61429 6.40621 5.62748 6.15125C6.08467 6.21438 6.67061 6.24969 7.41498 6.24969ZM10.1303 10.8125C9.84763 10.3715 9.45856 10.0087 8.99891 9.75749C8.53926 9.50629 8.0238 9.37475 7.49998 9.375C6.97595 9.37466 6.46026 9.50622 6.00043 9.75754C5.5406 10.0089 5.15141 10.3719 4.86873 10.8131C4.76382 10.6515 4.60269 10.5346 4.41654 10.485L3.81279 10.3234C3.61268 10.2698 3.39945 10.2978 3.22001 10.4014C3.04056 10.5049 2.9096 10.6755 2.85592 10.8756L2.61342 11.7813C2.58686 11.8804 2.58008 11.9837 2.59348 12.0855C2.60687 12.1872 2.64017 12.2853 2.69147 12.3741C2.74278 12.463 2.81109 12.5409 2.89249 12.6033C2.9739 12.6658 3.06681 12.7116 3.16592 12.7381L3.76936 12.9C3.87086 12.9273 3.97684 12.9339 4.08093 12.9191C4.18501 12.9044 4.28504 12.8688 4.37498 12.8144C4.37523 12.8973 4.40839 12.9766 4.46717 13.0351C4.52595 13.0935 4.60554 13.1262 4.68842 13.1259C4.7713 13.1257 4.85069 13.0925 4.90911 13.0337C4.96754 12.975 5.00023 12.8954 4.99998 12.8125V12.5C4.99998 12.3809 5.00842 12.2638 5.02436 12.1491L6.65061 12.585C6.72609 12.7466 6.8461 12.8833 6.99655 12.979C7.147 13.0748 7.32164 13.1257 7.49998 13.1257C7.67832 13.1257 7.85296 13.0748 8.00341 12.979C8.15386 12.8833 8.27387 12.7466 8.34936 12.585L9.97561 12.1491C9.99154 12.2638 9.99998 12.3809 9.99998 12.5V12.8125C9.99957 12.8954 10.0321 12.975 10.0904 13.0339C10.1487 13.0928 10.228 13.1261 10.3109 13.1266C10.3938 13.127 10.4734 13.0945 10.5323 13.0361C10.5912 12.9778 10.6246 12.8985 10.625 12.8156C10.8 12.9206 11.0162 12.9572 11.229 12.9L11.8328 12.7384C11.9319 12.7119 12.0248 12.6661 12.1062 12.6036C12.1876 12.5412 12.2559 12.4633 12.3072 12.3744C12.3585 12.2856 12.3918 12.1875 12.4052 12.0858C12.4186 11.984 12.4119 11.8807 12.3853 11.7816L12.1425 10.8759C12.0888 10.6758 11.9578 10.5052 11.7784 10.4017C11.5989 10.2981 11.3857 10.2701 11.1856 10.3238L10.5819 10.4853C10.3961 10.5348 10.2353 10.6515 10.1303 10.8125ZM5.18842 11.5456C5.35727 11.1374 5.63117 10.7812 5.98228 10.5131C6.33339 10.2451 6.74921 10.0747 7.18748 10.0194V11.3034C7.04743 11.3531 6.92116 11.4353 6.81904 11.5432C6.71691 11.6512 6.64184 11.7818 6.59998 11.9244L5.18842 11.5456ZM9.81154 11.5456C9.64266 11.1374 9.36876 10.7812 9.01765 10.5132C8.66654 10.2451 8.25074 10.0747 7.81248 10.0194V11.3034C8.09498 11.4034 8.31561 11.6347 8.39998 11.9244L9.81154 11.5456ZM7.49998 12.5C7.58286 12.5 7.66235 12.4671 7.72095 12.4085C7.77956 12.3499 7.81248 12.2704 7.81248 12.1875C7.81248 12.1046 7.77956 12.0251 7.72095 11.9665C7.66235 11.9079 7.58286 11.875 7.49998 11.875C7.4171 11.875 7.33762 11.9079 7.27901 11.9665C7.2204 12.0251 7.18748 12.1046 7.18748 12.1875C7.18748 12.2704 7.2204 12.3499 7.27901 12.4085C7.33762 12.4671 7.4171 12.5 7.49998 12.5Z" fill="#BA9775"/>
</g>
<defs>
<clipPath id="clip0_213_6267">
<rect width="15" height="15" fill="white"/>
</clipPath>
</defs>
</svg>
