<svg width="15" height="15" viewBox="0 0 15 15" fill="none" xmlns="http://www.w3.org/2000/svg">
<g clip-path="url(#clip0_35_1784)">
<path d="M1.875 4.21875C1.875 3.11375 1.875 2.56125 2.21875 2.21875C2.56062 1.875 3.11312 1.875 4.21875 1.875C5.32375 1.875 5.87625 1.875 6.21875 2.21875C6.5625 2.56125 6.5625 3.11375 6.5625 4.21875C6.5625 5.32375 6.5625 5.87625 6.21875 6.21875C5.87625 6.5625 5.32375 6.5625 4.21875 6.5625C3.11375 6.5625 2.56125 6.5625 2.21875 6.21875C1.875 5.87687 1.875 5.32438 1.875 4.21875ZM1.875 10.7856C1.875 9.68062 1.875 9.12813 2.21875 8.78563C2.56125 8.44188 3.11375 8.44187 4.21875 8.44187C5.32375 8.44187 5.87625 8.44188 6.21875 8.78563C6.5625 9.12813 6.5625 9.68062 6.5625 10.7856C6.5625 11.8906 6.5625 12.4431 6.21875 12.7856C5.87625 13.1294 5.32375 13.1294 4.21875 13.1294C3.11375 13.1294 2.56125 13.1294 2.21875 12.7856C1.875 12.4438 1.875 11.8906 1.875 10.7856ZM8.4375 4.21875C8.4375 3.11375 8.4375 2.56125 8.78125 2.21875C9.12375 1.875 9.67625 1.875 10.7812 1.875C11.8863 1.875 12.4388 1.875 12.7813 2.21875C13.125 2.56125 13.125 3.11375 13.125 4.21875C13.125 5.32375 13.125 5.87625 12.7813 6.21875C12.4388 6.5625 11.8863 6.5625 10.7812 6.5625C9.67625 6.5625 9.12375 6.5625 8.78125 6.21875C8.4375 5.87625 8.4375 5.32375 8.4375 4.21875ZM8.4375 10.7856C8.4375 9.68062 8.4375 9.12813 8.78125 8.78563C9.12375 8.44188 9.67625 8.44187 10.7812 8.44187C11.8863 8.44187 12.4388 8.44188 12.7813 8.78563C13.125 9.12813 13.125 9.68062 13.125 10.7856C13.125 11.8906 13.125 12.4431 12.7813 12.7856C12.4388 13.1294 11.8863 13.1294 10.7812 13.1294C9.67625 13.1294 9.12375 13.1294 8.78125 12.7856C8.4375 12.4431 8.4375 11.8906 8.4375 10.7856Z" stroke="#343434" stroke-linecap="round" stroke-linejoin="round"/>
</g>
<defs>
<clipPath id="clip0_35_1784">
<rect width="15" height="15" fill="white"/>
</clipPath>
</defs>
</svg>
