<svg width="15" height="15" viewBox="0 0 15 15" fill="none" xmlns="http://www.w3.org/2000/svg">
<g clip-path="url(#clip0_213_9330)">
<path d="M6.5625 3.4375C6.5625 3.35462 6.59542 3.27513 6.65403 3.21653C6.71263 3.15792 6.79212 3.125 6.875 3.125H8.125C8.20788 3.125 8.28737 3.15792 8.34597 3.21653C8.40458 3.27513 8.4375 3.35462 8.4375 3.4375C8.4375 3.52038 8.40458 3.59987 8.34597 3.65847C8.28737 3.71708 8.20788 3.75 8.125 3.75H6.875C6.79212 3.75 6.71263 3.71708 6.65403 3.65847C6.59542 3.59987 6.5625 3.52038 6.5625 3.4375Z" fill="#1B1B1B"/>
<path fill-rule="evenodd" clip-rule="evenodd" d="M10.4261 5.7875C10.3126 5.87656 10.1654 5.94781 9.98793 6.00562C10.0219 6.3528 9.98282 6.70323 9.87323 7.0344C9.76365 7.36557 9.58597 7.67013 9.35162 7.92852C9.11728 8.18691 8.83146 8.39339 8.51253 8.5347C8.1936 8.676 7.84864 8.749 7.49981 8.749C7.15098 8.749 6.80601 8.676 6.48709 8.5347C6.16816 8.39339 5.88234 8.18691 5.64799 7.92852C5.41365 7.67013 5.23597 7.36557 5.12638 7.0344C5.01679 6.70323 4.97772 6.3528 5.01168 6.00562C4.83418 5.94781 4.687 5.87656 4.57387 5.7875C4.427 5.67187 4.32856 5.5175 4.317 5.33187C4.30606 5.15969 4.37418 5.01344 4.44231 4.91031C4.50956 4.81263 4.58942 4.72427 4.67981 4.6475C4.72356 4.60906 4.76668 4.575 4.80668 4.54531C4.79481 4.48125 4.78168 4.40375 4.76856 4.31406C4.7132 3.92015 4.68604 3.52278 4.68731 3.125C4.68731 3.02687 4.72918 2.95375 4.74856 2.92281C4.77293 2.88375 4.80168 2.85031 4.82793 2.82344C4.88012 2.76875 4.94762 2.71312 5.02168 2.65969C5.17168 2.55094 5.37793 2.42875 5.62293 2.31438C6.11137 2.08625 6.78231 1.875 7.49981 1.875C8.21762 1.875 8.88825 2.08656 9.37668 2.31438C9.58731 2.41071 9.78858 2.52631 9.97793 2.65969C10.052 2.71312 10.1195 2.76906 10.1717 2.82344C10.1979 2.85031 10.2267 2.88375 10.2511 2.92281C10.2704 2.95375 10.3123 3.02687 10.3123 3.125C10.3123 3.62562 10.2717 4.03125 10.2311 4.31406C10.2179 4.40375 10.2048 4.48125 10.1929 4.54531C10.2329 4.575 10.2764 4.60906 10.3201 4.6475C10.3982 4.71594 10.4876 4.805 10.5573 4.91031C10.6257 5.01344 10.6936 5.15969 10.6829 5.33219C10.6714 5.5175 10.5729 5.67187 10.4261 5.7875ZM5.31293 3.22437C5.31762 3.64562 5.35262 3.98625 5.38731 4.22437C5.39543 4.28062 5.40356 4.33062 5.41106 4.375H9.58856C9.59637 4.33062 9.60418 4.28031 9.61231 4.22437C9.64668 3.98625 9.68199 3.64562 9.68668 3.22437C9.66236 3.20381 9.63724 3.18421 9.61137 3.16562C9.49856 3.08406 9.32731 2.98125 9.11231 2.88094C8.68012 2.67906 8.10106 2.5 7.49981 2.5C6.89856 2.5 6.3195 2.67906 5.88731 2.88094C5.67231 2.98125 5.50106 3.08406 5.38856 3.16531C5.36258 3.1841 5.33735 3.20391 5.31293 3.22469M5.24606 5L5.24512 5.00062C5.19118 5.03657 5.13952 5.07581 5.09043 5.11812C5.03481 5.16687 4.99043 5.21438 4.96356 5.25563C4.95716 5.2649 4.95142 5.27461 4.94637 5.28469C4.9508 5.28873 4.95538 5.29258 4.96012 5.29625C5.007 5.33312 5.10762 5.38719 5.30387 5.44062C5.34262 5.45125 5.38418 5.46125 5.42856 5.47125L5.43137 5.47187C5.58825 5.50656 5.78137 5.5375 6.01668 5.56187C6.35012 5.59656 6.76981 5.61937 7.29418 5.62437L7.49981 5.625C8.50825 5.625 9.16043 5.56219 9.56856 5.47187L9.57106 5.47125C9.61575 5.46125 9.65731 5.45125 9.69606 5.44062C9.892 5.3875 9.99293 5.33312 10.0395 5.29625C10.0442 5.29258 10.0488 5.28873 10.0532 5.28469C10.0483 5.27462 10.0427 5.26491 10.0364 5.25563C10 5.20455 9.95728 5.15834 9.90918 5.11812C9.8602 5.07581 9.80864 5.03657 9.75481 5.00062L9.75356 5H5.24606ZM7.41481 6.25C8.24043 6.25 8.88043 6.20625 9.37106 6.13C9.38719 6.38479 9.35111 6.64018 9.26505 6.88053C9.17899 7.12089 9.04474 7.34113 8.87055 7.52777C8.69636 7.71441 8.4859 7.86351 8.25205 7.96593C8.0182 8.06836 7.76589 8.12195 7.5106 8.12342C7.25531 8.12489 7.00241 8.07421 6.76739 7.97448C6.53238 7.87476 6.32021 7.7281 6.14388 7.54348C5.96755 7.35886 5.83078 7.14017 5.74196 6.90083C5.65313 6.66148 5.61412 6.40652 5.62731 6.15156C6.0845 6.21469 6.67043 6.25 7.41481 6.25ZM5.02418 12.1491C5.0079 12.2653 4.99975 12.3826 4.99981 12.5V12.8125C4.99984 12.8812 4.97724 12.948 4.93549 13.0026C4.89375 13.0571 4.83519 13.0964 4.76887 13.1143C4.70256 13.1323 4.63218 13.1278 4.56863 13.1017C4.50508 13.0757 4.4519 13.0294 4.41731 12.97C4.20669 13.0843 3.96024 13.1132 3.72887 13.0509L3.12512 12.8891C2.88504 12.8246 2.68039 12.6675 2.55615 12.4522C2.43192 12.2369 2.39828 11.981 2.46262 11.7409L2.70512 10.8353C2.7695 10.5952 2.92662 10.3904 3.14193 10.2661C3.35724 10.1419 3.6131 10.1082 3.85325 10.1725L4.457 10.3341C4.667 10.3903 4.84137 10.5137 4.96262 10.675C5.25191 10.2723 5.63297 9.94437 6.07424 9.7183C6.51552 9.49223 7.00431 9.37455 7.50012 9.375C7.99567 9.37467 8.48417 9.49236 8.92521 9.71831C9.36625 9.94426 9.74714 10.272 10.0364 10.6744C10.162 10.5078 10.3398 10.3881 10.5414 10.3344L11.1451 10.1728C11.3852 10.1085 11.6411 10.1421 11.8564 10.2663C12.0717 10.3906 12.2288 10.5952 12.2932 10.8353L12.5361 11.7412C12.5679 11.8602 12.576 11.9842 12.5599 12.1063C12.5438 12.2283 12.5039 12.346 12.4423 12.4527C12.3807 12.5593 12.2987 12.6527 12.201 12.7276C12.1034 12.8026 11.9919 12.8575 11.8729 12.8894L11.2695 13.0509C11.0385 13.1133 10.7925 13.0846 10.582 12.9709C10.5473 13.0302 10.494 13.0764 10.4305 13.1024C10.3669 13.1283 10.2965 13.1326 10.2302 13.1146C10.164 13.0966 10.1055 13.0572 10.0638 13.0026C10.0222 12.948 9.99968 12.8812 9.99981 12.8125V12.5C9.99986 12.3826 9.99172 12.2653 9.97543 12.1491L8.34918 12.585C8.27369 12.7466 8.15369 12.8833 8.00324 12.979C7.85279 13.0748 7.67815 13.1257 7.49981 13.1257C7.32147 13.1257 7.14682 13.0748 6.99638 12.979C6.84593 12.8833 6.72592 12.7466 6.65043 12.585L5.02418 12.1491ZM6.59981 11.9241C6.64175 11.7816 6.71686 11.6511 6.81898 11.5433C6.92111 11.4354 7.04733 11.3534 7.18731 11.3037V10.0194C6.74898 10.0748 6.33313 10.2452 5.98202 10.5134C5.6309 10.7816 5.35704 11.1379 5.18825 11.5462L6.59981 11.9241ZM9.81137 11.5459C9.64253 11.1377 9.36865 10.7814 9.01754 10.5133C8.66643 10.2452 8.2506 10.0748 7.81231 10.0194V11.3034C8.09481 11.4034 8.31543 11.6347 8.39981 11.9244L9.81137 11.5459ZM10.4823 11.3209C10.4717 11.2813 10.469 11.2399 10.4743 11.1993C10.4797 11.1586 10.493 11.1193 10.5135 11.0838C10.534 11.0482 10.5613 11.0171 10.5939 10.9921C10.6264 10.9671 10.6636 10.9487 10.7032 10.9381L11.307 10.7762C11.387 10.7549 11.4722 10.7661 11.544 10.8076C11.6157 10.849 11.668 10.9172 11.6895 10.9972L11.9323 11.9028C11.9429 11.9425 11.9457 11.9838 11.9403 12.0245C11.935 12.0652 11.9217 12.1044 11.9011 12.14C11.8806 12.1755 11.8533 12.2067 11.8207 12.2317C11.7882 12.2567 11.751 12.275 11.7114 12.2856L11.1076 12.4475C11.068 12.4581 11.0266 12.4608 10.9859 12.4555C10.9452 12.4501 10.9059 12.4368 10.8704 12.4162C10.8348 12.3957 10.8037 12.3683 10.7787 12.3357C10.7537 12.3031 10.7354 12.2659 10.7248 12.2262L10.4823 11.3209ZM3.69168 10.7762C3.65202 10.7656 3.61064 10.7628 3.56991 10.7681C3.52918 10.7735 3.4899 10.7868 3.45432 10.8073C3.41873 10.8278 3.38754 10.8551 3.36253 10.8877C3.33752 10.9203 3.31918 10.9575 3.30856 10.9972L3.06606 11.9025C3.05542 11.9421 3.0527 11.9835 3.05805 12.0242C3.0634 12.0649 3.07671 12.1041 3.09723 12.1397C3.11775 12.1752 3.14507 12.2064 3.17763 12.2314C3.21019 12.2564 3.24735 12.2747 3.287 12.2853L3.89075 12.4472C3.93039 12.4578 3.97174 12.4605 4.01243 12.4552C4.05313 12.4498 4.09237 12.4365 4.12792 12.416C4.16347 12.3955 4.19462 12.3682 4.21961 12.3356C4.2446 12.3031 4.26293 12.2659 4.27356 12.2262L4.51606 11.3206C4.52674 11.281 4.52949 11.2396 4.52417 11.1988C4.51884 11.1581 4.50554 11.1188 4.48502 11.0833C4.4645 11.0477 4.43716 11.0165 4.40458 10.9915C4.372 10.9665 4.3348 10.9481 4.29512 10.9375L3.69168 10.7762ZM7.81231 12.1875C7.81231 12.2704 7.77938 12.3499 7.72078 12.4085C7.66217 12.4671 7.58269 12.5 7.49981 12.5C7.41693 12.5 7.33744 12.4671 7.27884 12.4085C7.22023 12.3499 7.18731 12.2704 7.18731 12.1875C7.18731 12.1046 7.22023 12.0251 7.27884 11.9665C7.33744 11.9079 7.41693 11.875 7.49981 11.875C7.58269 11.875 7.66217 11.9079 7.72078 11.9665C7.77938 12.0251 7.81231 12.1046 7.81231 12.1875Z" fill="#1B1B1B"/>
</g>
<defs>
<clipPath id="clip0_213_9330">
<rect width="15" height="15" fill="white"/>
</clipPath>
</defs>
</svg>
