<svg width="15" height="15" viewBox="0 0 15 15" fill="none" xmlns="http://www.w3.org/2000/svg">
<g clip-path="url(#clip0_213_5431)">
<path d="M1.53149 3.5625C1.53149 2.838 2.11949 2.25 2.84399 2.25H9.18824C9.91274 2.25 10.5007 2.838 10.5007 3.5625V4.5H11.1615C11.3705 4.50001 11.5754 4.55825 11.7532 4.66821C11.931 4.77816 12.0746 4.93547 12.168 5.1225L13.3815 7.54875C13.4597 7.70474 13.5005 7.87677 13.5007 8.05125V10.875C13.5007 11.1734 13.3822 11.4595 13.1712 11.6705C12.9603 11.8815 12.6741 12 12.3757 12H11.2132C11.1272 12.4239 10.8972 12.8049 10.5623 13.0786C10.2275 13.3524 9.80825 13.5019 9.37574 13.5019C8.94324 13.5019 8.52403 13.3524 8.18915 13.0786C7.85427 12.8049 7.62431 12.4239 7.53824 12H6.71324C6.62718 12.4239 6.39722 12.8049 6.06234 13.0786C5.72746 13.3524 5.30825 13.5019 4.87574 13.5019C4.44324 13.5019 4.02403 13.3524 3.68915 13.0786C3.35427 12.8049 3.12431 12.4239 3.03824 12H2.84399C2.4959 12 2.16206 11.8617 1.91592 11.6156C1.66977 11.3694 1.53149 11.0356 1.53149 10.6875V3.5625ZM7.53824 11.25C7.63762 10.7628 7.92646 10.335 8.34124 10.0607C8.75602 9.78644 9.26276 9.68816 9.74999 9.7875V3.5625C9.74999 3.41332 9.69073 3.27024 9.58524 3.16475C9.47975 3.05926 9.33668 3 9.18749 3H2.84399C2.69481 3 2.55174 3.05926 2.44625 3.16475C2.34076 3.27024 2.28149 3.41332 2.28149 3.5625V10.6875C2.28149 10.998 2.53349 11.25 2.84399 11.25H3.03824C3.12431 10.8261 3.35427 10.4451 3.68915 10.1714C4.02403 9.89764 4.44324 9.74812 4.87574 9.74812C5.30825 9.74812 5.72746 9.89764 6.06234 10.1714C6.39722 10.4451 6.62718 10.8261 6.71324 11.25H7.53824ZM10.5 10.125C10.86 10.395 11.1195 10.7925 11.2125 11.25H12.375C12.4745 11.25 12.5698 11.2105 12.6402 11.1402C12.7105 11.0698 12.75 10.9745 12.75 10.875V8.25H10.5V10.125ZM10.5 7.5H12.5175L11.4975 5.457C11.4663 5.39479 11.4185 5.34248 11.3592 5.30592C11.3 5.26937 11.2318 5.25 11.1622 5.25H10.5V7.5ZM4.87499 10.5C4.57663 10.5 4.29048 10.6185 4.0795 10.8295C3.86852 11.0405 3.74999 11.3266 3.74999 11.625C3.74999 11.9234 3.86852 12.2095 4.0795 12.4205C4.29048 12.6315 4.57663 12.75 4.87499 12.75C5.17336 12.75 5.45951 12.6315 5.67049 12.4205C5.88147 12.2095 5.99999 11.9234 5.99999 11.625C5.99999 11.3266 5.88147 11.0405 5.67049 10.8295C5.45951 10.6185 5.17336 10.5 4.87499 10.5ZM8.24999 11.625C8.24999 11.7727 8.27909 11.919 8.33563 12.0555C8.39217 12.192 8.47503 12.316 8.5795 12.4205C8.68396 12.525 8.80798 12.6078 8.94448 12.6644C9.08097 12.7209 9.22726 12.75 9.37499 12.75C9.52273 12.75 9.66902 12.7209 9.80551 12.6644C9.942 12.6078 10.066 12.525 10.1705 12.4205C10.275 12.316 10.3578 12.192 10.4144 12.0555C10.4709 11.919 10.5 11.7727 10.5 11.625C10.5 11.3266 10.3815 11.0405 10.1705 10.8295C9.95951 10.6185 9.67336 10.5 9.37499 10.5C9.07663 10.5 8.79048 10.6185 8.5795 10.8295C8.36852 11.0405 8.24999 11.3266 8.24999 11.625Z" fill="#1B1B1B"/>
</g>
<defs>
<clipPath id="clip0_213_5431">
<rect width="15" height="15" fill="white"/>
</clipPath>
</defs>
</svg>
