<svg width="15" height="15" viewBox="0 0 15 15" fill="none" xmlns="http://www.w3.org/2000/svg">
<g clip-path="url(#clip0_213_9335)">
<path d="M1.53174 3.5625C1.53174 2.838 2.11974 2.25 2.84424 2.25H9.18849C9.91299 2.25 10.501 2.838 10.501 3.5625V4.5H11.1617C11.3708 4.50001 11.5757 4.55825 11.7535 4.66821C11.9312 4.77816 12.0749 4.93547 12.1682 5.1225L13.3817 7.54875C13.4599 7.70474 13.5007 7.87677 13.501 8.05125V10.875C13.501 11.1734 13.3825 11.4595 13.1715 11.6705C12.9605 11.8815 12.6744 12 12.376 12H11.2135C11.1274 12.4239 10.8975 12.8049 10.5626 13.0786C10.2277 13.3524 9.8085 13.5019 9.37599 13.5019C8.94348 13.5019 8.52427 13.3524 8.18939 13.0786C7.85451 12.8049 7.62456 12.4239 7.53849 12H6.71349C6.62742 12.4239 6.39746 12.8049 6.06258 13.0786C5.72771 13.3524 5.3085 13.5019 4.87599 13.5019C4.44348 13.5019 4.02427 13.3524 3.68939 13.0786C3.35451 12.8049 3.12456 12.4239 3.03849 12H2.84424C2.49614 12 2.1623 11.8617 1.91616 11.6156C1.67002 11.3694 1.53174 11.0356 1.53174 10.6875V3.5625ZM10.501 5.25V7.5H12.5185L11.4977 5.457C11.4666 5.39479 11.4187 5.34248 11.3595 5.30592C11.3003 5.26937 11.2321 5.25 11.1625 5.25H10.501ZM4.87599 10.5C4.57762 10.5 4.29147 10.6185 4.08049 10.8295C3.86951 11.0405 3.75099 11.3266 3.75099 11.625C3.75099 11.9234 3.86951 12.2095 4.08049 12.4205C4.29147 12.6315 4.57762 12.75 4.87599 12.75C5.17436 12.75 5.4605 12.6315 5.67148 12.4205C5.88246 12.2095 6.00099 11.9234 6.00099 11.625C6.00099 11.3266 5.88246 11.0405 5.67148 10.8295C5.4605 10.6185 5.17436 10.5 4.87599 10.5ZM8.25099 11.625C8.25099 11.9234 8.36951 12.2095 8.58049 12.4205C8.79147 12.6315 9.07762 12.75 9.37599 12.75C9.67436 12.75 9.9605 12.6315 10.1715 12.4205C10.3825 12.2095 10.501 11.9234 10.501 11.625C10.501 11.3266 10.3825 11.0405 10.1715 10.8295C9.9605 10.6185 9.67436 10.5 9.37599 10.5C9.07762 10.5 8.79147 10.6185 8.58049 10.8295C8.36951 11.0405 8.25099 11.3266 8.25099 11.625Z" fill="#BA9775"/>
<g clip-path="url(#clip1_213_9335)">
<path fill-rule="evenodd" clip-rule="evenodd" d="M5.74989 4.375C5.74989 4.26575 6.87889 3.5 7.99989 3.5C9.12089 3.5 10.2499 4.26575 10.2499 4.375C10.2499 4.765 10.2084 4.996 10.1734 5.12175C10.1501 5.20425 10.0729 5.25 9.98714 5.25H6.01264C5.92689 5.25 5.84964 5.20425 5.82639 5.12175C5.79139 4.996 5.74989 4.765 5.74989 4.375ZM7.62489 4.25C7.55858 4.25 7.49499 4.27634 7.44811 4.32322C7.40123 4.37011 7.37489 4.4337 7.37489 4.5C7.37489 4.5663 7.40123 4.62989 7.44811 4.67678C7.49499 4.72366 7.55858 4.75 7.62489 4.75H8.37489C8.44119 4.75 8.50478 4.72366 8.55166 4.67678C8.59855 4.62989 8.62489 4.5663 8.62489 4.5C8.62489 4.4337 8.59855 4.37011 8.55166 4.32322C8.50478 4.27634 8.44119 4.25 8.37489 4.25H7.62489ZM6.00939 6.8045C5.17689 6.547 5.38689 6.087 5.70439 5.75H10.3649C10.6189 6.0745 10.7551 6.51225 9.98739 6.77425C10.0188 7.05276 9.99126 7.33475 9.90665 7.60194C9.82205 7.86913 9.68223 8.11556 9.49626 8.32524C9.3103 8.53492 9.08234 8.70318 8.82716 8.8191C8.57199 8.93502 8.2953 8.99601 8.01505 8.99812C7.73479 9.00024 7.45721 8.94342 7.20032 8.83137C6.94343 8.71931 6.71296 8.55451 6.52385 8.34766C6.33474 8.1408 6.19122 7.89651 6.10259 7.63063C6.01397 7.36474 5.98221 7.0832 6.00939 6.80425M7.93189 6.99975C8.59239 6.99975 9.10439 6.96475 9.49689 6.90375C9.50979 7.10758 9.48093 7.3119 9.41208 7.50418C9.34323 7.69646 9.23584 7.87266 9.09648 8.02197C8.95713 8.17128 8.78876 8.29056 8.60168 8.3725C8.4146 8.45444 8.21276 8.49731 8.00852 8.49848C7.80429 8.49966 7.60197 8.45912 7.41396 8.37934C7.22594 8.29956 7.05621 8.18223 6.91514 8.03453C6.77408 7.88683 6.66467 7.71189 6.59361 7.52041C6.52254 7.32893 6.49133 7.12496 6.50189 6.921C6.86764 6.9715 7.33639 6.99975 7.93189 6.99975ZM10.1041 10.65C9.878 10.2972 9.56675 10.007 9.19903 9.80599C8.83131 9.60503 8.41894 9.4998 7.99989 9.5C7.58066 9.49973 7.16811 9.60497 6.80024 9.80603C6.43238 10.0071 6.12103 10.2975 5.89489 10.6505C5.81096 10.5212 5.68206 10.4277 5.53314 10.388L5.05014 10.2587C4.89005 10.2158 4.71946 10.2383 4.57591 10.3211C4.43235 10.4039 4.32758 10.5404 4.28464 10.7005L4.09064 11.425C4.06939 11.5043 4.06397 11.587 4.07468 11.6684C4.0854 11.7497 4.11204 11.8282 4.15308 11.8993C4.19413 11.9704 4.24877 12.0327 4.3139 12.0827C4.37902 12.1326 4.45335 12.1693 4.53264 12.1905L5.01539 12.32C5.09659 12.3419 5.18138 12.3471 5.26464 12.3353C5.34791 12.3235 5.42793 12.295 5.49989 12.2515C5.50009 12.3178 5.52662 12.3813 5.57364 12.4281C5.62067 12.4748 5.68433 12.5009 5.75064 12.5007C5.81694 12.5006 5.88045 12.474 5.92719 12.427C5.97394 12.38 6.00009 12.3163 5.99989 12.25V12C5.99989 11.9047 6.00664 11.811 6.01939 11.7192L7.32039 12.068C7.38078 12.1973 7.47679 12.3066 7.59714 12.3832C7.7175 12.4598 7.85721 12.5005 7.99989 12.5005C8.14256 12.5005 8.28227 12.4598 8.40263 12.3832C8.52299 12.3066 8.619 12.1973 8.67939 12.068L9.98039 11.7192C9.99314 11.811 9.99989 11.9047 9.99989 12V12.25C9.99956 12.3163 10.0256 12.38 10.0722 12.4271C10.1189 12.4743 10.1823 12.5009 10.2486 12.5013C10.3149 12.5016 10.3787 12.4756 10.4258 12.4289C10.4729 12.3823 10.4996 12.3188 10.4999 12.2525C10.6399 12.3365 10.8129 12.3657 10.9831 12.32L11.4661 12.1908C11.5454 12.1695 11.6198 12.1329 11.6849 12.0829C11.75 12.0329 11.8046 11.9706 11.8457 11.8995C11.8867 11.8285 11.9134 11.75 11.9241 11.6686C11.9348 11.5872 11.9294 11.5045 11.9081 11.4253L11.7139 10.7008C11.6709 10.5407 11.5662 10.4042 11.4226 10.3214C11.2791 10.2385 11.1085 10.2161 10.9484 10.259L10.4654 10.3883C10.3168 10.4278 10.1881 10.5212 10.1041 10.65ZM6.15064 11.2365C6.28572 10.9099 6.50484 10.6249 6.78573 10.4105C7.06662 10.196 7.39927 10.0598 7.74989 10.0155V11.0428C7.63785 11.0825 7.53683 11.1482 7.45513 11.2346C7.37343 11.3209 7.31337 11.4254 7.27989 11.5395L6.15064 11.2365ZM9.84914 11.2365C9.71403 10.91 9.49491 10.625 9.21402 10.4105C8.93314 10.1961 8.60049 10.0598 8.24989 10.0155V11.0428C8.47589 11.1228 8.65239 11.3078 8.71989 11.5395L9.84914 11.2365ZM7.99989 12C8.06619 12 8.12978 11.9737 8.17666 11.9268C8.22355 11.8799 8.24989 11.8163 8.24989 11.75C8.24989 11.6837 8.22355 11.6201 8.17666 11.5732C8.12978 11.5263 8.06619 11.5 7.99989 11.5C7.93358 11.5 7.86999 11.5263 7.82311 11.5732C7.77623 11.6201 7.74989 11.6837 7.74989 11.75C7.74989 11.8163 7.77623 11.8799 7.82311 11.9268C7.86999 11.9737 7.93358 12 7.99989 12Z" fill="#BA9775"/>
</g>
</g>
<defs>
<clipPath id="clip0_213_9335">
<rect width="15" height="15" fill="white"/>
</clipPath>
<clipPath id="clip1_213_9335">
<rect width="12" height="12" fill="white" transform="translate(2 2)"/>
</clipPath>
</defs>
</svg>
