<svg width="15" height="15" viewBox="0 0 15 15" fill="none" xmlns="http://www.w3.org/2000/svg">
<path d="M7.8125 6.40625C7.8125 6.28193 7.86189 6.1627 7.94979 6.07479C8.0377 5.98689 8.15693 5.9375 8.28125 5.9375H10.4688C10.5931 5.9375 10.7123 5.98689 10.8002 6.07479C10.8881 6.1627 10.9375 6.28193 10.9375 6.40625C10.9375 6.53057 10.8881 6.6498 10.8002 6.73771C10.7123 6.82561 10.5931 6.875 10.4688 6.875H8.28125C8.15693 6.875 8.0377 6.82561 7.94979 6.73771C7.86189 6.6498 7.8125 6.53057 7.8125 6.40625ZM8.28125 9.375C8.15693 9.375 8.0377 9.42439 7.94979 9.51229C7.86189 9.6002 7.8125 9.71943 7.8125 9.84375C7.8125 9.96807 7.86189 10.0873 7.94979 10.1752C8.0377 10.2631 8.15693 10.3125 8.28125 10.3125H10.4688C10.5931 10.3125 10.7123 10.2631 10.8002 10.1752C10.8881 10.0873 10.9375 9.96807 10.9375 9.84375C10.9375 9.71943 10.8881 9.6002 10.8002 9.51229C10.7123 9.42439 10.5931 9.375 10.4688 9.375H8.28125ZM6.7375 6.1125C6.78355 6.06959 6.82049 6.01784 6.84611 5.96034C6.87173 5.90284 6.88551 5.84077 6.88662 5.77783C6.88773 5.71489 6.87615 5.65237 6.85258 5.594C6.829 5.53563 6.79391 5.48261 6.7494 5.4381C6.70489 5.39359 6.65187 5.3585 6.5935 5.33492C6.53513 5.31135 6.47261 5.29977 6.40967 5.30088C6.34673 5.30199 6.28466 5.31577 6.22716 5.34139C6.16966 5.36701 6.11791 5.40395 6.075 5.45L5.15625 6.36875L4.8625 6.075C4.77364 5.9922 4.65611 5.94712 4.53467 5.94926C4.41324 5.95141 4.29737 6.0006 4.21149 6.08649C4.1256 6.17237 4.07641 6.28824 4.07427 6.40967C4.07212 6.53111 4.1172 6.64864 4.2 6.7375L4.825 7.3625C4.91289 7.45028 5.03203 7.49959 5.15625 7.49959C5.28047 7.49959 5.39961 7.45028 5.4875 7.3625L6.7375 6.1125ZM6.7375 8.8875C6.82528 8.97539 6.87459 9.09453 6.87459 9.21875C6.87459 9.34297 6.82528 9.46211 6.7375 9.55L5.4875 10.8C5.39961 10.8878 5.28047 10.9371 5.15625 10.9371C5.03203 10.9371 4.91289 10.8878 4.825 10.8L4.2 10.175C4.15395 10.1321 4.11701 10.0803 4.09139 10.0228C4.06577 9.96534 4.05199 9.90326 4.05088 9.84033C4.04977 9.77739 4.06135 9.71487 4.08492 9.6565C4.1085 9.59813 4.14359 9.54511 4.1881 9.5006C4.23261 9.45609 4.28563 9.421 4.344 9.39742C4.40237 9.37385 4.46489 9.36227 4.52783 9.36338C4.59077 9.36449 4.65284 9.37827 4.71034 9.40389C4.76784 9.42951 4.81959 9.46645 4.8625 9.5125L5.15625 9.80625L6.075 8.8875C6.16289 8.79972 6.28203 8.75041 6.40625 8.75041C6.53047 8.75041 6.64961 8.79972 6.7375 8.8875ZM9.99625 2.5525C9.97006 2.19845 9.81092 1.86741 9.55079 1.62582C9.29065 1.38424 8.94877 1.24998 8.59375 1.25H6.40625C6.06035 1.25001 5.72659 1.3775 5.46878 1.60811C5.21096 1.83871 5.04718 2.15624 5.00875 2.5H3.90625C3.53329 2.5 3.1756 2.64816 2.91188 2.91188C2.64816 3.1756 2.5 3.53329 2.5 3.90625V12.3437C2.5 12.7167 2.64816 13.0744 2.91188 13.3381C3.1756 13.6018 3.53329 13.75 3.90625 13.75H11.0938C11.2784 13.75 11.4613 13.7136 11.6319 13.643C11.8025 13.5723 11.9575 13.4687 12.0881 13.3381C12.2187 13.2075 12.3223 13.0525 12.393 12.8819C12.4636 12.7113 12.5 12.5284 12.5 12.3437V3.90625C12.5 3.72158 12.4636 3.53872 12.393 3.3681C12.3223 3.19749 12.2187 3.04246 12.0881 2.91188C11.9575 2.7813 11.8025 2.67771 11.6319 2.60704C11.4613 2.53637 11.2784 2.5 11.0938 2.5H9.99125L9.99625 2.5525ZM9.99625 2.56L10 2.65625C10 2.62375 9.99813 2.59187 9.99625 2.56ZM6.40625 4.0625H8.59375C9.08125 4.0625 9.51063 3.81437 9.76313 3.4375H11.0938C11.2181 3.4375 11.3373 3.48689 11.4252 3.57479C11.5131 3.6627 11.5625 3.78193 11.5625 3.90625V12.3437C11.5625 12.4681 11.5131 12.5873 11.4252 12.6752C11.3373 12.7631 11.2181 12.8125 11.0938 12.8125H3.90625C3.78193 12.8125 3.6627 12.7631 3.57479 12.6752C3.48689 12.5873 3.4375 12.4681 3.4375 12.3437V3.90625C3.4375 3.78193 3.48689 3.6627 3.57479 3.57479C3.6627 3.48689 3.78193 3.4375 3.90625 3.4375H5.23688C5.48938 3.81437 5.91875 4.0625 6.40625 4.0625ZM6.40625 2.1875H8.59375C8.71807 2.1875 8.8373 2.23689 8.92521 2.32479C9.01311 2.4127 9.0625 2.53193 9.0625 2.65625C9.0625 2.78057 9.01311 2.8998 8.92521 2.98771C8.8373 3.07561 8.71807 3.125 8.59375 3.125H6.40625C6.28193 3.125 6.1627 3.07561 6.07479 2.98771C5.98689 2.8998 5.9375 2.78057 5.9375 2.65625C5.9375 2.53193 5.98689 2.4127 6.07479 2.32479C6.1627 2.23689 6.28193 2.1875 6.40625 2.1875Z" fill="#343434"/>
</svg>
