<svg width="15" height="15" viewBox="0 0 15 15" fill="none" xmlns="http://www.w3.org/2000/svg">
<g clip-path="url(#clip0_35_1796)">
<path d="M9.375 4.375H5.625M9.375 6.875H5.625M9.375 9.375H6.875M3.125 1.875H11.875V13.125L11.23 12.5725C11.0035 12.3783 10.7149 12.2716 10.4166 12.2716C10.1182 12.2716 9.82967 12.3783 9.60312 12.5725L8.95813 13.125L8.31375 12.5725C8.08716 12.3782 7.79851 12.2713 7.5 12.2713C7.20149 12.2713 6.91284 12.3782 6.68625 12.5725L6.04187 13.125L5.39688 12.5725C5.17033 12.3783 4.8818 12.2716 4.58344 12.2716C4.28507 12.2716 3.99655 12.3783 3.77 12.5725L3.125 13.125V1.875Z" stroke="#343434" stroke-linecap="round" stroke-linejoin="round"/>
</g>
<defs>
<clipPath id="clip0_35_1796">
<rect width="15" height="15" fill="white"/>
</clipPath>
</defs>
</svg>
