<svg width="15" height="15" viewBox="0 0 15 15" fill="none" xmlns="http://www.w3.org/2000/svg">
<g clip-path="url(#clip0_35_1839)">
<path fill-rule="evenodd" clip-rule="evenodd" d="M2.5 1.875C2.5 1.70924 2.56585 1.55027 2.68306 1.43306C2.80027 1.31585 2.95924 1.25 3.125 1.25H11.875C12.0408 1.25 12.1997 1.31585 12.3169 1.43306C12.4342 1.55027 12.5 1.70924 12.5 1.875V13.125C12.5 13.2445 12.4658 13.3615 12.4013 13.4621C12.3369 13.5627 12.245 13.6427 12.1365 13.6927C12.028 13.7427 11.9074 13.7605 11.789 13.7441C11.6707 13.7277 11.5595 13.6777 11.4688 13.6L10.8231 13.0469C10.7099 12.9499 10.5657 12.8966 10.4166 12.8966C10.2675 12.8966 10.1233 12.9499 10.01 13.0469L9.365 13.5994C9.25171 13.6965 9.10738 13.75 8.95813 13.75C8.80887 13.75 8.66455 13.6965 8.55125 13.5994L7.90688 13.0469C7.79358 12.9497 7.64925 12.8963 7.5 12.8963C7.35075 12.8963 7.20642 12.9497 7.09312 13.0469L6.44875 13.5994C6.33545 13.6965 6.19113 13.75 6.04187 13.75C5.89262 13.75 5.74829 13.6965 5.635 13.5994L4.99 13.0469C4.87675 12.9499 4.73255 12.8966 4.58344 12.8966C4.43433 12.8966 4.29013 12.9499 4.17688 13.0469L3.53188 13.5994C3.44113 13.6772 3.32998 13.7274 3.21159 13.7439C3.09321 13.7605 2.97255 13.7427 2.86394 13.6928C2.75533 13.6429 2.66331 13.5629 2.59881 13.4622C2.5343 13.3616 2.50001 13.2445 2.5 13.125V1.875ZM5.625 3.75C5.45924 3.75 5.30027 3.81585 5.18306 3.93306C5.06585 4.05027 5 4.20924 5 4.375C5 4.54076 5.06585 4.69973 5.18306 4.81694C5.30027 4.93415 5.45924 5 5.625 5H9.375C9.54076 5 9.69973 4.93415 9.81694 4.81694C9.93415 4.69973 10 4.54076 10 4.375C10 4.20924 9.93415 4.05027 9.81694 3.93306C9.69973 3.81585 9.54076 3.75 9.375 3.75H5.625ZM5.625 6.25C5.45924 6.25 5.30027 6.31585 5.18306 6.43306C5.06585 6.55027 5 6.70924 5 6.875C5 7.04076 5.06585 7.19973 5.18306 7.31694C5.30027 7.43415 5.45924 7.5 5.625 7.5H9.375C9.54076 7.5 9.69973 7.43415 9.81694 7.31694C9.93415 7.19973 10 7.04076 10 6.875C10 6.70924 9.93415 6.55027 9.81694 6.43306C9.69973 6.31585 9.54076 6.25 9.375 6.25H5.625ZM6.25 9.375C6.25 9.20924 6.31585 9.05027 6.43306 8.93306C6.55027 8.81585 6.70924 8.75 6.875 8.75H9.375C9.54076 8.75 9.69973 8.81585 9.81694 8.93306C9.93415 9.05027 10 9.20924 10 9.375C10 9.54076 9.93415 9.69973 9.81694 9.81694C9.69973 9.93415 9.54076 10 9.375 10H6.875C6.70924 10 6.55027 9.93415 6.43306 9.81694C6.31585 9.69973 6.25 9.54076 6.25 9.375Z" fill="#BA9775"/>
</g>
<defs>
<clipPath id="clip0_35_1839">
<rect width="15" height="15" fill="white"/>
</clipPath>
</defs>
</svg>
