<svg width="15" height="15" viewBox="0 0 15 15" fill="none" xmlns="http://www.w3.org/2000/svg">
<g clip-path="url(#clip0_35_1810)">
<path d="M9.84375 8.125C9.84375 8.00068 9.79436 7.88145 9.70646 7.79354C9.61855 7.70564 9.49932 7.65625 9.375 7.65625H5.625C5.50068 7.65625 5.38145 7.70564 5.29354 7.79354C5.20564 7.88145 5.15625 8.00068 5.15625 8.125C5.15625 8.24932 5.20564 8.36855 5.29354 8.45646C5.38145 8.54436 5.50068 8.59375 5.625 8.59375H9.375C9.49932 8.59375 9.61855 8.54436 9.70646 8.45646C9.79436 8.36855 9.84375 8.24932 9.84375 8.125ZM9.84375 10.625C9.84375 10.5007 9.79436 10.3815 9.70646 10.2935C9.61855 10.2056 9.49932 10.1563 9.375 10.1563H5.625C5.50068 10.1563 5.38145 10.2056 5.29354 10.2935C5.20564 10.3815 5.15625 10.5007 5.15625 10.625C5.15625 10.7493 5.20564 10.8685 5.29354 10.9565C5.38145 11.0444 5.50068 11.0938 5.625 11.0938H9.375C9.49932 11.0938 9.61855 11.0444 9.70646 10.9565C9.79436 10.8685 9.84375 10.7493 9.84375 10.625Z" fill="#343434"/>
<path fill-rule="evenodd" clip-rule="evenodd" d="M4.375 1.40625C3.91916 1.40625 3.48199 1.58733 3.15966 1.90966C2.83733 2.23199 2.65625 2.66916 2.65625 3.125V11.875C2.65625 12.3308 2.83733 12.768 3.15966 13.0903C3.48199 13.4127 3.91916 13.5938 4.375 13.5938H10.625C11.0808 13.5938 11.518 13.4127 11.8403 13.0903C12.1627 12.768 12.3437 12.3308 12.3437 11.875V4.98C12.3437 4.74187 12.2662 4.51063 12.1225 4.32063L10.2487 1.84062C10.1468 1.7057 10.0149 1.59625 9.86356 1.52088C9.71217 1.44551 9.54536 1.40627 9.37625 1.40625H4.375ZM3.59375 3.125C3.59375 2.69375 3.94375 2.34375 4.375 2.34375H8.90625V5.09188C8.90625 5.35063 9.11625 5.56063 9.375 5.56063H11.4062V11.875C11.4062 12.3062 11.0562 12.6562 10.625 12.6562H4.375C3.94375 12.6562 3.59375 12.3062 3.59375 11.875V3.125Z" fill="#343434"/>
</g>
<defs>
<clipPath id="clip0_35_1810">
<rect width="15" height="15" fill="white"/>
</clipPath>
</defs>
</svg>
