<svg width="15" height="15" viewBox="0 0 15 15" fill="none" xmlns="http://www.w3.org/2000/svg">
<g clip-path="url(#clip0_35_1825)">
<path fill-rule="evenodd" clip-rule="evenodd" d="M8.90625 1.5625C8.90625 1.52106 8.88979 1.48132 8.86049 1.45201C8.83118 1.42271 8.79144 1.40625 8.75 1.40625H4.375C3.91916 1.40625 3.48199 1.58733 3.15966 1.90966C2.83733 2.23199 2.65625 2.66916 2.65625 3.125V11.875C2.65625 12.3308 2.83733 12.768 3.15966 13.0903C3.48199 13.4127 3.91916 13.5938 4.375 13.5938H10.625C11.0808 13.5938 11.518 13.4127 11.8403 13.0903C12.1627 12.768 12.3438 12.3308 12.3438 11.875V5.71688C12.3438 5.67544 12.3273 5.63569 12.298 5.60639C12.2687 5.57709 12.2289 5.56063 12.1875 5.56063H9.375C9.25068 5.56063 9.13145 5.51124 9.04354 5.42333C8.95564 5.33542 8.90625 5.2162 8.90625 5.09188V1.5625ZM9.375 7.65625C9.49932 7.65625 9.61855 7.70564 9.70646 7.79354C9.79436 7.88145 9.84375 8.00068 9.84375 8.125C9.84375 8.24932 9.79436 8.36855 9.70646 8.45646C9.61855 8.54436 9.49932 8.59375 9.375 8.59375H5.625C5.50068 8.59375 5.38145 8.54436 5.29354 8.45646C5.20564 8.36855 5.15625 8.24932 5.15625 8.125C5.15625 8.00068 5.20564 7.88145 5.29354 7.79354C5.38145 7.70564 5.50068 7.65625 5.625 7.65625H9.375ZM9.375 10.1562C9.49932 10.1562 9.61855 10.2056 9.70646 10.2935C9.79436 10.3815 9.84375 10.5007 9.84375 10.625C9.84375 10.7493 9.79436 10.8685 9.70646 10.9565C9.61855 11.0444 9.49932 11.0938 9.375 11.0938H5.625C5.50068 11.0938 5.38145 11.0444 5.29354 10.9565C5.20564 10.8685 5.15625 10.7493 5.15625 10.625C5.15625 10.5007 5.20564 10.3815 5.29354 10.2935C5.38145 10.2056 5.50068 10.1562 5.625 10.1562H9.375Z" fill="#E11D07"/>
<path d="M9.84375 1.76497C9.84375 1.64997 9.96438 1.57685 10.0538 1.64872C10.1294 1.70997 10.1975 1.78122 10.2556 1.86247L12.1388 4.4856C12.1813 4.5456 12.135 4.6231 12.0613 4.6231H10C9.95856 4.6231 9.91882 4.60664 9.88951 4.57733C9.86021 4.54803 9.84375 4.50829 9.84375 4.46685V1.76497Z" fill="#E11D07"/>
</g>
<defs>
<clipPath id="clip0_35_1825">
<rect width="15" height="15" fill="white"/>
</clipPath>
</defs>
</svg>
