<svg width="15" height="15" viewBox="0 0 15 15" fill="none" xmlns="http://www.w3.org/2000/svg">
<g clip-path="url(#clip0_35_1792)">
<path fill-rule="evenodd" clip-rule="evenodd" d="M7.5 0.78125C7.12187 0.78125 6.77375 0.875 6.39312 1.0325C6.025 1.185 5.5975 1.40937 5.06562 1.68875L3.77312 2.36687C3.12 2.70937 2.59812 2.98375 2.19375 3.25312C1.77625 3.5325 1.45375 3.82625 1.21937 4.22437C0.985625 4.62125 0.880625 5.05125 0.83 5.56312C0.78125 6.06 0.78125 6.67062 0.78125 7.43937V7.56062C0.78125 8.32937 0.78125 8.94 0.83 9.43687C0.880625 9.94937 0.98625 10.3787 1.21937 10.7756C1.45375 11.1737 1.77562 11.4675 2.19437 11.7469C2.5975 12.0162 3.12 12.2906 3.77312 12.6331L5.06562 13.3112C5.5975 13.5906 6.025 13.815 6.39312 13.9675C6.77437 14.125 7.12187 14.2187 7.5 14.2187C7.87812 14.2187 8.22625 14.125 8.60687 13.9675C8.975 13.815 9.4025 13.5906 9.93437 13.3112L11.2269 12.6337C11.88 12.2906 12.4019 12.0162 12.8056 11.7469C13.2244 11.4675 13.5462 11.1737 13.7806 10.7756C14.0144 10.3787 14.1194 9.94875 14.17 9.43687C14.2187 8.94 14.2187 8.32937 14.2187 7.56125V7.43875C14.2187 6.67062 14.2187 6.06 14.17 5.56312C14.1194 5.05062 14.0137 4.62125 13.7806 4.22437C13.5462 3.82625 13.2244 3.5325 12.8056 3.25312C12.4025 2.98375 11.88 2.70937 11.2269 2.36687L9.93437 1.68875C9.4025 1.40937 8.975 1.185 8.60687 1.0325C8.22562 0.875 7.87812 0.78125 7.5 0.78125ZM5.48125 2.52875C6.0375 2.23687 6.4275 2.03312 6.75125 1.89937C7.06625 1.76875 7.28812 1.71875 7.5 1.71875C7.7125 1.71875 7.93375 1.76875 8.24875 1.89937C8.5725 2.03312 8.96187 2.23687 9.51812 2.52875L10.7681 3.185C11.4494 3.54187 11.9275 3.79375 12.2856 4.0325C12.4619 4.15062 12.6 4.26 12.7125 4.37L10.6306 5.41062L5.31812 2.61437L5.48125 2.52875ZM4.34062 3.1275L4.23187 3.185C3.55062 3.54187 3.0725 3.79375 2.715 4.0325C2.56246 4.13139 2.41954 4.24439 2.28812 4.37L7.5 6.97625L9.59812 5.92625L4.46937 3.2275C4.42094 3.20195 4.37736 3.16811 4.34062 3.1275ZM1.83625 5.19187C1.805 5.32562 1.78062 5.4775 1.76312 5.65437C1.71937 6.10062 1.71875 6.665 1.71875 7.46312V7.53625C1.71875 8.335 1.71875 8.89937 1.76312 9.345C1.80625 9.78062 1.88812 10.0625 2.0275 10.3C2.16625 10.5356 2.36687 10.735 2.715 10.9675C3.0725 11.2062 3.55062 11.4581 4.23187 11.815L5.48187 12.4712C6.03812 12.7631 6.4275 12.9669 6.75125 13.1006C6.85375 13.1431 6.94562 13.1769 7.03125 13.2037V7.78937L1.83625 5.19187ZM7.96875 13.2031C8.05437 13.1769 8.14625 13.1431 8.24875 13.1006C8.5725 12.9669 8.96187 12.7631 9.51812 12.4712L10.7681 11.815C11.4494 11.4575 11.9275 11.2062 12.2856 10.9675C12.6331 10.735 12.8337 10.5356 12.9731 10.3C13.1125 10.0625 13.1937 9.78125 13.2369 9.345C13.2806 8.89937 13.2812 8.335 13.2812 7.53687V7.46375C13.2812 6.665 13.2812 6.10062 13.2369 5.655C13.2228 5.49938 13.1984 5.34487 13.1637 5.1925L11.0937 6.22687V8.125C11.0937 8.24932 11.0444 8.36855 10.9565 8.45646C10.8685 8.54436 10.7493 8.59375 10.625 8.59375C10.5007 8.59375 10.3815 8.54436 10.2935 8.45646C10.2056 8.36855 10.1562 8.24932 10.1562 8.125V6.69625L7.96875 7.79V13.2031Z" fill="#343434"/>
</g>
<defs>
<clipPath id="clip0_35_1792">
<rect width="15" height="15" fill="white"/>
</clipPath>
</defs>
</svg>
