<svg width="15" height="15" viewBox="0 0 15 15" fill="none" xmlns="http://www.w3.org/2000/svg">
<g clip-path="url(#clip0_1060_2258)">
<path d="M7.50727 1.40625C7.96602 1.41125 8.42289 1.46438 8.87102 1.56438C8.96635 1.58566 9.05266 1.63619 9.11788 1.70891C9.18309 1.78164 9.22396 1.87292 9.23477 1.97L9.34102 2.92437C9.35602 3.05893 9.4024 3.18808 9.47642 3.30144C9.55044 3.4148 9.65003 3.50921 9.76719 3.57706C9.88435 3.64491 10.0158 3.68431 10.151 3.69209C10.2861 3.69988 10.4212 3.67583 10.5454 3.62188L11.4204 3.2375C11.5093 3.19834 11.6082 3.18778 11.7033 3.20726C11.7985 3.22674 11.8853 3.27531 11.9516 3.34625C12.5843 4.02188 13.0555 4.83221 13.3298 5.71625C13.3584 5.80921 13.3575 5.90879 13.327 6.00118C13.2966 6.09357 13.2381 6.17419 13.1598 6.23187L12.3841 6.80438C12.2749 6.88448 12.186 6.9892 12.1247 7.11006C12.0635 7.23092 12.0316 7.36451 12.0316 7.5C12.0316 7.63549 12.0635 7.76908 12.1247 7.88994C12.186 8.0108 12.2749 8.11552 12.3841 8.19562L13.161 8.7675C13.2395 8.82522 13.298 8.90595 13.3285 8.99847C13.3589 9.09099 13.3598 9.1907 13.331 9.28375C13.0568 10.1677 12.5859 10.978 11.9535 11.6537C11.8873 11.7247 11.8007 11.7733 11.7056 11.7929C11.6106 11.8125 11.5118 11.8021 11.4229 11.7631L10.5441 11.3775C10.4201 11.3231 10.2851 11.2987 10.1499 11.3062C10.0147 11.3138 9.88316 11.353 9.76596 11.4208C9.64875 11.4886 9.54915 11.583 9.47521 11.6965C9.40128 11.8099 9.3551 11.9391 9.34039 12.0738L9.23414 13.0275C9.22353 13.1234 9.18356 13.2138 9.11969 13.2862C9.05581 13.3585 8.97115 13.4094 8.87727 13.4319C7.97199 13.6473 7.0288 13.6473 6.12352 13.4319C6.02952 13.4095 5.94472 13.3587 5.88073 13.2863C5.81673 13.2139 5.77667 13.1235 5.76602 13.0275L5.66039 12.075C5.64505 11.9408 5.59846 11.8121 5.52435 11.6992C5.45025 11.5863 5.3507 11.4923 5.2337 11.4249C5.1167 11.3574 4.98551 11.3183 4.85067 11.3107C4.71583 11.3032 4.58109 11.3273 4.45727 11.3812L3.57852 11.7663C3.48955 11.8053 3.39064 11.8158 3.29547 11.7962C3.20029 11.7766 3.11356 11.7279 3.04727 11.6569C2.41481 10.9803 1.94404 10.1691 1.67039 9.28437C1.64158 9.19133 1.64247 9.09162 1.67293 8.9991C1.7034 8.90658 1.76193 8.82585 1.84039 8.76813L2.61727 8.19562C2.72655 8.11552 2.81542 8.0108 2.87667 7.88994C2.93793 7.76908 2.96985 7.63549 2.96985 7.5C2.96985 7.36451 2.93793 7.23092 2.87667 7.11006C2.81542 6.9892 2.72655 6.88448 2.61727 6.80438L1.84039 6.23312C1.76193 6.1754 1.7034 6.09467 1.67293 6.00215C1.64247 5.90964 1.64158 5.80992 1.67039 5.71688C1.94465 4.83283 2.41585 4.02251 3.04852 3.34687C3.11488 3.27593 3.20165 3.22737 3.29682 3.20788C3.39199 3.1884 3.49087 3.19897 3.57977 3.23813L4.45477 3.6225C4.57916 3.67642 4.71445 3.70041 4.8498 3.69255C4.98514 3.6847 5.11675 3.6452 5.23406 3.57725C5.35137 3.50929 5.45111 3.41477 5.52526 3.30128C5.59941 3.18778 5.64591 3.05848 5.66102 2.92375L5.76727 1.97C5.77799 1.87272 5.8189 1.78124 5.88424 1.70838C5.94959 1.63553 6.0361 1.58495 6.13164 1.56375C6.58352 1.46388 7.04452 1.4111 7.50727 1.40625ZM7.49977 5.625C7.00249 5.625 6.52557 5.82254 6.17394 6.17417C5.82231 6.52581 5.62477 7.00272 5.62477 7.5C5.62477 7.99728 5.82231 8.47419 6.17394 8.82583C6.52557 9.17746 7.00249 9.375 7.49977 9.375C7.99705 9.375 8.47396 9.17746 8.82559 8.82583C9.17722 8.47419 9.37477 7.99728 9.37477 7.5C9.37477 7.00272 9.17722 6.52581 8.82559 6.17417C8.47396 5.82254 7.99705 5.625 7.49977 5.625Z" fill="#E11D07"/>
</g>
<defs>
<clipPath id="clip0_1060_2258">
<rect width="15" height="15" fill="white"/>
</clipPath>
</defs>
</svg>
