<svg width="15" height="15" viewBox="0 0 15 15" fill="none" xmlns="http://www.w3.org/2000/svg">
<g clip-path="url(#clip0_35_1843)">
<path d="M10.9862 2.77L9.73625 2.11375C8.63875 1.53812 8.09 1.25 7.5 1.25C6.91 1.25 6.36125 1.5375 5.26375 2.11375L5.06312 2.21938L10.64 5.40625L13.15 4.15C12.7463 3.6925 12.095 3.35062 10.9862 2.76875M13.5925 4.9775L11.0938 6.2275V8.125C11.0938 8.24932 11.0444 8.36855 10.9565 8.45646C10.8685 8.54436 10.7493 8.59375 10.625 8.59375C10.5007 8.59375 10.3815 8.54436 10.2935 8.45646C10.2056 8.36855 10.1562 8.24932 10.1562 8.125V6.69625L7.96875 7.79V13.69C8.4175 13.5781 8.92813 13.3106 9.73625 12.8863L10.9862 12.23C12.3306 11.5244 13.0031 11.1719 13.3769 10.5375C13.75 9.90375 13.75 9.11438 13.75 7.5375V7.46437C13.75 6.28125 13.75 5.54125 13.5925 4.9775ZM7.03125 13.69V7.79L1.4075 4.9775C1.25 5.54125 1.25 6.28125 1.25 7.46312V7.53625C1.25 9.11437 1.25 9.90375 1.62312 10.5375C1.99687 11.1719 2.66937 11.525 4.01375 12.2306L5.26375 12.8863C6.07187 13.3106 6.5825 13.5781 7.03125 13.69ZM1.85 4.15062L7.5 6.97563L9.63188 5.91L4.07813 2.73625L4.01375 2.77C2.90562 3.35125 2.25375 3.69313 1.85 4.15125" fill="#BA9775"/>
</g>
<defs>
<clipPath id="clip0_35_1843">
<rect width="15" height="15" fill="white"/>
</clipPath>
</defs>
</svg>
