<svg width="15" height="15" viewBox="0 0 15 15" fill="none" xmlns="http://www.w3.org/2000/svg">
<g clip-path="url(#clip0_1060_285)">
<path d="M7.5 9.375C8.53553 9.375 9.375 8.53553 9.375 7.5C9.375 6.46447 8.53553 5.625 7.5 5.625C6.46447 5.625 5.625 6.46447 5.625 7.5C5.625 8.53553 6.46447 9.375 7.5 9.375Z" stroke="#202A31"/>
<path d="M8.60316 1.345C8.37379 1.25 8.08254 1.25 7.50004 1.25C6.91754 1.25 6.62629 1.25 6.39691 1.345C6.24515 1.40782 6.10726 1.49993 5.99111 1.61608C5.87497 1.73222 5.78286 1.87011 5.72004 2.02187C5.66254 2.16125 5.63941 2.32437 5.63066 2.56125C5.62677 2.73249 5.57941 2.89994 5.49304 3.04786C5.40668 3.19578 5.28413 3.31932 5.13691 3.40687C4.98747 3.49065 4.81919 3.53506 4.64787 3.53594C4.47655 3.53681 4.30782 3.49412 4.15754 3.41187C3.94754 3.30062 3.79566 3.23937 3.64504 3.21937C3.31649 3.17617 2.98422 3.26519 2.72129 3.46687C2.52504 3.61875 2.37879 3.87062 2.08754 4.375C1.79629 4.87937 1.65004 5.13125 1.61816 5.37812C1.59668 5.54091 1.60749 5.70633 1.64995 5.86493C1.69242 6.02354 1.76572 6.17223 1.86566 6.3025C1.95816 6.4225 2.08754 6.52312 2.28816 6.64937C2.58379 6.835 2.77379 7.15125 2.77379 7.5C2.77379 7.84875 2.58379 8.165 2.28816 8.35C2.08754 8.47687 1.95754 8.5775 1.86566 8.6975C1.76572 8.82777 1.69242 8.97646 1.64995 9.13506C1.60749 9.29367 1.59668 9.45909 1.61816 9.62187C1.65066 9.86812 1.79629 10.1206 2.08691 10.625C2.37879 11.1294 2.52441 11.3812 2.72129 11.5331C2.85156 11.6331 3.00025 11.7064 3.15885 11.7488C3.31746 11.7913 3.48288 11.8021 3.64566 11.7806C3.79566 11.7606 3.94754 11.6994 4.15754 11.5881C4.30782 11.5059 4.47655 11.4632 4.64787 11.4641C4.81919 11.4649 4.98747 11.5093 5.13691 11.5931C5.43879 11.7681 5.61816 12.09 5.63066 12.4387C5.63941 12.6762 5.66191 12.8387 5.72004 12.9781C5.78286 13.1299 5.87497 13.2678 5.99111 13.3839C6.10726 13.5001 6.24515 13.5922 6.39691 13.655C6.62629 13.75 6.91754 13.75 7.50004 13.75C8.08254 13.75 8.37379 13.75 8.60316 13.655C8.75492 13.5922 8.89282 13.5001 9.00896 13.3839C9.1251 13.2678 9.21721 13.1299 9.28004 12.9781C9.33754 12.8387 9.36066 12.6762 9.36941 12.4387C9.38191 12.09 9.56129 11.7675 9.86316 11.5931C10.0126 11.5093 10.1809 11.4649 10.3522 11.4641C10.5235 11.4632 10.6922 11.5059 10.8425 11.5881C11.0525 11.6994 11.2044 11.7606 11.3544 11.7806C11.5172 11.8021 11.6826 11.7913 11.8412 11.7488C11.9998 11.7064 12.1485 11.6331 12.2788 11.5331C12.4757 11.3819 12.6213 11.1294 12.9125 10.625C13.2038 10.1206 13.35 9.86875 13.3819 9.62187C13.4034 9.45909 13.3926 9.29367 13.3501 9.13506C13.3077 8.97646 13.2344 8.82777 13.1344 8.6975C13.0419 8.5775 12.9125 8.47687 12.7119 8.35062C12.5655 8.26163 12.4441 8.13687 12.3592 7.98808C12.2742 7.83928 12.2285 7.67132 12.2263 7.5C12.2263 7.15125 12.4163 6.835 12.7119 6.65C12.9125 6.52312 13.0425 6.4225 13.1344 6.3025C13.2344 6.17223 13.3077 6.02354 13.3501 5.86493C13.3926 5.70633 13.4034 5.54091 13.3819 5.37812C13.3494 5.13187 13.2038 4.87937 12.9132 4.375C12.6213 3.87062 12.4757 3.61875 12.2788 3.46687C12.1485 3.36693 11.9998 3.29363 11.8412 3.25117C11.6826 3.2087 11.5172 3.1979 11.3544 3.21937C11.2044 3.23937 11.0525 3.30062 10.8419 3.41187C10.6917 3.49401 10.5231 3.53664 10.3519 3.53576C10.1807 3.53489 10.0125 3.49054 9.86316 3.40687C9.71594 3.31932 9.5934 3.19578 9.50703 3.04786C9.42066 2.89994 9.37331 2.73249 9.36941 2.56125C9.36066 2.32375 9.33816 2.16125 9.28004 2.02187C9.21721 1.87011 9.1251 1.73222 9.00896 1.61608C8.89282 1.49993 8.75492 1.40782 8.60316 1.345Z" stroke="#202A31"/>
</g>
<defs>
<clipPath id="clip0_1060_285">
<rect width="15" height="15" fill="white"/>
</clipPath>
</defs>
</svg>
