<svg width="15" height="15" viewBox="0 0 15 15" fill="none" xmlns="http://www.w3.org/2000/svg">
<g clip-path="url(#clip0_35_1815)">
<path d="M9.25 6.875C9.25 6.84185 9.26317 6.81005 9.28661 6.78661C9.31005 6.76317 9.34185 6.75 9.375 6.75C9.40815 6.75 9.43995 6.76317 9.46339 6.78661C9.48683 6.81005 9.5 6.84185 9.5 6.875V8.125C9.5 8.15815 9.48683 8.18995 9.46339 8.21339C9.43995 8.23683 9.40815 8.25 9.375 8.25C9.34185 8.25 9.31005 8.23683 9.28661 8.21339C9.26317 8.18995 9.25 8.15815 9.25 8.125V6.875Z" stroke="#343434"/>
<path d="M8.75877 10.625L9.22752 10.6263V10.625H8.75877ZM8.75877 4.375H9.22752V4.37375L8.75877 4.375ZM9.22377 11.8781L9.22752 10.6263L8.29002 10.6237L8.28627 11.8756L9.22377 11.8781ZM9.38502 10.4687C9.47315 10.4687 9.54315 10.54 9.54315 10.625H10.4806C10.4806 10.02 9.98877 9.53125 9.38502 9.53125V10.4687ZM9.38502 9.53125C8.78127 9.53125 8.29002 10.02 8.29002 10.625H9.22752C9.22752 10.54 9.2969 10.4687 9.38502 10.4687V9.53125ZM6.2469 2.96875H8.44065V2.03125H6.2469V2.96875ZM8.13002 12.0313H6.2469V12.9688H8.13002V12.0313ZM6.2469 12.0313C5.05252 12.0313 4.20315 12.03 3.5594 11.9438C2.92815 11.8594 2.56502 11.7006 2.2994 11.4356L1.63752 12.1C2.10627 12.5675 2.70127 12.775 3.43502 12.8737C4.15627 12.9706 5.07877 12.9694 6.24752 12.9694L6.2469 12.0313ZM6.2469 2.03125C5.07815 2.03125 4.15565 2.03 3.4344 2.12688C2.70065 2.22563 2.10627 2.43313 1.63752 2.90063L2.30002 3.56438C2.56502 3.29938 2.92877 3.14063 3.5594 3.05625C4.20315 2.97 5.05252 2.96875 6.2469 2.96875V2.03125ZM1.6169 6.81813C1.85815 6.9525 2.01877 7.20813 2.01877 7.5H2.95627C2.95629 7.19406 2.87462 6.89367 2.71969 6.62986C2.56477 6.36605 2.34221 6.14839 2.07502 5.99938L1.6169 6.81813ZM1.72502 5.6375C1.77377 4.4775 1.9319 3.93063 2.30002 3.56438L1.63752 2.90063C0.993772 3.54313 0.837522 4.425 0.787522 5.59875L1.72502 5.6375ZM2.01877 7.5C2.01877 7.79188 1.85815 8.0475 1.6169 8.1825L2.0744 9.00125C2.3418 8.85226 2.56454 8.63454 2.71958 8.3706C2.87462 8.10667 2.95634 7.8061 2.95627 7.5H2.01877ZM0.788147 9.40125C0.838147 10.5737 0.994397 11.4575 1.63752 12.0994L2.30002 11.4356C1.9319 11.0694 1.77377 10.5219 1.72502 9.36187L0.788147 9.40125ZM12.9813 7.5C12.9813 7.20813 13.1419 6.9525 13.3831 6.81813L12.9256 5.99938C12.6583 6.14831 12.4357 6.36594 12.2806 6.62975C12.1256 6.89357 12.0438 7.194 12.0438 7.5H12.9813ZM14.2119 5.59875C14.1619 4.42625 14.0056 3.5425 13.3625 2.90063L12.7 3.56438C13.0675 3.93063 13.2263 4.47813 13.275 5.63813L14.2119 5.59875ZM13.3831 8.1825C13.2614 8.11493 13.1599 8.01601 13.0892 7.896C13.0186 7.77599 12.9813 7.63927 12.9813 7.5H12.0438C12.0438 8.14625 12.4006 8.7075 12.9256 9.00062L13.3831 8.1825ZM13.275 9.36187C13.2263 10.5219 13.0681 11.0694 12.7 11.4356L13.3625 12.0994C14.0063 11.4575 14.1625 10.5744 14.2119 9.40125L13.275 9.36187ZM12.9256 9.00062C13.1031 9.1 13.2194 9.165 13.2975 9.21437C13.3363 9.23875 13.3538 9.25187 13.3588 9.25562C13.3675 9.26312 13.3356 9.24063 13.3056 9.18688L14.1244 8.72875C14.0809 8.65391 14.0239 8.5878 13.9563 8.53375C13.9058 8.4929 13.8528 8.45532 13.7975 8.42125C13.6931 8.355 13.55 8.27562 13.3831 8.18187L12.9256 9.00062ZM14.2119 9.40125C14.2163 9.29437 14.2213 9.18375 14.2175 9.09125C14.2154 8.9647 14.1833 8.84047 14.1238 8.72875L13.3056 9.18625C13.2744 9.13 13.2788 9.09125 13.2806 9.1325C13.2813 9.15 13.2819 9.17625 13.2806 9.21625L13.275 9.36187L14.2119 9.40125ZM13.3831 6.81813C13.55 6.72438 13.6931 6.645 13.7975 6.57875C13.8527 6.54452 13.9057 6.50695 13.9563 6.46625C14.0237 6.41215 14.0805 6.34603 14.1238 6.27125L13.3056 5.81375C13.3356 5.75938 13.3675 5.73688 13.3581 5.74438C13.3387 5.75925 13.3185 5.77302 13.2975 5.78563C13.2194 5.83563 13.1038 5.9 12.9256 5.99938L13.3831 6.81813ZM13.275 5.63813L13.2806 5.78313C13.2819 5.82313 13.2813 5.84938 13.2806 5.86688C13.2788 5.90813 13.2744 5.86938 13.3056 5.81313L14.1244 6.27063C14.1834 6.15877 14.2153 6.03459 14.2175 5.90813C14.2197 5.80475 14.2176 5.70133 14.2113 5.59813L13.275 5.63813ZM1.6169 8.18187C1.45002 8.27562 1.3069 8.35437 1.20252 8.42062C1.14726 8.45471 1.09424 8.49228 1.04377 8.53312C0.97638 8.58723 0.919589 8.65397 0.876272 8.72875L1.6944 9.18562C1.6644 9.24 1.63252 9.2625 1.64127 9.255C1.6469 9.25062 1.66377 9.23812 1.70252 9.21375C1.78065 9.16375 1.89627 9.09937 2.0744 9L1.6169 8.18187ZM1.72502 9.36125C1.72277 9.31272 1.7209 9.26418 1.7194 9.21562C1.71848 9.18772 1.71848 9.15978 1.7194 9.13187C1.72127 9.09062 1.72565 9.12937 1.6944 9.18562L0.875647 8.72813C0.816379 8.8399 0.784464 8.96413 0.782522 9.09062C0.778772 9.18312 0.783772 9.29375 0.788772 9.40063L1.72502 9.36125ZM2.0744 5.99875C1.8969 5.89938 1.78065 5.83438 1.70252 5.785C1.68136 5.77239 1.66091 5.75862 1.64127 5.74375C1.63252 5.73625 1.6644 5.75875 1.6944 5.8125L0.875647 6.27063C0.928147 6.36313 0.997522 6.42688 1.04377 6.46563C1.09377 6.50688 1.1494 6.54438 1.20252 6.57813C1.3069 6.64438 1.45002 6.72375 1.6169 6.8175L2.0744 5.99875ZM0.787522 5.59875C0.783147 5.70563 0.778147 5.81625 0.781897 5.90875C0.786272 6.0025 0.800647 6.13813 0.875647 6.27125L1.6944 5.81375C1.72565 5.87 1.72065 5.90875 1.71877 5.8675C1.71785 5.83959 1.71785 5.81166 1.71877 5.78375L1.7244 5.63813L0.787522 5.59875ZM9.2269 4.37375L9.2219 2.81L8.28502 2.81313L8.2894 4.37625L9.2269 4.37375ZM9.3844 4.53125C9.3638 4.53133 9.34338 4.52736 9.32432 4.51955C9.30525 4.51174 9.28791 4.50025 9.27329 4.48575C9.25866 4.47124 9.24704 4.45399 9.23908 4.43499C9.23112 4.41599 9.22698 4.3956 9.2269 4.375H8.2894C8.2894 4.98 8.78065 5.46875 9.3844 5.46875V4.53125ZM9.54377 4.375C9.54377 4.46 9.47377 4.53125 9.38565 4.53125V5.46875C9.9894 5.46875 10.4813 4.98 10.4813 4.375H9.54377ZM9.54377 2.8225V4.375H10.4813V2.8225H9.54377ZM10.3188 2.98063C11.6863 3.01563 12.2994 3.16313 12.7013 3.56438L13.3638 2.90063C12.6681 2.20688 11.6844 2.07813 10.3425 2.04313L10.3188 2.98063ZM10.4813 2.8225C10.4813 2.91 10.4088 2.9825 10.3188 2.98063L10.3425 2.04313C10.2386 2.04054 10.1351 2.05879 10.0383 2.0968C9.94151 2.13481 9.85329 2.1918 9.77885 2.26443C9.70442 2.33707 9.64527 2.42386 9.6049 2.5197C9.56452 2.61555 9.54374 2.7185 9.54377 2.8225H10.4813ZM8.44065 2.96875C8.39932 2.96859 8.36036 2.95205 8.33119 2.92277C8.30202 2.89348 8.28565 2.85383 8.28565 2.8125L9.22315 2.81C9.22249 2.60323 9.13988 2.40516 8.99344 2.25919C8.847 2.11322 8.64867 2.03125 8.4419 2.03125L8.44065 2.96875ZM10.6656 12.9463C11.8375 12.8963 12.7213 12.74 13.3631 12.0994L12.7 11.4356C12.3338 11.8019 11.7856 11.9606 10.6269 12.0094L10.6656 12.9463ZM9.54377 10.625V11.8606H10.4813V10.625H9.54377ZM8.2869 11.875C8.2869 11.9506 8.2869 12.0087 8.28502 12.0581C8.28377 12.1081 8.28127 12.1369 8.27877 12.155C8.27627 12.1725 8.27565 12.1669 8.28252 12.1488C8.29419 12.1218 8.31096 12.0974 8.3319 12.0769L8.99377 12.7406C9.11423 12.6161 9.18948 12.4548 9.20752 12.2825C9.2244 12.1594 9.22315 12.0119 9.22377 11.8781L8.2869 11.875ZM8.13002 12.9688C8.26377 12.9688 8.4119 12.97 8.53502 12.9531C8.6719 12.9344 8.84627 12.8875 8.99377 12.7406L8.33127 12.0769C8.35226 12.056 8.37709 12.0395 8.4044 12.0281C8.4219 12.0206 8.42815 12.0219 8.41065 12.0238C8.37828 12.0275 8.34573 12.0296 8.31315 12.03C8.26315 12.0312 8.20502 12.0313 8.13002 12.0313V12.9688ZM10.6269 12.0094C10.5519 12.0125 10.4938 12.015 10.4444 12.0156C10.395 12.0162 10.3663 12.0156 10.3494 12.0137C10.3325 12.0119 10.34 12.0106 10.3588 12.0181C10.3819 12.0269 10.4088 12.0431 10.4331 12.0656L9.7844 12.7425C9.9369 12.8888 10.115 12.9325 10.2575 12.9463C10.3838 12.9588 10.5319 12.9519 10.6656 12.9463L10.6269 12.0094ZM9.54377 11.8606C9.54377 11.9969 9.54252 12.1481 9.56002 12.275C9.5794 12.4162 9.63002 12.5944 9.7844 12.7425L10.4331 12.0656C10.4581 12.0894 10.4744 12.1163 10.4844 12.1388C10.4919 12.1575 10.4906 12.1638 10.4888 12.1463C10.485 12.1133 10.4829 12.0801 10.4825 12.0469C10.4813 11.9969 10.4813 11.9375 10.4813 11.8606H9.54377Z" fill="#343434"/>
</g>
<defs>
<clipPath id="clip0_35_1815">
<rect width="15" height="15" fill="white"/>
</clipPath>
</defs>
</svg>
