<svg width="15" height="15" viewBox="0 0 15 15" fill="none" xmlns="http://www.w3.org/2000/svg">
<g clip-path="url(#clip0_35_1821)">
<path fill-rule="evenodd" clip-rule="evenodd" d="M8.75498 11.8769L8.75873 10.625C8.75873 10.4588 8.82474 10.2995 8.94224 10.182C9.05974 10.0645 9.21911 9.99844 9.38529 9.99844C9.55146 9.99844 9.71083 10.0645 9.82833 10.182C9.94584 10.2995 10.0118 10.4588 10.0118 10.625V11.8606C10.0118 12.1612 10.0119 12.3119 10.1081 12.4044C10.205 12.4963 10.3519 12.49 10.6475 12.4775C11.8119 12.4281 12.5275 12.2712 13.0312 11.7675C13.5375 11.2637 13.6944 10.5481 13.7437 9.38187C13.7531 9.15062 13.7581 9.03437 13.715 8.9575C13.6712 8.88062 13.4994 8.78438 13.1544 8.59125C12.96 8.48291 12.7981 8.32464 12.6854 8.13279C12.5728 7.94095 12.5133 7.72249 12.5133 7.5C12.5133 7.27751 12.5728 7.05905 12.6854 6.86721C12.7981 6.67536 12.96 6.51709 13.1544 6.40875C13.4994 6.21625 13.6719 6.11938 13.715 6.0425C13.7581 5.96563 13.7531 5.85 13.7431 5.61813C13.6944 4.45188 13.5369 3.73687 13.0312 3.2325C12.4831 2.685 11.6844 2.54688 10.33 2.51188C10.2885 2.51079 10.2472 2.51802 10.2086 2.53315C10.17 2.54827 10.1348 2.57098 10.1051 2.59993C10.0753 2.62888 10.0517 2.6635 10.0356 2.70172C10.0195 2.73995 10.0112 2.78102 10.0112 2.8225V4.375C10.0112 4.54117 9.94521 4.70054 9.82771 4.81805C9.71021 4.93555 9.55084 5.00156 9.38466 5.00156C9.21849 5.00156 9.05912 4.93555 8.94162 4.81805C8.82411 4.70054 8.7581 4.54117 8.7581 4.375L8.75373 2.81188C8.75356 2.7291 8.72056 2.64978 8.66198 2.59131C8.60339 2.53284 8.524 2.5 8.44123 2.5H6.24623C3.88373 2.5 2.70248 2.5 1.9681 3.2325C1.46185 3.73625 1.30498 4.45188 1.2556 5.61813C1.24623 5.84938 1.24123 5.96563 1.28435 6.0425C1.3281 6.11938 1.49998 6.21625 1.84498 6.40875C2.03931 6.51709 2.20119 6.67536 2.31388 6.86721C2.42657 7.05905 2.48598 7.27751 2.48598 7.5C2.48598 7.72249 2.42657 7.94095 2.31388 8.13279C2.20119 8.32464 2.03931 8.48291 1.84498 8.59125C1.49998 8.78438 1.32748 8.88062 1.28435 8.9575C1.24123 9.03437 1.24623 9.15 1.25623 9.38125C1.30498 10.5481 1.46248 11.2637 1.9681 11.7675C2.70248 12.5 3.88373 12.5 6.24685 12.5H8.1281C8.4231 12.5 8.56998 12.5 8.66185 12.4088C8.75373 12.3175 8.75435 12.1713 8.75498 11.8769ZM10.0112 8.125V6.875C10.0112 6.70883 9.94521 6.54946 9.82771 6.43195C9.71021 6.31445 9.55084 6.24844 9.38466 6.24844C9.21849 6.24844 9.05912 6.31445 8.94162 6.43195C8.82411 6.54946 8.7581 6.70883 8.7581 6.875V8.125C8.7581 8.29126 8.82415 8.45071 8.94171 8.56827C9.05927 8.68583 9.21872 8.75188 9.38498 8.75188C9.55123 8.75188 9.71068 8.68583 9.82824 8.56827C9.94581 8.45071 10.0112 8.29126 10.0112 8.125Z" fill="#E11D07"/>
</g>
<defs>
<clipPath id="clip0_35_1821">
<rect width="15" height="15" fill="white"/>
</clipPath>
</defs>
</svg>
