<svg width="15" height="15" viewBox="0 0 15 15" fill="none" xmlns="http://www.w3.org/2000/svg">
<path d="M14.0625 10.7813H13.5938V3.39259L14.1604 3.27071C14.2218 3.25918 14.2804 3.23545 14.3326 3.20093C14.3848 3.16641 14.4295 3.12179 14.4642 3.0697C14.4988 3.01761 14.5227 2.95911 14.5344 2.89765C14.5461 2.83618 14.5454 2.773 14.5323 2.71182C14.5192 2.65064 14.494 2.5927 14.4581 2.54142C14.4223 2.49014 14.3765 2.44656 14.3236 2.41324C14.2706 2.37992 14.2115 2.35754 14.1498 2.34742C14.088 2.3373 14.0249 2.33964 13.9641 2.35431L0.839062 5.16681C0.725991 5.19121 0.625934 5.25655 0.558137 5.35028C0.490341 5.444 0.459593 5.55949 0.471809 5.67451C0.484024 5.78954 0.538339 5.89599 0.624308 5.97338C0.710276 6.05078 0.821826 6.09365 0.9375 6.09376C0.970785 6.0937 1.00397 6.09017 1.03652 6.08322L1.40625 6.00411V10.7813H0.9375C0.81318 10.7813 0.693951 10.8306 0.606044 10.9186C0.518136 11.0065 0.46875 11.1257 0.46875 11.25C0.46875 11.3743 0.518136 11.4936 0.606044 11.5815C0.693951 11.6694 0.81318 11.7188 0.9375 11.7188H14.0625C14.1868 11.7188 14.306 11.6694 14.394 11.5815C14.4819 11.4936 14.5312 11.3743 14.5312 11.25C14.5312 11.1257 14.4819 11.0065 14.394 10.9186C14.306 10.8306 14.1868 10.7813 14.0625 10.7813ZM2.34375 5.80079L12.6562 3.59357V10.7813H11.25V7.50001C11.25 7.37569 11.2006 7.25646 11.1127 7.16856C11.0248 7.08065 10.9056 7.03126 10.7812 7.03126H4.21875C4.09443 7.03126 3.9752 7.08065 3.88729 7.16856C3.79939 7.25646 3.75 7.37569 3.75 7.50001V10.7813H2.34375V5.80079ZM10.3125 8.90626H4.6875V7.96876H10.3125V8.90626ZM4.6875 9.84376H10.3125V10.7813H4.6875V9.84376Z" fill="#343434"/>
</svg>
