<svg width="16" height="17" viewBox="0 0 16 17" fill="none" xmlns="http://www.w3.org/2000/svg">
<g clip-path="url(#clip0_644_79)">
<path d="M3.11155 3.16672H10.2227V7.52228H11.1115V3.16672C11.1115 2.93097 11.0179 2.70488 10.8512 2.53818C10.6845 2.37148 10.4584 2.27783 10.2227 2.27783H3.11155C2.8758 2.27783 2.6497 2.37148 2.48301 2.53818C2.31631 2.70488 2.22266 2.93097 2.22266 3.16672V13.8334C2.22266 14.0691 2.31631 14.2952 2.48301 14.4619C2.6497 14.6286 2.8758 14.7223 3.11155 14.7223H10.2227C10.4584 14.7223 10.6845 14.6286 10.8512 14.4619C11.0179 14.2952 11.1115 14.0691 11.1115 13.8334H3.11155V3.16672Z" fill="#202A31"/>
<path d="M12.5153 8.18011C12.4303 8.1073 12.3209 8.06925 12.209 8.07357C12.0972 8.07789 11.9911 8.12426 11.9119 8.20342C11.8328 8.28257 11.7864 8.38868 11.7821 8.50053C11.7778 8.61239 11.8158 8.72176 11.8886 8.80678L13.3908 10.2779H6.9464C6.82852 10.2779 6.71548 10.3247 6.63213 10.4081C6.54878 10.4914 6.50195 10.6045 6.50195 10.7223C6.50195 10.8402 6.54878 10.9533 6.63213 11.0366C6.71548 11.12 6.82852 11.1668 6.9464 11.1668H13.3908L11.8886 12.7046C11.8421 12.7444 11.8043 12.7934 11.7776 12.8486C11.751 12.9037 11.736 12.9638 11.7336 13.025C11.7312 13.0862 11.7415 13.1472 11.7639 13.2043C11.7862 13.2613 11.8201 13.3131 11.8634 13.3564C11.9068 13.3997 11.9586 13.4336 12.0156 13.456C12.0726 13.4783 12.1337 13.4886 12.1949 13.4862C12.2561 13.4839 12.3161 13.4689 12.3713 13.4422C12.4264 13.4155 12.4754 13.3777 12.5153 13.3312L15.1108 10.7534L12.5153 8.18011Z" fill="#202A31"/>
</g>
<defs>
<clipPath id="clip0_644_79">
<rect width="16" height="16" fill="white" transform="translate(0 0.5)"/>
</clipPath>
</defs>
</svg>
