<svg width="324" height="188" viewBox="0 0 324 188" fill="none" xmlns="http://www.w3.org/2000/svg">
<path d="M164.452 105.976C164.452 106.123 163.758 106.59 162.223 107.204C159.966 108.076 157.635 108.745 155.258 109.205C153.711 109.512 151.976 109.779 150.055 109.966C147.966 110.164 145.867 110.231 143.77 110.166C141.348 110.097 138.935 109.842 136.552 109.405C133.855 108.916 131.211 108.174 128.653 107.19C125.841 106.083 123.156 104.673 120.647 102.988C117.923 101.132 115.42 98.9698 113.189 96.5432C112.016 95.2716 110.916 93.9352 109.893 92.5405C108.821 91.101 107.828 89.6045 106.918 88.0574C105.988 86.484 105.142 84.8629 104.382 83.2008C104.182 82.7872 103.982 82.3735 103.795 81.9332L103.248 80.599C103.062 80.172 102.901 79.7317 102.728 79.2648L102.461 78.611L102.221 77.9438C100.892 74.3183 99.8177 70.6046 99.0053 66.8296C98.6051 64.9706 98.2848 63.027 98.0447 60.999C97.7911 58.9843 97.6444 56.9962 97.591 54.8481C97.4772 50.5783 97.9258 46.3122 98.9253 42.1594C100.524 35.6425 103.736 29.6321 108.265 24.6809C109.748 23.06 111.353 21.5566 113.069 20.1845C114.761 18.8353 116.544 17.6048 118.406 16.5019C120.208 15.4156 122.075 14.4398 123.996 13.58C125.876 12.7346 127.801 11.9908 129.76 11.3518C131.671 10.7192 133.613 10.1848 135.578 9.75067C137.526 9.32372 139.474 8.99016 141.409 8.74999L142.85 8.58988L144.184 8.44312L146.933 8.16292C154.204 7.38906 161.116 6.6152 167.587 5.85468L185.587 3.71989C196.594 2.38565 205.507 1.3316 211.685 0.691162C217.863 0.050725 221.292 -0.176096 221.345 0.144122C221.399 0.46434 218.05 1.31826 212.005 2.53242C205.961 3.74658 196.995 5.33433 186.027 7.06885C180.543 7.94945 174.539 8.87007 168.068 9.80404C161.596 10.738 154.685 11.6586 147.413 12.5392L144.651 12.8728L143.317 13.0329L141.982 13.2064C140.194 13.4599 138.393 13.7934 136.645 14.207C134.842 14.6341 133.06 15.1507 131.308 15.7548C129.492 16.3551 127.711 17.0544 125.971 17.8495C124.224 18.6358 122.527 19.5269 120.887 20.518C119.228 21.5227 117.641 22.6417 116.137 23.867C114.616 25.0927 113.189 26.4307 111.868 27.8697C110.545 29.3284 109.34 30.89 108.265 32.5396C106.151 35.8232 104.583 39.428 103.622 43.2135C102.704 46.9582 102.278 50.8065 102.354 54.6613C102.378 56.5612 102.503 58.4585 102.728 60.3452C102.941 62.2131 103.235 64.0677 103.595 65.8956C103.956 67.7235 104.396 69.5114 104.93 71.2326C105.463 72.9538 105.93 74.7283 106.531 76.3961L106.757 77.0232L106.984 77.6503C107.144 78.0639 107.291 78.4775 107.451 78.8778L107.945 80.092C108.105 80.4923 108.292 80.8792 108.465 81.2795C109.159 82.8539 109.92 84.3749 110.734 85.8292C111.548 87.2836 112.415 88.6845 113.402 90.0054C114.39 91.3263 115.31 92.5805 116.324 93.7546C120.036 98.1631 124.686 101.687 129.934 104.068C132.266 105.077 134.687 105.868 137.166 106.43C139.387 106.951 141.643 107.308 143.917 107.497C145.914 107.668 147.918 107.731 149.921 107.684C151.763 107.684 153.457 107.524 154.978 107.364C158.007 107.044 160.315 106.59 161.943 106.283C163.571 105.976 164.398 105.816 164.452 105.976Z" fill="#D8D8D8"/>
<path d="M174.095 100.879C174.002 100.746 174.308 100.332 175.002 99.6917C175.349 99.3715 175.776 98.9846 176.337 98.5443C176.603 98.3308 176.884 98.0906 177.204 97.8505C177.524 97.6103 177.844 97.3568 178.205 97.0899C179.659 96.0626 181.42 94.795 183.542 93.4741L185.196 92.4334C185.77 92.0865 186.357 91.7129 186.971 91.3527C188.198 90.6189 189.493 89.8583 190.867 89.0711C191.547 88.6709 192.201 88.2839 192.988 87.8837L195.203 86.6562L197.525 85.3886L199.94 84.0544C201.581 83.1871 203.289 82.2932 205.05 81.3859C206.811 80.4786 208.653 79.638 210.521 78.7041C214.275 76.8361 218.206 74.9326 222.316 72.9935C226.425 71.0322 230.695 69.0575 235.071 67.0561L238.701 65.415L242.143 63.8539L237.833 52.0192C236.432 48.1899 235.098 44.5074 233.831 41.0117C231.336 34.0203 229.161 27.6693 227.439 22.4524C225.718 17.2355 224.437 12.8858 223.677 9.88379C222.916 6.88174 222.649 5.2006 222.943 5.1072C223.543 4.90706 226.159 11.1647 229.868 21.6518C231.722 26.8954 233.871 33.193 236.152 40.2512C237.3 43.7869 238.501 47.5095 239.741 51.3921L241.636 57.3562L243.891 64.5744L235.885 68.6572L223.397 75.0749C219.394 77.1563 215.498 79.1844 211.802 81.119L206.465 83.9476C204.703 84.8549 203.022 85.7622 201.381 86.6161L198.979 87.9504L196.658 89.1912L194.429 90.3787L192.308 91.5128L188.305 93.6476C187.678 93.9678 187.077 94.3147 186.49 94.6349L184.769 95.5155C182.554 96.6897 180.766 97.7704 179.139 98.5843C178.752 98.7978 178.378 98.9712 178.044 99.1713L177.084 99.6917C176.483 100.012 175.963 100.279 175.536 100.466C174.709 100.866 174.202 101.013 174.095 100.879Z" fill ="#BA9775"/>
<path d="M78.0318 107.634C77.9384 107.768 77.5781 107.634 77.0044 107.421C76.1695 106.966 75.4164 106.376 74.7761 105.673C74.296 105.184 73.8502 104.662 73.4419 104.112C72.959 103.467 72.5135 102.794 72.1076 102.097C71.1939 100.437 70.3655 98.7317 69.6258 96.9872C68.7986 95.0926 67.9046 92.9845 66.9573 90.783C66.4903 89.6489 66.0099 88.4614 65.5563 87.2206C65.1026 85.9797 64.689 84.6588 64.2887 83.3379C63.5015 80.6694 62.7943 77.8809 62.0738 75.0122L61.0731 70.7026C60.7129 69.2216 60.3126 67.7006 60.019 66.0194C59.691 64.2966 59.5789 62.5397 59.6855 60.7892C59.8255 58.9534 60.3482 57.1673 61.2199 55.5456C61.6772 54.7149 62.2475 53.9515 62.9144 53.2774C63.5855 52.6105 64.3495 52.0443 65.1827 51.5963C65.9678 51.1764 66.8012 50.8538 67.6644 50.6356C68.4597 50.4339 69.2733 50.3132 70.0928 50.2754C71.5936 50.1872 73.0995 50.2858 74.576 50.5689C75.9103 50.8224 77.2446 51.1693 78.3653 51.4895C79.4861 51.8097 80.6203 52.1033 81.6477 52.3301C82.5999 52.5494 83.5681 52.6922 84.5431 52.757C86.2674 52.8393 87.9956 52.7229 89.6934 52.4101C91.2411 52.1433 92.5887 51.8231 93.6962 51.5696C95.9244 51.0359 97.2187 50.8357 97.3388 51.1426C97.4589 51.4495 96.4181 52.2367 94.3367 53.3174C93.0455 53.9755 91.7076 54.5374 90.3338 54.9986C87.3468 56.081 84.14 56.4154 80.9939 55.9726C79.8064 55.8125 78.6055 55.5856 77.4314 55.3455C76.2572 55.1053 75.0563 54.8785 73.8822 54.7317C72.7386 54.5986 71.5834 54.5986 70.4397 54.7317C69.8841 54.7882 69.3347 54.8954 68.7986 55.0519C68.2989 55.1962 67.8193 55.4023 67.3709 55.6657C66.9367 55.9077 66.5446 56.2186 66.2101 56.5863C65.8534 56.9888 65.5527 57.4376 65.3161 57.9206C64.7901 58.9735 64.4816 60.1215 64.4088 61.2962C64.349 62.6373 64.4475 63.9809 64.7023 65.2989C64.9559 66.7132 65.3295 68.1942 65.6764 69.6886L66.7038 74.0916C67.3709 76.9869 67.9713 79.7621 68.6118 82.3372C68.932 83.6715 69.2656 84.8723 69.6258 86.0731C69.9861 87.2739 70.3597 88.4347 70.7466 89.5688C71.5072 91.837 72.2277 93.9985 72.8548 95.9599C73.4819 97.9212 74.0156 99.6424 74.576 101.11C74.8606 101.839 75.1408 102.507 75.4166 103.111C75.7101 103.712 75.977 104.246 76.2572 104.726C77.3646 106.434 78.2719 107.341 78.0318 107.634Z" fill ="#BA9775"/>
<path d="M83.3602 113.103C83.3602 112.929 83.5603 112.809 83.8272 112.689L84.2942 112.543L84.8946 112.396L85.6284 112.236C85.8953 112.169 86.1755 112.116 86.469 112.022C87.0561 111.875 87.7232 111.662 88.4304 111.408C90.0687 110.782 91.6131 109.934 93.0203 108.887C94.7849 107.538 96.3997 106.004 97.8371 104.31C98.6376 103.403 99.4115 102.469 100.145 101.548C100.879 100.628 101.626 99.6804 102.467 98.7731C103.298 97.8394 104.26 97.0306 105.322 96.3715C106.218 95.816 107.222 95.4594 108.267 95.3259C109.312 95.1924 110.374 95.285 111.38 95.5977C111.99 95.7777 112.576 96.0285 113.128 96.3448C114.009 96.8518 114.462 97.3055 114.329 97.6791C114.195 98.0527 113.635 98.1461 112.688 98.1994C112.207 98.1994 111.647 98.1994 111.046 98.3062C110.424 98.3474 109.81 98.4684 109.218 98.6664C108.926 98.7771 108.644 98.9156 108.378 99.08C108.076 99.2535 107.794 99.4593 107.537 99.6938C106.892 100.29 106.311 100.952 105.803 101.668C105.202 102.469 104.589 103.43 103.841 104.457C103.094 105.484 102.294 106.498 101.4 107.526C99.6745 109.525 97.638 111.232 95.3687 112.583C93.4602 113.74 91.3268 114.477 89.1109 114.744C88.2599 114.844 87.4001 114.844 86.5491 114.744C86.1992 114.699 85.8519 114.637 85.5083 114.557L84.6944 114.264L84.054 113.957C83.8931 113.871 83.745 113.763 83.6137 113.637C83.3602 113.41 83.2668 113.263 83.3602 113.103Z" fill ="#BA9775"/>
<path d="M160.913 99.9772C160.913 100.097 160.299 100.377 159.045 100.791C157.193 101.368 155.302 101.813 153.388 102.125C150.335 102.607 147.241 102.773 144.154 102.619C140.031 102.403 135.973 101.501 132.146 99.9505C129.931 99.025 127.816 97.876 125.835 96.5215C123.693 95.0576 121.712 93.3715 119.924 91.4914C118.012 89.4866 116.305 87.2966 114.827 84.9536C113.269 82.4728 111.93 79.8612 110.824 77.1482C108.496 71.3162 107.143 65.1405 106.821 58.8691C106.821 58.4555 106.821 58.0552 106.821 57.6416C106.821 57.228 106.821 56.8277 106.821 56.4141C106.821 55.5869 106.821 54.773 106.821 53.9324C106.821 53.0918 106.915 52.2779 106.968 51.4507C106.968 51.0371 107.061 50.6101 107.101 50.1965V49.5694C107.101 49.3693 107.101 49.1558 107.182 48.9423C107.404 47.2616 107.725 45.5954 108.142 43.9523C108.565 42.2771 109.1 40.6323 109.743 39.0289C110.99 35.802 112.837 32.841 115.187 30.3029C115.494 29.9961 115.788 29.6892 116.095 29.3957L117.055 28.5551L118.069 27.7812C118.241 27.6563 118.419 27.5405 118.603 27.4343L119.137 27.0874L119.404 26.914L119.684 26.7539L120.231 26.4603C120.416 26.352 120.608 26.254 120.805 26.1668L121.378 25.9133L121.952 25.6464L122.592 25.3396L123.74 24.9259C129.591 22.8516 135.551 21.0967 141.593 19.669C147.357 18.3348 152.867 17.134 158.044 16.1333C163.221 15.1326 168.051 14.3187 172.468 13.6249C181.314 12.2907 188.479 11.37 193.496 10.9564C198.513 10.5428 201.261 10.4361 201.288 10.6762C201.315 10.9164 198.62 11.3967 193.629 12.1172C188.639 12.8377 181.527 13.7983 172.695 15.1593C168.291 15.8531 163.461 16.6403 158.298 17.5876C155.723 18.0679 153.054 18.5749 150.292 19.1487L146.129 20.0293L144.021 20.5096L142.954 20.7631L141.873 21.0166C135.871 22.4019 129.951 24.1213 124.14 26.1668L123.019 26.5937L122.459 26.7939L121.925 27.034L121.392 27.2742C121.205 27.3543 121.045 27.461 120.871 27.5544L120.351 27.8346L120.097 27.968L119.844 28.1281L119.35 28.4617C119.176 28.5573 119.01 28.669 118.856 28.7952L117.909 29.5157L117.002 30.3029C116.708 30.5831 116.441 30.8767 116.161 31.1569C115.046 32.345 114.058 33.6463 113.212 35.0395C112.342 36.4556 111.601 37.947 110.998 39.4959C110.383 41.0414 109.879 42.6287 109.49 44.2458C109.085 45.8446 108.778 47.4665 108.569 49.1024L108.489 49.7028V50.3166C108.489 50.7302 108.396 51.1305 108.369 51.5308C108.369 52.3447 108.249 53.1585 108.236 53.9591C108.222 54.7596 108.236 55.5735 108.236 56.3741C108.236 56.7743 108.236 57.1746 108.236 57.5749C108.236 57.9752 108.236 58.3621 108.236 58.7624C108.418 61.8767 108.864 64.9699 109.57 68.0087C110.222 70.9152 111.115 73.7625 112.238 76.5211C114.306 81.6319 117.311 86.311 121.098 90.3172C122.823 92.1 124.723 93.7047 126.769 95.1072C128.655 96.3878 130.662 97.4825 132.76 98.3761C136.41 99.8534 140.267 100.754 144.194 101.045C147.182 101.246 150.181 101.197 153.161 100.898C155.616 100.604 157.524 100.311 158.818 100.097C160.112 99.8838 160.873 99.8704 160.913 99.9772Z" fill="#D8D8D8"/>
<path d="M186.109 84.6405C185.989 84.427 186.402 83.96 187.243 83.3062C188.455 82.4167 189.711 81.5884 191.006 80.8245C194.261 78.8765 198.851 76.3548 203.921 73.5663C206.457 72.232 208.885 70.8978 211.14 69.697C212.261 69.1232 213.328 68.5895 214.355 68.1092C215.383 67.6289 216.344 67.2153 217.224 66.855C218.105 66.4948 218.932 66.2012 219.666 65.9611L220.68 65.6542L221.561 65.4541C221.971 65.3543 222.392 65.3006 222.815 65.2939C223.108 65.2939 223.282 65.374 223.322 65.4807C223.362 65.5875 223.322 65.7476 223.042 65.9477C222.711 66.1986 222.363 66.426 222.001 66.6282L221.214 67.0418L220.293 67.5088L218.011 68.6296L215.343 69.9638C214.355 70.4575 213.301 71.0045 212.207 71.5916C210.006 72.7524 207.591 74.0866 205.069 75.4876C199.999 78.2895 195.422 80.8245 192.033 82.5324C190.699 83.2266 189.327 83.8457 187.923 84.387C186.843 84.7606 186.229 84.854 186.109 84.6405Z" fill ="#BA9775"/>
<path d="M193.031 47.9253C159.567 58.0789 121.727 35.3301 121.727 35.3301C121.727 35.3301 124.863 96.6786 193.031 47.9253Z" fill ="#BA9775"/>
<path d="M261.701 69.1955C257.071 64.7525 253.122 59.3221 247.424 56.7871C247.104 56.2667 234.775 37.5339 198.296 49.7956C197.722 49.9958 197.149 50.1826 196.561 50.3427C122.309 104.366 118.293 35.5859 118.293 35.5859C118.293 35.5859 101.721 61.2301 126.418 85.5801C151.116 109.93 213.48 60.5363 213.48 60.5363C213.48 60.5363 229.131 48.0611 247.171 56.667L246.77 56.4935C248.015 57.0866 249.095 57.9756 249.916 59.0828C250.737 60.19 251.274 61.4816 251.48 62.8445C252.508 68.6485 251.04 74.8527 255.11 79.2024C256.951 80.7901 260.247 80.1497 262.355 78.5753C264.076 77.1209 264.089 74.4925 263.502 72.5712C263.029 71.3826 262.425 70.2504 261.701 69.1955Z" fill ="#BA9775"/>
<path d="M32.3384 147.207C31.9131 145.905 31.3526 144.739 30.6568 143.708C29.9738 142.664 29.1556 141.775 28.2021 141.041C27.2614 140.306 26.1919 139.746 24.9936 139.359C23.7952 138.973 22.4809 138.779 21.0506 138.779C18.7054 138.779 16.5729 139.385 14.6529 140.596C12.733 141.808 11.206 143.592 10.0721 145.95C8.93817 148.308 8.37121 151.201 8.37121 154.629C8.37121 158.056 8.94462 160.949 10.0914 163.307C11.2382 165.665 12.791 167.45 14.7496 168.661C16.7082 169.872 18.9116 170.478 21.3599 170.478C23.6277 170.478 25.625 169.995 27.3516 169.028C29.0912 168.049 30.4442 166.67 31.4106 164.892C32.3899 163.101 32.8795 160.994 32.8795 158.572L34.3485 158.881H22.4422V154.629H37.5183V158.881C37.5183 162.141 36.8225 164.976 35.4309 167.385C34.0521 169.795 32.1451 171.663 29.7097 172.991C27.2872 174.305 24.5039 174.962 21.3599 174.962C17.855 174.962 14.7753 174.137 12.1209 172.488C9.47937 170.839 7.41768 168.494 5.93584 165.453C4.46688 162.412 3.73241 158.804 3.73241 154.629C3.73241 151.497 4.15119 148.682 4.98875 146.182C5.8392 143.67 7.03755 141.531 8.58382 139.765C10.1301 138 11.9598 136.647 14.0731 135.706C16.1863 134.766 18.5121 134.295 21.0506 134.295C23.1381 134.295 25.0838 134.611 26.8878 135.242C28.7046 135.861 30.3218 136.744 31.7392 137.89C33.1695 139.024 34.3614 140.384 35.3149 141.969C36.2684 143.541 36.9256 145.287 37.2864 147.207H32.3384ZM49.1268 134.836V174.421H44.5653V134.836H49.1268ZM68.998 175.039C66.3178 175.039 63.9662 174.402 61.9432 173.126C59.933 171.85 58.361 170.066 57.2271 167.772C56.106 165.478 55.5455 162.798 55.5455 159.731C55.5455 156.639 56.106 153.939 57.2271 151.633C58.361 149.326 59.933 147.535 61.9432 146.26C63.9662 144.984 66.3178 144.346 68.998 144.346C71.6782 144.346 74.0234 144.984 76.0335 146.26C78.0566 147.535 79.6286 149.326 80.7497 151.633C81.8836 153.939 82.4505 156.639 82.4505 159.731C82.4505 162.798 81.8836 165.478 80.7497 167.772C79.6286 170.066 78.0566 171.85 76.0335 173.126C74.0234 174.402 71.6782 175.039 68.998 175.039ZM68.998 170.942C71.0339 170.942 72.7091 170.42 74.0234 169.376C75.3377 168.332 76.3106 166.96 76.942 165.259C77.5734 163.558 77.8891 161.716 77.8891 159.731C77.8891 157.747 77.5734 155.898 76.942 154.184C76.3106 152.47 75.3377 151.085 74.0234 150.029C72.7091 148.972 71.0339 148.444 68.998 148.444C66.9621 148.444 65.287 148.972 63.9727 150.029C62.6583 151.085 61.6855 152.47 61.0541 154.184C60.4227 155.898 60.107 157.747 60.107 159.731C60.107 161.716 60.4227 163.558 61.0541 165.259C61.6855 166.96 62.6583 168.332 63.9727 169.376C65.287 170.42 66.9621 170.942 68.998 170.942ZM89.4878 174.421V134.836H94.0493V149.449H94.4359C94.7709 148.933 95.2348 148.276 95.8275 147.477C96.4331 146.665 97.2965 145.944 98.4175 145.312C99.5514 144.668 101.085 144.346 103.018 144.346C105.517 144.346 107.721 144.971 109.628 146.221C111.535 147.471 113.023 149.243 114.093 151.536C115.162 153.83 115.697 156.536 115.697 159.654C115.697 162.798 115.162 165.523 114.093 167.83C113.023 170.124 111.541 171.902 109.647 173.165C107.753 174.414 105.569 175.039 103.095 175.039C101.188 175.039 99.661 174.724 98.5141 174.092C97.3673 173.448 96.4847 172.72 95.8662 171.908C95.2476 171.084 94.7709 170.401 94.4359 169.859H93.8947V174.421H89.4878ZM93.972 159.577C93.972 161.819 94.3006 163.797 94.9577 165.511C95.6149 167.211 96.5749 168.545 97.8376 169.512C99.1004 170.465 100.647 170.942 102.476 170.942C104.384 170.942 105.975 170.439 107.251 169.434C108.539 168.416 109.506 167.05 110.15 165.337C110.807 163.61 111.136 161.69 111.136 159.577C111.136 157.489 110.813 155.608 110.169 153.933C109.538 152.245 108.578 150.911 107.289 149.932C106.014 148.94 104.409 148.444 102.476 148.444C100.621 148.444 99.0618 148.914 97.799 149.855C96.5362 150.782 95.5827 152.084 94.9384 153.759C94.2941 155.421 93.972 157.36 93.972 159.577ZM130.867 175.117C128.985 175.117 127.278 174.762 125.745 174.054C124.211 173.332 122.994 172.295 122.092 170.942C121.19 169.576 120.739 167.927 120.739 165.994C120.739 164.293 121.074 162.914 121.744 161.857C122.414 160.788 123.309 159.95 124.43 159.345C125.551 158.739 126.788 158.288 128.141 157.992C129.507 157.683 130.88 157.438 132.258 157.257C134.062 157.025 135.525 156.851 136.646 156.735C137.78 156.607 138.604 156.394 139.12 156.098C139.648 155.801 139.912 155.286 139.912 154.551V154.397C139.912 152.49 139.39 151.008 138.347 149.951C137.316 148.895 135.75 148.366 133.65 148.366C131.472 148.366 129.765 148.843 128.528 149.797C127.291 150.75 126.421 151.768 125.919 152.85L121.589 151.304C122.362 149.5 123.393 148.096 124.682 147.091C125.983 146.073 127.4 145.364 128.934 144.965C130.48 144.552 132.001 144.346 133.495 144.346C134.449 144.346 135.544 144.462 136.781 144.694C138.031 144.913 139.236 145.37 140.396 146.066C141.568 146.762 142.541 147.812 143.314 149.217C144.087 150.621 144.474 152.503 144.474 154.861V174.421H139.912V170.401H139.68C139.371 171.045 138.856 171.734 138.134 172.469C137.413 173.203 136.453 173.828 135.254 174.344C134.056 174.859 132.593 175.117 130.867 175.117ZM131.563 171.019C133.366 171.019 134.887 170.665 136.124 169.956C137.374 169.247 138.315 168.332 138.946 167.211C139.59 166.09 139.912 164.911 139.912 163.674V159.499C139.719 159.731 139.294 159.944 138.637 160.137C137.992 160.318 137.245 160.479 136.395 160.62C135.557 160.749 134.739 160.865 133.94 160.968C133.154 161.059 132.516 161.136 132.026 161.2C130.841 161.355 129.733 161.606 128.702 161.954C127.684 162.289 126.859 162.798 126.228 163.481C125.609 164.151 125.3 165.066 125.3 166.226C125.3 167.811 125.886 169.009 127.059 169.821C128.244 170.62 129.746 171.019 131.563 171.019ZM156.817 134.836V174.421H152.255V134.836H156.817ZM207.069 147.207C206.644 145.905 206.083 144.739 205.387 143.708C204.705 142.664 203.886 141.775 202.933 141.041C201.992 140.306 200.923 139.746 199.724 139.359C198.526 138.973 197.212 138.779 195.781 138.779C193.436 138.779 191.304 139.385 189.384 140.596C187.464 141.808 185.937 143.592 184.803 145.95C183.669 148.308 183.102 151.201 183.102 154.629C183.102 158.056 183.675 160.949 184.822 163.307C185.969 165.665 187.522 167.45 189.48 168.661C191.439 169.872 193.642 170.478 196.091 170.478C198.358 170.478 200.356 169.995 202.082 169.028C203.822 168.049 205.175 166.67 206.141 164.892C207.121 163.101 207.61 160.994 207.61 158.572L209.079 158.881H197.173V154.629H212.249V158.881C212.249 162.141 211.553 164.976 210.162 167.385C208.783 169.795 206.876 171.663 204.44 172.991C202.018 174.305 199.235 174.962 196.091 174.962C192.586 174.962 189.506 174.137 186.852 172.488C184.21 170.839 182.148 168.494 180.667 165.453C179.198 162.412 178.463 158.804 178.463 154.629C178.463 151.497 178.882 148.682 179.719 146.182C180.57 143.67 181.768 141.531 183.315 139.765C184.861 138 186.691 136.647 188.804 135.706C190.917 134.766 193.243 134.295 195.781 134.295C197.869 134.295 199.814 134.611 201.618 135.242C203.435 135.861 205.052 136.744 206.47 137.89C207.9 139.024 209.092 140.384 210.046 141.969C210.999 143.541 211.656 145.287 212.017 147.207H207.069ZM238.006 162.283V144.733H242.567V174.421H238.006V169.396H237.697C237.001 170.903 235.918 172.185 234.449 173.242C232.98 174.286 231.125 174.807 228.883 174.807C227.027 174.807 225.378 174.402 223.935 173.59C222.492 172.765 221.358 171.528 220.533 169.879C219.708 168.217 219.296 166.123 219.296 163.597V144.733H223.857V163.288C223.857 165.453 224.463 167.179 225.674 168.468C226.898 169.756 228.458 170.401 230.352 170.401C231.486 170.401 232.639 170.111 233.812 169.531C234.997 168.951 235.989 168.062 236.788 166.864C237.6 165.665 238.006 164.138 238.006 162.283ZM250.378 174.421V144.733H254.939V174.421H250.378ZM252.697 139.785C251.808 139.785 251.041 139.482 250.397 138.876C249.766 138.27 249.45 137.542 249.45 136.692C249.45 135.842 249.766 135.113 250.397 134.508C251.041 133.902 251.808 133.599 252.697 133.599C253.586 133.599 254.346 133.902 254.978 134.508C255.622 135.113 255.944 135.842 255.944 136.692C255.944 137.542 255.622 138.27 254.978 138.876C254.346 139.482 253.586 139.785 252.697 139.785ZM273.96 175.039C271.486 175.039 269.302 174.414 267.408 173.165C265.514 171.902 264.032 170.124 262.962 167.83C261.893 165.523 261.358 162.798 261.358 159.654C261.358 156.536 261.893 153.83 262.962 151.536C264.032 149.243 265.52 147.471 267.427 146.221C269.334 144.971 271.538 144.346 274.037 144.346C275.97 144.346 277.497 144.668 278.618 145.312C279.752 145.944 280.615 146.665 281.208 147.477C281.814 148.276 282.284 148.933 282.619 149.449H283.006V134.836H287.567V174.421H283.16V169.859H282.619C282.284 170.401 281.807 171.084 281.189 171.908C280.57 172.72 279.688 173.448 278.541 174.092C277.394 174.724 275.867 175.039 273.96 175.039ZM274.579 170.942C276.408 170.942 277.955 170.465 279.217 169.512C280.48 168.545 281.44 167.211 282.097 165.511C282.754 163.797 283.083 161.819 283.083 159.577C283.083 157.36 282.761 155.421 282.117 153.759C281.472 152.084 280.519 150.782 279.256 149.855C277.993 148.914 276.434 148.444 274.579 148.444C272.646 148.444 271.035 148.94 269.746 149.932C268.471 150.911 267.511 152.245 266.867 153.933C266.235 155.608 265.919 157.489 265.919 159.577C265.919 161.69 266.242 163.61 266.886 165.337C267.543 167.05 268.509 168.416 269.785 169.434C271.074 170.439 272.671 170.942 274.579 170.942ZM308.458 175.039C305.597 175.039 303.13 174.408 301.055 173.145C298.994 171.87 297.402 170.091 296.281 167.811C295.173 165.517 294.619 162.85 294.619 159.809C294.619 156.768 295.173 154.087 296.281 151.768C297.402 149.436 298.961 147.619 300.959 146.317C302.969 145.003 305.314 144.346 307.994 144.346C309.54 144.346 311.067 144.604 312.575 145.119C314.083 145.635 315.455 146.472 316.692 147.632C317.929 148.779 318.915 150.299 319.649 152.193C320.384 154.087 320.751 156.42 320.751 159.19V161.123H297.866V157.18H316.112C316.112 155.505 315.777 154.01 315.107 152.696C314.45 151.382 313.509 150.344 312.285 149.584C311.074 148.824 309.643 148.444 307.994 148.444C306.177 148.444 304.605 148.895 303.278 149.797C301.964 150.686 300.952 151.845 300.243 153.276C299.535 154.706 299.18 156.239 299.18 157.876V160.504C299.18 162.747 299.567 164.647 300.34 166.206C301.126 167.753 302.215 168.932 303.607 169.743C304.998 170.542 306.615 170.942 308.458 170.942C309.656 170.942 310.739 170.774 311.705 170.439C312.684 170.091 313.528 169.576 314.237 168.893C314.946 168.197 315.494 167.334 315.88 166.303L320.287 167.54C319.823 169.035 319.043 170.349 317.948 171.483C316.853 172.604 315.5 173.48 313.889 174.112C312.279 174.73 310.468 175.039 308.458 175.039Z" fill ="#BA9775"/>
</svg>
