<svg width="120" height="43" viewBox="0 0 120 43" fill="none" xmlns="http://www.w3.org/2000/svg">
<g clip-path="url(#clip0_35_1862)">
<path d="M9.794 9.41844C11.4215 9.41844 12.2353 10.2847 12.2353 12.0172V19.5575C12.2353 21.29 11.4215 22.1562 9.794 22.1562H4.73431V9.41844H9.794ZM9.479 19.8725V11.6825C9.479 11.5775 9.43963 11.4856 9.36088 11.4069C9.29525 11.3281 9.20994 11.2887 9.10494 11.2887H7.49056V20.2662H9.10494C9.20994 20.2662 9.29525 20.2269 9.36088 20.1481C9.43963 20.0694 9.479 19.9775 9.479 19.8725ZM17.0459 9.41844V22.1562H14.2897V9.41844H17.0459ZM22.8171 17.0966V15.0687H26.4593V19.7544C26.4593 21.4869 25.6456 22.3531 24.0181 22.3531H21.5374C19.9099 22.3531 19.0962 21.4869 19.0962 19.7544V11.8203C19.0962 10.0878 19.9099 9.22156 21.5374 9.22156H24.0181C25.6456 9.22156 26.4593 10.0878 26.4593 11.8203V13.0212H23.8409V11.4856C23.8409 11.3806 23.8015 11.2887 23.7228 11.21C23.6571 11.1312 23.5718 11.0919 23.4668 11.0919H22.2265C22.1215 11.0919 22.0296 11.1312 21.9509 11.21C21.8853 11.2887 21.8524 11.3806 21.8524 11.4856V20.0694C21.8524 20.1744 21.8853 20.2662 21.9509 20.345C22.0296 20.4237 22.1215 20.4631 22.2265 20.4631H23.4668C23.5718 20.4631 23.6571 20.4237 23.7228 20.345C23.8015 20.2662 23.8409 20.1744 23.8409 20.0694V17.0966H22.8171ZM30.7349 9.41844V22.1562H27.9786V9.41844H30.7349ZM35.5414 19.8331H38.5536V22.1562H32.7852V9.41844H35.5414V19.8331ZM47.3613 11.8203V19.7544C47.3613 21.4869 46.5475 22.3531 44.92 22.3531H42.3016C40.6741 22.3531 39.8604 21.4869 39.8604 19.7544V11.8203C39.8604 10.0878 40.6741 9.22156 42.3016 9.22156H44.92C46.5475 9.22156 47.3613 10.0878 47.3613 11.8203ZM44.605 20.0694V11.4856C44.605 11.3806 44.5657 11.2887 44.4869 11.21C44.4213 11.1312 44.336 11.0919 44.231 11.0919H42.9907C42.8857 11.0919 42.7938 11.1312 42.715 11.21C42.6494 11.2887 42.6166 11.3806 42.6166 11.4856V20.0694C42.6166 20.1744 42.6494 20.2662 42.715 20.345C42.7938 20.4237 42.8857 20.4631 42.9907 20.4631H44.231C44.336 20.4631 44.4213 20.4237 44.4869 20.345C44.5657 20.2662 44.605 20.1744 44.605 20.0694ZM53.1174 17.0966V15.0687H56.7596V19.7544C56.7596 21.4869 55.9459 22.3531 54.3184 22.3531H51.8377C50.2102 22.3531 49.3965 21.4869 49.3965 19.7544V11.8203C49.3965 10.0878 50.2102 9.22156 51.8377 9.22156H54.3184C55.9459 9.22156 56.7596 10.0878 56.7596 11.8203V13.0212H54.1412V11.4856C54.1412 11.3806 54.1018 11.2887 54.023 11.21C53.9574 11.1312 53.8721 11.0919 53.7671 11.0919H52.5268C52.4218 11.0919 52.3299 11.1312 52.2512 11.21C52.1855 11.2887 52.1527 11.3806 52.1527 11.4856V20.0694C52.1527 20.1744 52.1855 20.2662 52.2512 20.345C52.3299 20.4237 52.4218 20.4631 52.5268 20.4631H53.7671C53.8721 20.4631 53.9574 20.4237 54.023 20.345C54.1018 20.2662 54.1412 20.1744 54.1412 20.0694V17.0966H53.1174ZM61.0352 9.41844V22.1562H58.2789V9.41844H61.0352ZM70.4683 9.41844L68.4404 15.7775L70.7242 22.1562H67.8498L66.5111 17.7069L65.1723 22.1562H62.2783L64.562 15.7775L62.5736 9.41844H65.2511L66.5111 13.5331L67.7711 9.41844H70.4683Z" fill="#E11D07"/>
<path d="M76.3453 22.8843C76.3641 21.2625 76.4531 19.65 76.5563 18.0422C76.6641 16.4343 76.8 14.8312 76.9547 13.2281C77.1094 11.625 77.2922 10.0312 77.4844 8.43746C77.6813 6.84371 77.9016 5.24996 78.1266 3.6609C78.2109 3.06559 78.7266 2.63434 79.3078 2.63903H79.3219C80.3438 2.63903 81.3188 2.6109 82.3734 2.63903L83.1563 2.65778L83.9391 2.70934C84.4641 2.73278 84.9797 2.7984 85.5 2.86403C87.5766 3.11715 89.625 3.59528 91.5891 4.28434C93.5578 4.96871 95.4375 5.88278 97.1953 6.96559C98.9438 8.05778 100.584 9.3234 101.995 10.7953C100.214 9.79684 98.4375 8.87809 96.6 8.11403C94.7719 7.34059 92.8969 6.72653 90.9985 6.23434C89.1047 5.73746 87.1734 5.4234 85.2375 5.23121C84.7547 5.18903 84.2672 5.14215 83.7844 5.1234L83.0578 5.08121L82.3266 5.07184C81.361 5.05309 80.3203 5.05778 79.3219 5.0484L80.5172 4.02653C80.25 5.6109 79.9688 7.19059 79.6688 8.77028C79.3641 10.35 79.0547 11.925 78.7125 13.4953C78.3703 15.0656 78.0094 16.6359 77.6203 18.2015C77.2313 19.7672 76.8234 21.3281 76.3406 22.875L76.3453 22.8843Z" fill="#202A31"/>
<path d="M82.3687 11.85C84.4593 11.6156 86.5452 11.4516 88.6358 11.3109C89.6811 11.2313 90.7265 11.1797 91.7671 11.1188C92.8124 11.0578 93.8577 10.9969 94.8983 10.9641L96.464 10.9031L97.2468 10.8703L97.6405 10.8563H98.0858C98.6905 10.8563 99.3186 10.9594 99.9421 11.1703C100.561 11.3906 101.161 11.7328 101.653 12.1969C102.647 13.125 103.172 14.3344 103.453 15.4734C103.739 16.6219 103.828 17.7516 103.833 18.8578L102.783 17.6531C104.723 17.9016 106.659 18.1781 108.591 18.45L111.492 18.8813L112.219 18.9938C112.331 19.0078 112.476 19.0406 112.626 19.0734C112.772 19.1063 112.922 19.1391 113.053 19.1813C113.606 19.3406 114.145 19.5563 114.642 19.8422C115.641 20.4047 116.503 21.2016 117.136 22.1438C117.455 22.6125 117.708 23.1234 117.905 23.6531L118.041 24.0422L118.148 24.3938L118.364 25.0922L119.222 27.8906L120.047 30.7031L120.066 30.7688C120.164 31.1109 119.972 31.4672 119.63 31.5656C119.559 31.5844 119.489 31.5938 119.419 31.5891C117.966 31.5234 105.309 31.0828 103.856 30.9235C105.309 30.7641 117.966 30.3235 119.419 30.2578L118.791 31.1438L117.675 28.4344L116.597 25.7109L116.33 25.0313L116.194 24.6891L116.067 24.3984C115.894 24.0234 115.678 23.6766 115.434 23.3485C114.947 22.6969 114.295 22.1766 113.583 21.8109C113.226 21.6281 112.847 21.4922 112.458 21.3985C112.359 21.3703 112.266 21.3563 112.176 21.3375C112.087 21.3188 111.994 21.3 111.862 21.2906L111.136 21.2063L108.239 20.8453C106.308 20.5922 104.381 20.3391 102.455 20.0672H102.45C101.845 19.9781 101.405 19.4578 101.405 18.8625C101.405 17.8828 101.348 16.9125 101.156 16.0266C100.959 15.1406 100.631 14.3484 100.106 13.8188C99.5999 13.275 98.8593 12.9797 97.978 12.8906L97.6405 12.8625L97.2468 12.8484L96.464 12.8156L94.8983 12.7547C93.853 12.7172 92.8077 12.6609 91.7671 12.6C90.7218 12.5391 89.6765 12.4922 88.6358 12.4078C86.5452 12.2625 84.4593 12.1031 82.3687 11.8688V11.85Z" fill="#202A31"/>
<path d="M2.15147 30.4828C4.58897 30.1641 69.0421 29.5031 71.4796 29.4187C76.3546 29.2453 81.2296 29.2266 86.1046 29.3062L84.7733 30.4828C84.7968 28.7765 85.7062 27.1125 87.1499 26.0437C87.8671 25.5047 88.7155 25.1109 89.6108 24.8812C90.0562 24.7687 90.5202 24.7078 90.9749 24.6797C91.2046 24.6703 91.4343 24.6797 91.664 24.675L92.2546 24.7078L92.8452 24.75C93.0702 24.7734 93.2952 24.7922 93.5155 24.825C93.9562 24.9 94.3874 25.0031 94.7999 25.1531C95.6249 25.4437 96.3562 25.9078 96.9374 26.4609C98.1233 27.5625 98.653 29.1141 98.4093 30.4875C98.2921 29.7984 98.0249 29.1562 97.6452 28.5891C97.2562 28.0312 96.7593 27.5531 96.1921 27.1828C95.6202 26.8125 94.978 26.5641 94.3218 26.4234C93.9937 26.3531 93.6608 26.3203 93.328 26.3109C93.164 26.3109 92.9952 26.3203 92.8312 26.325L92.2546 26.3625L91.678 26.3953C91.5187 26.4141 91.3546 26.4281 91.1999 26.4516C90.8858 26.5078 90.5812 26.5875 90.2858 26.6906C89.6999 26.8969 89.1796 27.2156 88.7437 27.6C87.8718 28.3734 87.3937 29.4328 87.4312 30.4922C87.4546 31.1203 86.9015 31.6453 86.189 31.6641H86.1749H86.0999C81.2249 31.7437 76.3499 31.725 71.4749 31.5515C69.0374 31.4672 4.58429 30.8062 2.14679 30.4875L2.15147 30.4828Z" fill="#202A31"/>
</g>
<path d="M4.92011 41H3.2422L4.09114 35.8864H5.77654C6.27925 35.8864 6.69457 35.9912 7.02249 36.201C7.35042 36.409 7.58013 36.707 7.71164 37.0949C7.84314 37.481 7.86395 37.943 7.77406 38.4806C7.6875 39.0066 7.51771 39.4578 7.26469 39.834C7.01334 40.2085 6.68958 40.4965 6.2934 40.6979C5.89723 40.8993 5.43946 41 4.92011 41ZM4.1286 40.3258H4.95257C5.34209 40.3258 5.67917 40.2501 5.96381 40.0986C6.25012 39.9471 6.48233 39.7274 6.66045 39.4394C6.83856 39.1515 6.96174 38.8011 7.02999 38.3883C7.09657 37.9954 7.09074 37.6633 7.01251 37.392C6.93427 37.119 6.78279 36.9126 6.55807 36.7728C6.33335 36.6313 6.03456 36.5605 5.66169 36.5605H4.75032L4.1286 40.3258ZM8.31651 41L9.16545 35.8864H12.3715L12.2616 36.5505H9.82713L9.56745 38.1086H11.8346L11.7248 38.7703H9.45759L9.19791 40.3358H11.6623L11.5525 41H8.31651ZM12.5531 41L13.4021 35.8864H14.1736L13.4345 40.3358H15.7516L15.6418 41H12.5531ZM18.1424 35.8864L17.2935 41H16.5219L17.3709 35.8864H18.1424ZM19.713 35.8864L20.4495 40.0512H20.507L22.6168 35.8864H23.4508L20.7616 41H19.8703L18.879 35.8864H19.713ZM23.3403 41L24.1893 35.8864H27.3953L27.2854 36.5505H24.8509L24.5913 38.1086H26.8584L26.7486 38.7703H24.4814L24.2217 40.3358H26.6861L26.5763 41H23.3403ZM27.5769 41L28.4259 35.8864H30.2486C30.6448 35.8864 30.9619 35.9546 31.1999 36.0911C31.4396 36.2259 31.6044 36.414 31.6943 36.6554C31.7858 36.8951 31.8058 37.1731 31.7542 37.4894C31.7009 37.8023 31.5886 38.077 31.4171 38.3133C31.2473 38.5497 31.0201 38.7345 30.7355 38.8677C30.4525 38.9992 30.1129 39.0649 29.7168 39.0649H28.336L28.4508 38.4007H29.7617C30.0131 38.4007 30.2228 38.3649 30.3909 38.2934C30.559 38.2218 30.6905 38.1178 30.7854 37.9813C30.882 37.8448 30.9452 37.6808 30.9752 37.4894C31.0068 37.2946 30.9977 37.1273 30.9477 36.9875C30.8978 36.846 30.8004 36.7378 30.6556 36.6629C30.5108 36.5863 30.3118 36.548 30.0588 36.548H29.09L28.3485 41H27.5769ZM30.4833 38.6929L31.3647 41H30.4858L29.6269 38.6929H30.4833ZM32.3984 35.8864H33.2748L34.2286 38.211H34.2861L36.0014 35.8864H36.8778L34.5083 38.9925L34.1737 41H33.4047L33.7367 38.9925L32.3984 35.8864ZM42.0264 37.2597C42.0281 37.0083 41.9465 36.816 41.7817 36.6829C41.6186 36.5497 41.3906 36.4831 41.0976 36.4831C40.8879 36.4831 40.7006 36.5164 40.5358 36.583C40.3727 36.6479 40.2395 36.7378 40.1363 36.8527C40.0347 36.9659 39.9723 37.0949 39.949 37.2397C39.9274 37.3612 39.9382 37.4661 39.9815 37.5543C40.0264 37.6425 40.0905 37.7166 40.1737 37.7765C40.2586 37.8348 40.3519 37.8839 40.4534 37.9238C40.5549 37.9621 40.6531 37.9937 40.748 38.0187L41.2274 38.1485C41.3822 38.1885 41.5395 38.2426 41.6993 38.3108C41.8591 38.3791 42.0031 38.469 42.1313 38.5805C42.2595 38.692 42.3552 38.8302 42.4184 38.995C42.4817 39.1598 42.4942 39.357 42.4559 39.5868C42.406 39.8764 42.2886 40.1336 42.1038 40.3583C41.9191 40.583 41.6752 40.7603 41.3722 40.8901C41.0693 41.02 40.7181 41.0849 40.3186 41.0849C39.9357 41.0849 39.6136 41.0241 39.3523 40.9026C39.0926 40.7811 38.902 40.6088 38.7805 40.3858C38.659 40.161 38.6157 39.8947 38.6506 39.5868H39.4272C39.4089 39.7715 39.4421 39.9255 39.527 40.0487C39.6136 40.1702 39.7351 40.2609 39.8916 40.3208C40.0481 40.3791 40.2253 40.4082 40.4234 40.4082C40.6432 40.4082 40.8437 40.3741 41.0252 40.3059C41.2066 40.236 41.3564 40.1394 41.4746 40.0162C41.5928 39.8914 41.6652 39.7457 41.6919 39.5793C41.7185 39.4278 41.6968 39.3038 41.6269 39.2072C41.5587 39.1107 41.4555 39.0308 41.3173 38.9675C41.1808 38.9043 41.0252 38.8485 40.8504 38.8002L40.2736 38.6354C39.8824 38.5239 39.5861 38.36 39.3847 38.1436C39.1833 37.9272 39.1109 37.6408 39.1675 37.2846C39.2174 36.99 39.3406 36.7328 39.537 36.5131C39.7335 36.2934 39.9781 36.1227 40.2711 36.0012C40.5641 35.878 40.882 35.8165 41.2249 35.8165C41.5712 35.8165 41.8658 35.878 42.1088 36.0012C42.3519 36.1244 42.5316 36.2942 42.6482 36.5106C42.7647 36.727 42.8055 36.9767 42.7705 37.2597H42.0264ZM43.1432 41L43.9921 35.8864H47.1981L47.0883 36.5505H44.6538L44.3941 38.1086H46.6613L46.5514 38.7703H44.2842L44.0246 40.3358H46.489L46.3791 41H43.1432ZM47.3798 41L48.2287 35.8864H50.0514C50.4476 35.8864 50.7647 35.9546 51.0028 36.0911C51.2425 36.2259 51.4073 36.414 51.4971 36.6554C51.5887 36.8951 51.6087 37.1731 51.5571 37.4894C51.5038 37.8023 51.3914 38.077 51.22 38.3133C51.0502 38.5497 50.823 38.7345 50.5383 38.8677C50.2554 38.9992 49.9158 39.0649 49.5196 39.0649H48.1388L48.2537 38.4007H49.5646C49.8159 38.4007 50.0256 38.3649 50.1938 38.2934C50.3619 38.2218 50.4934 38.1178 50.5883 37.9813C50.6848 37.8448 50.7481 37.6808 50.778 37.4894C50.8097 37.2946 50.8005 37.1273 50.7506 36.9875C50.7006 36.846 50.6033 36.7378 50.4584 36.6629C50.3136 36.5863 50.1147 36.548 49.8617 36.548H48.8929L48.1513 41H47.3798ZM50.2862 38.6929L51.1676 41H50.2887L49.4297 38.6929H50.2862ZM53.1045 35.8864L53.8411 40.0512H53.8985L56.0084 35.8864H56.8424L54.1532 41H53.2618L52.2706 35.8864H53.1045ZM58.3524 35.8864L57.5034 41H56.7319L57.5808 35.8864H58.3524ZM63.441 37.5493H62.677C62.6737 37.3828 62.6429 37.2364 62.5846 37.1098C62.5263 36.9817 62.4464 36.8743 62.3449 36.7877C62.245 36.6995 62.1277 36.6329 61.9928 36.588C61.858 36.543 61.7124 36.5206 61.5559 36.5206C61.2546 36.5206 60.9716 36.5971 60.7069 36.7503C60.4423 36.9034 60.2167 37.1265 60.0303 37.4195C59.8438 37.7124 59.7157 38.0695 59.6458 38.4906C59.5775 38.9001 59.5858 39.2439 59.6707 39.5218C59.7556 39.7998 59.8988 40.0104 60.1002 40.1536C60.3033 40.295 60.5471 40.3658 60.8318 40.3658C60.9982 40.3658 61.1605 40.3441 61.3187 40.3009C61.4785 40.2559 61.6266 40.1902 61.7631 40.1036C61.8996 40.0171 62.0203 39.9114 62.1252 39.7865C62.2317 39.66 62.3149 39.5152 62.3749 39.3521H63.1489C63.0657 39.6051 62.9483 39.8364 62.7968 40.0462C62.6454 40.2559 62.4664 40.4374 62.26 40.5905C62.0536 40.7437 61.8272 40.8618 61.5808 40.9451C61.3345 41.0283 61.074 41.0699 60.7993 41.0699C60.3482 41.0699 59.9637 40.9625 59.6458 40.7478C59.3295 40.5314 59.1023 40.2235 58.9641 39.824C58.8276 39.4245 58.8043 38.9484 58.8942 38.3957C58.9857 37.8581 59.1605 37.397 59.4185 37.0125C59.6782 36.6263 59.9945 36.3308 60.3674 36.1261C60.7419 35.9197 61.1464 35.8165 61.5808 35.8165C61.8555 35.8165 62.1069 35.8556 62.3349 35.9338C62.563 36.0104 62.7594 36.1236 62.9242 36.2734C63.0906 36.4215 63.2188 36.603 63.3087 36.8177C63.3986 37.0308 63.4427 37.2746 63.441 37.5493ZM63.7975 41L64.6464 35.8864H67.8524L67.7426 36.5505H65.3081L65.0484 38.1086H67.3156L67.2057 38.7703H64.9385L64.6789 40.3358H67.1433L67.0334 41H63.7975ZM71.4423 37.2597C71.444 37.0083 71.3624 36.816 71.1976 36.6829C71.0345 36.5497 70.8065 36.4831 70.5135 36.4831C70.3037 36.4831 70.1165 36.5164 69.9517 36.583C69.7886 36.6479 69.6554 36.7378 69.5522 36.8527C69.4506 36.9659 69.3882 37.0949 69.3649 37.2397C69.3433 37.3612 69.3541 37.4661 69.3974 37.5543C69.4423 37.6425 69.5064 37.7166 69.5896 37.7765C69.6745 37.8348 69.7677 37.8839 69.8693 37.9238C69.9708 37.9621 70.069 37.9937 70.1639 38.0187L70.6433 38.1485C70.7981 38.1885 70.9554 38.2426 71.1152 38.3108C71.275 38.3791 71.419 38.469 71.5472 38.5805C71.6754 38.692 71.7711 38.8302 71.8343 38.995C71.8976 39.1598 71.9101 39.357 71.8718 39.5868C71.8219 39.8764 71.7045 40.1336 71.5197 40.3583C71.335 40.583 71.0911 40.7603 70.7881 40.8901C70.4852 41.02 70.134 41.0849 69.7345 41.0849C69.3516 41.0849 69.0295 41.0241 68.7682 40.9026C68.5085 40.7811 68.3179 40.6088 68.1964 40.3858C68.0749 40.161 68.0316 39.8947 68.0665 39.5868H68.8431C68.8248 39.7715 68.858 39.9255 68.9429 40.0487C69.0295 40.1702 69.151 40.2609 69.3075 40.3208C69.464 40.3791 69.6412 40.4082 69.8393 40.4082C70.059 40.4082 70.2596 40.3741 70.4411 40.3059C70.6225 40.236 70.7723 40.1394 70.8905 40.0162C71.0087 39.8914 71.0811 39.7457 71.1077 39.5793C71.1344 39.4278 71.1127 39.3038 71.0428 39.2072C70.9746 39.1107 70.8714 39.0308 70.7332 38.9675C70.5967 38.9043 70.4411 38.8485 70.2663 38.8002L69.6895 38.6354C69.2983 38.5239 69.002 38.36 68.8006 38.1436C68.5992 37.9272 68.5268 37.6408 68.5834 37.2846C68.6333 36.99 68.7565 36.7328 68.9529 36.5131C69.1493 36.2934 69.394 36.1227 69.687 36.0012C69.98 35.878 70.2979 35.8165 70.6408 35.8165C70.9871 35.8165 71.2817 35.878 71.5247 36.0012C71.7678 36.1244 71.9475 36.2942 72.0641 36.5106C72.1806 36.727 72.2214 36.9767 72.1864 37.2597H71.4423Z" fill="#202A31"/>
<defs>
<clipPath id="clip0_35_1862">
<rect width="120" height="40.3125" fill="white"/>
</clipPath>
</defs>
</svg>
