<svg width="40" height="40" viewBox="0 0 40 40" fill="none" xmlns="http://www.w3.org/2000/svg">
<circle cx="20" cy="20" r="20" fill="#FEF8F8"/>
<g clip-path="url(#clip0_456_332)">
<path d="M23.3335 10.6667H12.6668C12.3132 10.6667 11.9741 10.8072 11.724 11.0572C11.474 11.3073 11.3335 11.6464 11.3335 12V28C11.3335 28.3536 11.474 28.6928 11.724 28.9428C11.9741 29.1929 12.3132 29.3334 12.6668 29.3334H23.3335C23.6871 29.3334 24.0263 29.1929 24.2763 28.9428C24.5264 28.6928 24.6668 28.3536 24.6668 28V24H18.4202C18.2434 24 18.0738 23.9298 17.9488 23.8048C17.8237 23.6797 17.7535 23.5102 17.7535 23.3334C17.7535 23.1565 17.8237 22.987 17.9488 22.8619C18.0738 22.7369 18.2434 22.6667 18.4202 22.6667H24.6668V12C24.6668 11.6464 24.5264 11.3073 24.2763 11.0572C24.0263 10.8072 23.6871 10.6667 23.3335 10.6667Z" fill="#E11D07"/>
<path d="M26.7732 19.52C26.6456 19.4108 26.4816 19.3537 26.3138 19.3602C26.146 19.3667 25.9869 19.4362 25.8681 19.5549C25.7494 19.6737 25.6798 19.8328 25.6734 20.0006C25.6669 20.1684 25.724 20.3325 25.8332 20.46L28.0865 22.6667H24.6665V24H28.0865L25.8332 26.3067C25.7634 26.3664 25.7067 26.44 25.6667 26.5227C25.6267 26.6054 25.6042 26.6955 25.6006 26.7873C25.5971 26.8791 25.6126 26.9707 25.6461 27.0562C25.6796 27.1418 25.7304 27.2194 25.7954 27.2844C25.8604 27.3494 25.9381 27.4002 26.0236 27.4337C26.1092 27.4673 26.2007 27.4827 26.2925 27.4792C26.3844 27.4756 26.4744 27.4532 26.5572 27.4131C26.6399 27.3731 26.7134 27.3164 26.7732 27.2467L30.6665 23.38L26.7732 19.52Z" fill="#E11D07"/>
</g>
<defs>
<clipPath id="clip0_456_332">
<rect width="24" height="24" fill="white" transform="translate(8 8)"/>
</clipPath>
</defs>
</svg>
