<svg width="69" height="112" viewBox="0 0 69 112" fill="none" xmlns="http://www.w3.org/2000/svg">
<g opacity="0.5">
<path d="M56.7396 28.9121C57.3038 29.7448 57.226 30.6535 57.2252 31.6193C57.227 31.8991 57.227 31.8991 57.2288 32.1846C57.2313 32.7997 57.23 33.4147 57.2276 34.0298C57.227 34.348 57.227 34.348 57.2263 34.6727C57.1959 43.5588 56.1235 52.3118 54.5105 61.0426C54.4819 61.2005 54.4532 61.3584 54.4237 61.5211C53.3146 67.5766 50.9671 73.159 46.0451 77.0534C41.2091 80.3557 35.0601 80.9222 29.4094 79.8906C25.6415 79.1061 22.1291 77.8099 18.7528 75.9735C18.4688 75.8254 18.4688 75.8254 18.1791 75.6743C14.3281 73.5425 11.3043 69.981 10.0114 65.7533C9.86311 65.0943 9.81423 64.4523 9.76808 63.7787C9.75075 63.5327 9.73343 63.2868 9.71558 63.0334C9.69709 62.7531 9.69709 62.7531 9.67822 62.4671C9.89795 62.4629 10.1177 62.4587 10.3441 62.4544C20.2744 62.2841 20.2744 62.2841 29.9378 60.1457C30.1763 60.0677 30.1763 60.0677 30.4197 59.9882C32.8005 59.2052 35.0868 58.3212 37.3242 57.1911C37.5578 57.0742 37.7915 56.9572 38.0323 56.8367C43.1963 54.159 48.7836 49.7159 51.2982 44.3335C51.8258 43.5948 51.3582 44.2123 51.8857 43.4737C54.4792 38.8279 55.9938 34.1885 56.7396 28.9121Z" fill ="#BA9775"/>
<path d="M53.9968 28.0684C54.0665 28.0684 54.1361 28.0684 54.2079 28.0684C54.2653 29.5585 54.1269 30.905 53.7858 32.3551C53.7391 32.5551 53.6923 32.7551 53.6442 32.9612C52.5077 37.5925 50.5073 42.1092 47.4547 45.7955C47.3562 45.917 47.2578 46.0385 47.1564 46.1637C46.8446 46.5484 46.5304 46.9308 46.2148 47.3124C46.1168 47.4317 46.0187 47.5511 45.9177 47.6741C45.453 48.2239 45.1965 48.5179 44.5001 48.75C44.4165 48.932 44.4165 48.932 44.3311 49.1177C43.9635 49.8099 43.3842 50.2093 42.7723 50.6758C42.6403 50.7771 42.5084 50.8784 42.3725 50.9828C41.9586 51.2971 41.5419 51.6072 41.1235 51.9156C40.999 52.0078 40.8745 52.1 40.7462 52.195C34.6587 56.6364 27.0306 58.7131 19.5977 59.3019C19.4565 59.3138 19.3153 59.3257 19.1699 59.338C16.919 59.5234 14.679 59.5365 12.4224 59.513C12.1176 53.2222 14.8685 46.7038 19.0809 42.0578C22.4318 38.471 26.3566 35.8448 30.7827 33.7664C31.0063 33.6584 31.2299 33.5504 31.4603 33.4391C33.1283 32.6751 34.8497 32.1224 36.5994 31.5769C36.8407 31.5012 37.082 31.4256 37.3305 31.3477C37.5596 31.278 37.7887 31.2084 38.0247 31.1366C38.2303 31.074 38.4358 31.0113 38.6476 30.9467C39.2141 30.8142 39.7001 30.7859 40.2794 30.8118C39.7171 31.1867 39.3679 31.3428 38.7354 31.5225C38.5576 31.574 38.3798 31.6255 38.1966 31.6786C37.9152 31.7588 37.9152 31.7588 37.6282 31.8407C36.284 32.2317 34.9718 32.6341 33.6902 33.2042C33.3151 33.3443 33.3151 33.3443 32.682 33.3443C32.682 33.4836 32.682 33.6229 32.682 33.7664C33.7689 33.6475 34.7083 33.382 35.7289 32.9882C37.2492 32.4268 38.7861 31.9938 40.3585 31.6032C40.5665 31.5514 40.7744 31.4995 40.9887 31.446C43.3858 30.8631 45.7656 30.5058 48.2197 30.2579C48.4852 30.2296 48.7507 30.2013 49.0243 30.1721C50.4086 30.0299 51.7612 29.9345 53.1527 29.9677C53.083 30.9427 53.0134 31.9177 52.9416 32.9222C53.0789 32.3905 53.215 31.8585 53.3505 31.3263C53.389 31.1776 53.4275 31.0289 53.4672 30.8757C53.7038 29.9421 53.8775 29.0242 53.9968 28.0684Z" fill ="#BA9775"/>
<path d="M26.9849 0C27.2707 0.779316 27.1167 1.23115 26.8291 1.99496C26.7441 2.22324 26.6591 2.45152 26.5715 2.68671C26.4772 2.93179 26.3829 3.17686 26.2858 3.42936C26.1413 3.81126 26.1413 3.81126 25.9939 4.20086C24.444 8.26423 22.709 12.2464 20.9464 16.221C20.6558 16.8784 20.3675 17.5367 20.08 18.1954C18.8938 20.9107 17.6735 23.6081 16.4256 26.2956C16.0205 27.168 15.6185 28.0416 15.2203 28.9171C13.8761 31.8726 12.4814 34.8013 11.0666 37.7236C10.2717 39.3663 9.48183 41.0113 8.70064 42.6605C8.40554 43.2795 8.10537 43.8959 7.80517 44.5125C5.55406 49.1982 4.10984 53.9042 4.12618 59.1329C4.12685 59.576 4.12188 60.0188 4.11654 60.4619C4.08678 66.7463 6.55824 72.1908 10.9196 76.6462C17.4867 83.1464 27.9226 86.3628 37.0054 86.3817C39.1551 86.3565 41.1615 86.0212 43.2348 85.4702C43.3746 85.4341 43.5144 85.3979 43.6585 85.3607C47.0167 84.4615 50.1724 82.748 52.7315 80.4053C52.9053 80.2587 53.0791 80.1121 53.2582 79.961C57.4024 76.4116 60.0193 71.5736 62.1095 66.6085C62.6069 65.4433 62.6069 65.4433 63.0723 65.2106C62.7414 68.8106 61.4343 71.9886 59.6957 75.1294C59.6185 75.2695 59.5413 75.4096 59.4618 75.5539C58.2264 77.7544 56.7315 79.5582 54.9547 81.3437C54.6854 81.6163 54.4234 81.8962 54.1634 82.1777C51.4304 85.1014 46.2624 88.2505 42.1763 88.4569C42.0381 88.4463 41.8999 88.4357 41.7575 88.4248C41.7401 88.5684 41.7227 88.712 41.7047 88.86C41.5465 89.4799 41.5465 89.4799 41.1112 90.1263C40.4795 91.2322 40.4857 92.2523 40.7023 93.4897C41.0622 94.6506 41.518 95.7734 41.9801 96.8968C43.1101 99.6652 43.6618 103.406 42.6115 106.304C42.0013 107.632 41.3548 108.961 40.0692 109.74C39.5812 109.898 39.5812 109.898 39.225 109.951C38.8602 109.086 39.2241 108.402 39.5284 107.576C40.6526 104.23 39.9645 101.214 38.8871 97.9445C37.3011 93.0759 37.3011 93.0759 38.1765 90.8179C38.5836 90.1339 39.0861 89.6166 39.6471 89.0579C39.4463 89.0601 39.2456 89.0623 39.0387 89.0646C38.2776 89.0723 37.5165 89.0771 36.7554 89.0811C36.429 89.0832 36.1026 89.086 35.7763 89.0897C33.576 89.114 31.4825 88.9971 29.3063 88.6358C29.1245 88.6061 28.9427 88.5764 28.7553 88.5457C24.8315 87.8594 21.0811 86.5395 17.4882 84.8371C17.3585 84.7762 17.2288 84.7152 17.0952 84.6525C15.39 83.8454 13.7793 82.9348 12.2122 81.8826C12.2092 82.0213 12.2062 82.1601 12.2032 82.303C11.9722 86.9103 10.1821 90.5308 6.89672 93.7271C5.55584 95.0388 4.16168 96.6511 4.10047 98.6205C4.13614 99.7526 4.51524 100.453 5.24799 101.298C6.90525 102.767 8.8839 103.424 10.9328 104.147C11.2689 104.268 11.6048 104.389 11.9407 104.51C12.5924 104.746 13.2447 104.98 13.8972 105.213C14.5534 105.448 15.2045 105.693 15.8526 105.95C19.122 107.242 22.545 108.088 25.9363 108.995C26.5047 109.148 27.072 109.305 27.6394 109.461C29.9402 110.081 32.2069 110.404 34.5822 110.584C34.5822 110.723 34.5822 110.862 34.5822 111.006C31.667 112.535 28.0412 112.018 24.9509 111.322C24.3675 111.199 23.7819 111.095 23.1944 110.992C20.081 110.44 17.1102 109.682 14.1116 108.684C13.8634 108.603 13.6152 108.523 13.3595 108.439C5.12453 105.746 5.12453 105.746 2.92657 103.408C2.73506 103.217 2.54354 103.025 2.34622 102.828C1.28331 101.293 0.750827 99.5733 1.02723 97.7104C1.79369 94.4194 4.24274 92.3744 6.66425 90.2425C9.1122 87.964 10.6524 84.4989 11.3681 81.2495C11.1817 81.0961 10.9954 80.9426 10.8034 80.7845C8.50299 78.867 6.37231 76.8792 4.82591 74.2852C4.62841 73.9719 4.62841 73.9719 4.42692 73.6521C0.629052 67.39 -0.218073 59.7636 1.51588 52.6813C1.76936 51.7075 2.0386 50.7408 2.33303 49.7785C2.38419 49.6102 2.43535 49.442 2.48806 49.2686C3.59029 45.905 5.27893 42.7117 6.86761 39.558C7.13425 39.0285 7.39953 38.4984 7.66461 37.9682C8.54237 36.2167 9.43587 34.4749 10.3533 32.7438C11.1548 31.2304 11.92 29.7056 12.6569 28.1595C14.261 24.7978 15.9257 21.4664 17.5937 18.136C17.7119 17.9 17.8302 17.6639 17.952 17.4207C18.5128 16.3011 19.0739 15.1818 19.6353 14.0625C20.1551 13.0261 20.6743 11.9895 21.1929 10.9525C21.3169 10.7045 21.4409 10.4565 21.5687 10.201C21.8205 9.69617 22.0717 9.19106 22.3221 8.68557C23.1863 6.9419 24.0705 5.20859 24.9624 3.47896C25.0968 3.21815 25.2309 2.9572 25.3647 2.69611C25.5539 2.32733 25.7442 1.95917 25.9346 1.59103C26.1009 1.2685 26.1009 1.2685 26.2704 0.939468C26.5628 0.422075 26.5628 0.422075 26.9849 0Z" fill ="#BA9775"/>
<path d="M30.3599 0.632812C33.0714 0.642837 35.6511 1.32242 38.2752 1.9385C38.958 2.09742 39.6418 2.25054 40.3264 2.40108C43.8726 3.18719 47.3702 4.13465 50.8722 5.09449C52.404 5.51404 53.9383 5.92341 55.4733 6.33083C57.7487 6.93661 60.0236 7.54394 62.2973 8.15561C62.6413 8.24808 62.9854 8.34034 63.3296 8.43239C63.812 8.56146 64.2942 8.69127 64.7763 8.82124C64.9172 8.85877 65.0581 8.8963 65.2032 8.93497C66.2652 9.22247 67.3059 9.56205 68.3466 9.91847C68.0655 13.0422 67.7759 16.1651 67.4767 19.2871C67.4325 19.7487 67.3885 20.2103 67.3448 20.6719C67.1022 23.2303 66.8442 25.7856 66.552 28.3389C66.2357 31.1219 65.9975 33.9092 65.7737 36.701C65.6623 38.0898 65.5484 39.4783 65.4342 40.8668C65.4121 41.135 65.3901 41.4031 65.3674 41.6794C65.1845 43.8884 64.9744 46.0935 64.75 48.2987C64.5371 50.4369 64.3915 52.5776 64.2622 54.7222C64.1899 55.9071 64.1112 57.0748 63.9148 58.2461C63.7059 58.3157 63.497 58.3854 63.2817 58.4571C62.8319 56.5965 62.8012 54.7918 62.8162 52.8911C62.82 52.3995 62.8206 51.9079 62.8205 51.4162C62.8301 46.9819 63.1103 42.5827 63.5455 38.1711C63.5801 37.8153 63.5801 37.8153 63.6153 37.4523C63.9888 33.62 64.4455 29.8062 64.9949 25.9954C65.2156 24.4632 65.4155 22.9285 65.6163 21.3936C65.8882 19.3427 66.1731 17.2941 66.4737 15.2472C66.5239 14.9025 66.5239 14.9025 66.5751 14.5509C66.7748 13.2086 67.0106 11.8793 67.2915 10.5516C67.042 10.5304 66.7925 10.5091 66.5355 10.4873C65.1001 10.3268 63.7002 9.99635 62.2925 9.68105C61.9881 9.61343 61.6837 9.54583 61.3794 9.47826C60.6077 9.30649 59.8363 9.13311 59.0651 8.95919C58.6791 8.87232 58.2929 8.78625 57.9067 8.70026C35.7734 3.76166 35.7734 3.76166 30.3599 1.05489C30.3599 0.915603 30.3599 0.776318 30.3599 0.632812Z" fill ="#BA9775"/>
<path d="M25.7186 13.9277C26.0012 14.7756 25.7702 15.0459 25.4021 15.8502C25.3155 16.0413 25.3155 16.0413 25.2272 16.2363C25.0412 16.646 24.8524 17.0543 24.6634 17.4626C24.5426 17.7277 24.422 17.9929 24.3015 18.2581C23.1916 20.6963 22.0516 23.1208 20.9093 25.5439C20.7071 25.9731 20.505 26.4023 20.3029 26.8315C20.1669 27.1202 20.0307 27.4088 19.8943 27.6973C19.1381 29.2973 18.4048 30.899 17.7344 32.5374C17.4043 33.3347 17.0514 34.121 16.6988 34.9085C13.4748 42.1216 10.6565 49.5295 8.55862 57.1509C8.47793 57.444 8.47793 57.444 8.3956 57.7431C7.22374 62.0828 7.66702 65.6835 9.90316 69.6293C14.2209 76.4317 22.0627 80.4751 29.73 82.1893C36.2032 83.364 43.068 82.4604 48.5784 78.7612C49.3263 78.221 49.9929 77.6001 50.6516 76.9546C51.0431 76.6059 51.0431 76.6059 51.4652 76.6059C51.5169 76.4859 51.5686 76.366 51.6218 76.2424C51.9333 75.6784 52.3098 75.2881 52.7578 74.8253C55.276 72.0694 56.9213 68.3865 58.4295 64.9988C58.4991 64.9988 58.5687 64.9988 58.6405 64.9988C58.5284 66.1621 58.3122 67.1898 57.8887 68.2831C57.8333 68.4276 57.7779 68.5721 57.7208 68.721C55.3202 74.7935 51.0754 79.4278 45.1341 82.0929C44.9159 82.1949 44.6977 82.2969 44.4729 82.402C39.7797 84.4178 34.4314 84.4478 29.5173 83.3591C29.1684 83.2906 29.1684 83.2906 28.8125 83.2206C21.6242 81.7279 14.5816 77.5906 10.1018 71.752C9.97125 71.5875 9.84067 71.4229 9.70614 71.2533C7.13739 67.8417 6.24202 63.8581 6.78953 59.6509C6.94923 58.7585 7.18077 57.8901 7.43491 57.0204C7.57737 56.5298 7.70945 56.0371 7.8406 55.5434C10.1495 46.9902 13.6561 38.6714 17.2771 30.5997C17.4015 30.3202 17.5258 30.0406 17.65 29.761C23.8661 15.7803 23.8661 15.7803 25.7186 13.9277Z" fill ="#BA9775"/>
<path d="M44.0834 36.0879C41.3182 41.9713 36.124 45.6439 30.1104 47.8491C29.5942 48.0291 29.077 48.2064 28.5589 48.3808C28.1879 48.5059 28.1879 48.5059 27.8094 48.6336C25.8923 49.249 25.8923 49.249 25.09 48.9612C28.2716 44.3232 32.5994 41.5176 37.7522 39.4645C31.9749 41.0573 26.8809 44.6157 23.6861 49.7246C23.3774 50.2329 23.3774 50.2329 23.1906 50.8605C22.8773 50.965 22.8773 50.965 22.5575 51.0716C22.5575 50.9323 22.5575 50.793 22.5575 50.6495C22.1397 50.754 22.1397 50.754 21.7134 50.8605C23.794 45.2347 29.3666 41.1176 34.5867 38.6204C42.3489 35.2207 42.3489 35.2207 44.0834 36.0879Z" fill ="#BA9775"/>
<path d="M52.4839 26.9994C52.7533 27.0003 53.0228 27.0013 53.3004 27.0023C53.9559 27.0047 54.6114 27.0082 55.2669 27.0126C55.2669 27.0822 55.2669 27.1519 55.2669 27.2236C55.0847 27.232 54.9025 27.2403 54.7147 27.249C42.7224 27.8237 30.5925 30.3147 21.2899 38.4086C21.0839 38.5838 20.878 38.759 20.6658 38.9395C15.5243 43.4027 11.8592 50.4391 11.3341 57.2487C11.2606 58.3543 11.2068 59.4605 11.1601 60.5675C22.9234 60.3888 35.2858 58.9202 44.504 50.8598C44.6105 50.7671 44.7171 50.6744 44.8269 50.5789C46.2619 49.3214 47.5564 48.0408 48.7248 46.5278C49.1827 45.9616 49.6798 45.4576 50.202 44.9508C48.9504 48.6989 44.1715 52.4048 40.9164 54.4475C40.7794 54.5346 40.6424 54.6218 40.5013 54.7116C35.3549 57.9557 29.7293 59.81 23.7564 60.8313C23.5578 60.8658 23.3593 60.9002 23.1547 60.9357C20.1206 61.4284 17.0861 61.4408 14.0223 61.4249C13.6605 61.4238 13.2987 61.4229 12.937 61.422C12.0633 61.4197 11.1896 61.4161 10.3159 61.4117C10.1245 55.3531 11.3318 50.4345 14.3256 45.1618C14.4162 44.985 14.5068 44.8082 14.6001 44.626C15.3086 43.2481 16.2827 42.1188 17.2802 40.9411C17.4232 40.758 17.5663 40.5749 17.7138 40.3863C18.0795 39.9405 18.4362 39.5828 18.8761 39.2132C19.3659 38.7977 19.8424 38.3799 20.3047 37.9338C28.5201 30.0591 41.4085 26.9237 52.4839 26.9994Z" fill ="#BA9775"/>
<path d="M53.9968 28.0684C54.0665 28.0684 54.1361 28.0684 54.2079 28.0684C54.2653 29.5585 54.1269 30.905 53.7858 32.3551C53.7391 32.5551 53.6923 32.7551 53.6442 32.9612C52.5077 37.5925 50.5073 42.1092 47.4547 45.7955C47.3562 45.917 47.2578 46.0385 47.1564 46.1637C46.8446 46.5484 46.5304 46.9308 46.2148 47.3124C46.1168 47.4317 46.0187 47.5511 45.9177 47.6741C45.453 48.2239 45.1965 48.5179 44.5001 48.75C44.4165 48.932 44.4165 48.932 44.3311 49.1177C43.9635 49.8099 43.3842 50.2093 42.7723 50.6758C42.6403 50.7771 42.5084 50.8784 42.3725 50.9828C41.9586 51.2971 41.5419 51.6072 41.1235 51.9156C40.999 52.0078 40.8745 52.1 40.7462 52.195C34.6587 56.6364 27.0306 58.7131 19.5977 59.3019C19.4565 59.3138 19.3153 59.3257 19.1699 59.338C16.919 59.5234 14.679 59.5365 12.4224 59.513C12.1176 53.2222 14.8685 46.7038 19.0809 42.0578C22.4318 38.471 26.3566 35.8448 30.7827 33.7664C31.0063 33.6584 31.2299 33.5504 31.4603 33.4391C33.1283 32.6751 34.8497 32.1224 36.5994 31.5769C36.8407 31.5012 37.082 31.4256 37.3305 31.3477C37.5596 31.278 37.7887 31.2084 38.0247 31.1366C38.2303 31.074 38.4358 31.0113 38.6476 30.9467C39.2141 30.8142 39.7001 30.7859 40.2794 30.8118C39.7328 31.1762 39.4336 31.3214 38.8244 31.4854C38.66 31.5312 38.4955 31.5771 38.3261 31.6244C38.148 31.674 37.97 31.7236 37.7865 31.7747C31.1615 33.7097 25.223 36.964 20.4418 41.9968C20.3219 42.1179 20.2019 42.239 20.0783 42.3637C16.209 46.4484 13.3403 52.8147 13.4776 58.4578C25.2027 58.284 36.5723 55.695 45.1333 47.2728C45.3679 47.0459 45.3679 47.0459 45.6073 46.8144C50.4491 41.8038 53.0946 34.8843 53.9968 28.0684Z" fill ="#BA9775"/>
<path d="M53.157 29.9676C53.0401 31.3533 52.7798 32.599 52.3656 33.9245C52.3084 34.1097 52.2512 34.2949 52.1923 34.4857C49.6685 42.5524 44.5103 49.1651 36.9805 53.1553C31.1157 56.11 24.2157 57.687 17.6631 57.6267C17.3617 57.6252 17.3617 57.6252 17.0543 57.6238C16.5669 57.6213 16.0796 57.6179 15.5923 57.6135C15.5923 57.5438 15.5923 57.4742 15.5923 57.4024C15.8035 57.3899 15.8035 57.3899 16.0189 57.3771C25.5958 56.7846 34.677 54.5263 42.183 48.3278C42.3351 48.2059 42.4872 48.0841 42.6438 47.9585C43.5842 47.1878 44.3623 46.3073 45.1376 45.3733C45.34 45.1354 45.34 45.1354 45.5464 44.8927C48.4291 41.4188 50.1588 37.411 51.4687 33.1331C51.5408 32.8994 51.6129 32.6658 51.6871 32.425C51.8286 31.9584 51.9664 31.4911 52.1018 31.0227C51.0846 31.1225 50.0676 31.2238 49.0508 31.3278C48.3527 31.3989 47.6547 31.465 46.9553 31.5223C36.87 32.4057 27.5109 36.4097 20.4462 43.685C20.4462 42.9068 20.5887 42.8262 21.1197 42.2869C21.338 42.0649 21.338 42.0649 21.5607 41.8384C21.799 41.6034 21.799 41.6034 22.0421 41.3636C22.2049 41.2025 22.3677 41.0415 22.5355 40.8756C29.3502 34.2572 38.9555 31.1941 48.224 30.2577C48.4895 30.2294 48.755 30.2011 49.0286 30.172C50.4128 30.0298 51.7655 29.9344 53.157 29.9676Z" fill ="#BA9775"/>
<path d="M50.625 32.2895C48.9767 39.2966 44.7631 45.7531 38.5905 49.5847C38.4666 49.6606 38.3427 49.7365 38.215 49.8146C37.8396 50.0446 37.4664 50.2788 37.1038 50.5285C35.637 51.5382 33.9159 52.1216 32.2647 52.7601C32.121 52.8158 31.9773 52.8716 31.8293 52.929C29.3464 53.882 29.3464 53.882 28.255 53.8153C28.8711 53.4046 29.4478 53.1867 30.1442 52.9491C36.5376 50.7506 42.1268 46.9167 45.7711 41.153C45.893 40.9615 45.893 40.9615 46.0173 40.7661C47.4776 38.4285 48.4428 35.9363 49.3588 33.3446C43.722 33.9654 38.308 34.9894 33.1089 37.3544C32.9575 37.4232 32.8062 37.492 32.6502 37.5629C27.8036 39.8048 22.8401 43.1179 20.2356 47.9062C20.0782 48.1805 19.9208 48.4548 19.7632 48.729C18.3202 51.2925 17.4264 53.8812 16.859 56.7698C16.7893 56.7698 16.7197 56.7698 16.6479 56.7698C16.7347 55.1992 16.9791 53.798 17.4921 52.3116C17.5573 52.1211 17.6225 51.9305 17.6897 51.7341C20.2275 44.5867 25.6558 39.7484 32.3818 36.5135C37.9386 33.9356 44.4458 32.0538 50.625 32.2895Z" fill ="#BA9775"/>
<path d="M44.4978 35.6664C43.912 35.983 43.3781 36.1767 42.7278 36.316C42.549 36.3557 42.3702 36.3953 42.186 36.4362C41.9956 36.4781 41.8053 36.5201 41.6092 36.5633C38.277 37.3328 35.2631 38.4686 32.2576 40.0982C32.065 40.2021 31.8724 40.306 31.6739 40.4131C26.7828 43.2057 23.6591 47.218 21.0726 52.1273C24.8545 51.4296 28.4574 50.583 32.0465 49.1728C32.2824 49.0827 32.2824 49.0827 32.5231 48.9908C35.6155 47.7989 38.3691 46.0193 40.8681 43.8499C41.292 43.5073 41.6798 43.272 42.1763 43.0527C37.3304 49.4665 27.7995 52.321 20.2284 53.3936C19.9499 53.3936 19.6713 53.3936 19.3843 53.3936C21.0463 47.586 25.8983 42.6067 31.0041 39.634C31.9619 39.1038 32.9424 38.6357 33.9459 38.1989C34.0792 38.1407 34.2126 38.0826 34.35 38.0227C37.4493 36.7051 41.1115 35.5838 44.4978 35.6664Z" fill ="#BA9775"/>
<path d="M61.5938 20.8926C61.7331 20.8926 61.8724 20.8926 62.0159 20.8926C62.0486 22.3388 61.9199 23.7081 61.7257 25.1397C61.472 27.1253 61.2998 29.1033 61.1849 31.1015C61.0231 33.8725 60.7941 36.6341 60.5386 39.3979C60.5209 39.5931 60.5032 39.7882 60.485 39.9892C59.9442 45.929 59.9442 45.929 59.3639 46.5985C59.2142 46.7231 59.2142 46.7231 59.0614 46.8502C58.4579 46.2467 58.7874 44.5546 58.7844 43.711C58.7838 43.5577 58.7831 43.4043 58.7825 43.2463C58.7797 40.1155 58.9877 37.0046 59.2328 33.8846C59.2503 33.657 59.2678 33.4294 59.2858 33.1949C60.078 23.0193 60.078 23.0193 61.5938 20.8926Z" fill ="#BA9775"/>
<path d="M43.8687 36.5098C43.9732 36.7187 43.9732 36.7187 44.0797 36.9318C41.5195 42.814 35.9628 46.496 30.1849 48.7885C27.9123 49.6486 25.6082 50.369 23.187 50.6493C24.9455 45.7274 30.0465 42.4724 34.512 40.3214C37.6844 38.8801 37.6844 38.8801 38.8038 39.2533C38.5535 39.3531 38.3032 39.4529 38.0454 39.5558C34.8728 40.8426 31.8951 42.2493 29.3071 44.5292C29.1297 44.6788 28.9524 44.8284 28.7696 44.9826C27.4601 46.1135 26.0817 47.3924 25.2974 48.961C31.0534 47.9668 36.264 45.1187 40.4921 41.1526C40.6219 41.0413 40.7516 40.9301 40.8853 40.8154C42.2049 39.6293 43.0024 38.0362 43.8687 36.5098Z" fill ="#BA9775"/>
<path d="M52.5212 32.7109C52.7301 32.9199 52.939 33.1288 53.1543 33.3441C51.5262 38.6879 49.0853 43.122 45.3459 47.2725C45.2001 47.436 45.0542 47.5995 44.904 47.768C40.111 52.8467 33.4258 55.6214 26.7746 57.2573C26.5477 57.3136 26.3208 57.3699 26.087 57.428C23.8548 57.9592 23.8548 57.9592 22.7648 57.8244C22.6256 57.6155 22.4863 57.4066 22.3428 57.1913C22.4933 57.166 22.6438 57.1406 22.7989 57.1145C32.4819 55.4624 41.6481 52.1032 47.5486 43.7904C49.8968 40.374 51.4718 36.7171 52.5212 32.7109Z" fill ="#BA9775"/>
<path d="M27.1998 39.4629C27.3391 39.5325 27.4784 39.6022 27.6219 39.6739C27.4478 39.8002 27.2737 39.9264 27.0943 40.0564C26.9202 40.2088 26.7461 40.3611 26.5667 40.5181C26.5667 40.727 26.5667 40.9359 26.5667 41.1512C26.2551 41.4323 26.2551 41.4323 25.8017 41.7447C23.5572 43.4246 21.579 45.4346 20.2356 47.9044C20.0782 48.1787 19.9208 48.4529 19.7632 48.7271C18.3202 51.2907 17.4264 53.8794 16.859 56.768C16.7893 56.768 16.7197 56.768 16.6479 56.768C16.7347 55.1973 16.9791 53.7961 17.4921 52.3098C17.5573 52.1192 17.6225 51.9286 17.6897 51.7323C19.5509 46.4905 22.8333 42.7991 27.1998 39.4629Z" fill ="#BA9775"/>
<path d="M53.9989 28.0684C54.0686 28.0684 54.1382 28.0684 54.2099 28.0684C54.2674 29.5585 54.1289 30.905 53.7879 32.3551C53.7411 32.5551 53.6944 32.7551 53.6462 32.9612C52.5385 37.4755 50.5944 41.9466 47.6678 45.5845C47.4589 45.4452 47.2499 45.3059 47.0347 45.1624C47.1153 45.0469 47.196 44.9315 47.2791 44.8125C50.8669 39.644 53.1688 34.339 53.9989 28.0684Z" fill ="#BA9775"/>
<path d="M29.7318 55.5036C29.7318 55.6429 29.7318 55.7822 29.7318 55.9257C24.2131 57.1531 24.2131 57.1531 22.3455 57.4029C22.0929 57.438 22.0929 57.438 21.8352 57.4738C19.7671 57.7111 17.6705 57.6328 15.5923 57.614C15.5923 57.5443 15.5923 57.4747 15.5923 57.4029C15.7331 57.3946 15.8739 57.3862 16.0189 57.3776C20.1888 57.1196 24.3433 56.7491 28.3296 55.4269C28.901 55.2893 29.1876 55.3023 29.7318 55.5036Z" fill ="#BA9775"/>
<path d="M55.2635 27.0123C55.2635 27.082 55.2635 27.1516 55.2635 27.2234C55.0812 27.2317 54.899 27.2401 54.7112 27.2487C49.9716 27.4759 45.3575 27.9518 40.7019 28.9117C40.7019 28.7724 40.7019 28.6331 40.7019 28.4896C40.5626 28.4199 40.4233 28.3503 40.2798 28.2785C45.3329 27.3337 50.1179 26.9398 55.2635 27.0123Z" fill ="#BA9775"/>
<path d="M41.7637 43.0527C41.903 43.1224 42.0423 43.192 42.1858 43.2638C39.7238 45.8975 36.4699 48.263 33.1111 49.5949C33.1111 49.4556 33.1111 49.3163 33.1111 49.1728C32.9022 49.1032 32.6933 49.0335 32.478 48.9618C32.6497 48.8973 32.8213 48.8328 32.9982 48.7664C36.2288 47.4764 39.2961 45.5203 41.7637 43.0527Z" fill ="#BA9775"/>
<path d="M43.8677 36.5098C43.9374 36.6491 44.007 36.7883 44.0788 36.9318C42.9935 39.4252 41.3204 41.7266 39.2249 43.474C38.9115 43.5785 38.9115 43.5785 38.5918 43.685C38.5918 42.8409 38.5918 42.8409 38.9018 42.4947C39.0432 42.3826 39.1847 42.2705 39.3304 42.155C39.5626 41.9608 39.5626 41.9608 39.7995 41.7626C39.9581 41.631 40.1167 41.4993 40.2801 41.3636C41.8868 39.9927 42.8447 38.3285 43.8677 36.5098Z" fill ="#BA9775"/>
<path d="M19.8135 47.2715C19.9528 47.4804 20.0921 47.6893 20.2356 47.9046C20.1107 48.1244 19.9859 48.3442 19.8572 48.5707C18.3902 51.2098 17.4421 53.7998 16.859 56.7682C16.7893 56.7682 16.7197 56.7682 16.6479 56.7682C16.733 55.1742 16.9952 53.7638 17.5185 52.2572C17.5831 52.0666 17.6477 51.876 17.7143 51.6796C18.2631 50.1137 18.9492 48.6874 19.8135 47.2715Z" fill ="#BA9775"/>
<path d="M53.9997 28.0684C54.0694 28.0684 54.139 28.0684 54.2108 28.0684C54.2757 29.5968 54.1065 30.9629 53.7491 32.4474C53.7018 32.6485 53.6545 32.8496 53.6058 33.0568C52.7943 36.4085 52.7943 36.4085 52.1004 37.7761C51.787 37.8806 51.787 37.8806 51.4673 37.9871C51.5056 37.8745 51.544 37.7619 51.5835 37.6458C52.6446 34.5008 53.5089 31.3533 53.9997 28.0684Z" fill ="#BA9775"/>
<path d="M38.8013 39.2533C38.5461 39.358 38.2909 39.4627 38.028 39.5706C35.9196 40.4431 33.8602 41.3627 31.837 42.4188C31.7674 42.2099 31.6977 42.001 31.626 41.7857C37.6004 38.853 37.6004 38.853 38.8013 39.2533Z" fill ="#BA9775"/>
<path d="M44.5047 35.6652C43.8869 36.0007 43.3069 36.1986 42.6235 36.3593C42.3305 36.4287 42.3305 36.4287 42.0316 36.4995C41.8292 36.5463 41.6268 36.5931 41.4182 36.6413C41.2142 36.6897 41.0102 36.7381 40.8 36.788C39.2892 37.1425 39.2892 37.1425 38.8066 37.1425C38.8066 36.9336 38.8066 36.7246 38.8066 36.5094C39.5185 36.3667 40.2309 36.2268 40.9434 36.0873C41.1442 36.047 41.3449 36.0068 41.5518 35.9653C42.5497 35.7713 43.4823 35.6102 44.5047 35.6652Z" fill ="#BA9775"/>
<path d="M24.2422 41.7852C24.2422 42.5626 24.2381 43.0461 23.6874 43.6218C23.5528 43.7296 23.4181 43.8373 23.2794 43.9483C23.1441 44.0582 23.0089 44.1681 22.8696 44.2813C22.7655 44.3629 22.6613 44.4446 22.5539 44.5286C22.4146 44.3197 22.2753 44.1108 22.1318 43.8955C22.8283 43.1991 23.5247 42.5027 24.2422 41.7852Z" fill ="#BA9775"/>
<path d="M25.5086 41.3633C25.2357 41.972 24.9474 42.3915 24.4534 42.8405C24.2445 42.7709 24.0356 42.7013 23.8203 42.6295C24.7964 41.3633 24.7964 41.3633 25.5086 41.3633Z" fill ="#BA9775"/>
<path d="M41.9681 28.2784C42.0377 28.4176 42.1074 28.5569 42.1791 28.7004C41.6916 28.7701 41.2041 28.8397 40.7019 28.9115C40.7019 28.7722 40.7019 28.6329 40.7019 28.4894C40.5626 28.4197 40.4233 28.3501 40.2798 28.2784C40.9174 28.0734 41.336 28.0386 41.9681 28.2784Z" fill ="#BA9775"/>
<path d="M29.7306 34.1875C29.8699 34.2571 30.0092 34.3268 30.1527 34.3985C30.1527 34.5378 30.1527 34.6771 30.1527 34.8206C29.6646 35.058 29.6646 35.058 29.0975 35.2427C28.8885 35.1034 28.6796 34.9641 28.4644 34.8206C28.879 34.5953 29.3019 34.3847 29.7306 34.1875Z" fill ="#BA9775"/>
</g>
</svg>
