<svg width="16" height="17" viewBox="0 0 16 17" fill="none" xmlns="http://www.w3.org/2000/svg">
<g clip-path="url(#clip0_644_72)">
<path d="M8 10.5C9.10457 10.5 10 9.60457 10 8.5C10 7.39543 9.10457 6.5 8 6.5C6.89543 6.5 6 7.39543 6 8.5C6 9.60457 6.89543 10.5 8 10.5Z" stroke="#202A31"/>
<path d="M9.17672 1.93471C8.93206 1.83337 8.62139 1.83337 8.00006 1.83337C7.37872 1.83337 7.06806 1.83337 6.82339 1.93471C6.66151 2.00172 6.51442 2.09997 6.39054 2.22386C6.26665 2.34774 6.1684 2.49483 6.10139 2.65671C6.04006 2.80537 6.01539 2.97937 6.00606 3.23204C6.0019 3.4147 5.95139 3.59331 5.85926 3.75109C5.76714 3.90887 5.63642 4.04064 5.47939 4.13404C5.31999 4.2234 5.14048 4.27077 4.95775 4.27171C4.77501 4.27264 4.59503 4.2271 4.43472 4.13937C4.21072 4.02071 4.04872 3.95537 3.88806 3.93404C3.5376 3.88795 3.18319 3.98291 2.90272 4.19804C2.69339 4.36004 2.53739 4.62871 2.22672 5.16671C1.91606 5.70471 1.76006 5.97337 1.72606 6.23671C1.70315 6.41034 1.71467 6.58679 1.75997 6.75597C1.80527 6.92515 1.88345 7.08375 1.99006 7.22271C2.08872 7.35071 2.22672 7.45804 2.44072 7.59271C2.75606 7.79071 2.95872 8.12804 2.95872 8.50004C2.95872 8.87204 2.75606 9.20937 2.44072 9.40671C2.22672 9.54204 2.08806 9.64937 1.99006 9.77737C1.88345 9.91633 1.80527 10.0749 1.75997 10.2441C1.71467 10.4133 1.70315 10.5897 1.72606 10.7634C1.76072 11.026 1.91606 11.2954 2.22606 11.8334C2.53739 12.3714 2.69272 12.64 2.90272 12.802C3.04168 12.9086 3.20028 12.9868 3.36946 13.0321C3.53864 13.0774 3.71509 13.089 3.88872 13.066C4.04872 13.0447 4.21072 12.9794 4.43472 12.8607C4.59503 12.773 4.77501 12.7274 4.95775 12.7284C5.14048 12.7293 5.31999 12.7767 5.47939 12.866C5.80139 13.0527 5.99272 13.396 6.00606 13.768C6.01539 14.0214 6.03939 14.1947 6.10139 14.3434C6.1684 14.5053 6.26665 14.6523 6.39054 14.7762C6.51442 14.9001 6.66151 14.9984 6.82339 15.0654C7.06806 15.1667 7.37872 15.1667 8.00006 15.1667C8.62139 15.1667 8.93206 15.1667 9.17672 15.0654C9.3386 14.9984 9.48569 14.9001 9.60957 14.7762C9.73346 14.6523 9.83171 14.5053 9.89872 14.3434C9.96006 14.1947 9.98472 14.0214 9.99406 13.768C10.0074 13.396 10.1987 13.052 10.5207 12.866C10.6801 12.7767 10.8596 12.7293 11.0424 12.7284C11.2251 12.7274 11.4051 12.773 11.5654 12.8607C11.7894 12.9794 11.9514 13.0447 12.1114 13.066C12.285 13.089 12.4615 13.0774 12.6307 13.0321C12.7998 12.9868 12.9584 12.9086 13.0974 12.802C13.3074 12.6407 13.4627 12.3714 13.7734 11.8334C14.0841 11.2954 14.2401 11.0267 14.2741 10.7634C14.297 10.5897 14.2854 10.4133 14.2401 10.2441C14.1948 10.0749 14.1167 9.91633 14.0101 9.77737C13.9114 9.64937 13.7734 9.54204 13.5594 9.40737C13.4032 9.31245 13.2737 9.17937 13.1831 9.02065C13.0925 8.86194 13.0437 8.68279 13.0414 8.50004C13.0414 8.12804 13.2441 7.79071 13.5594 7.59337C13.7734 7.45804 13.9121 7.35071 14.0101 7.22271C14.1167 7.08375 14.1948 6.92515 14.2401 6.75597C14.2854 6.58679 14.297 6.41034 14.2741 6.23671C14.2394 5.97404 14.0841 5.70471 13.7741 5.16671C13.4627 4.62871 13.3074 4.36004 13.0974 4.19804C12.9584 4.09143 12.7998 4.01325 12.6307 3.96795C12.4615 3.92265 12.285 3.91113 12.1114 3.93404C11.9514 3.95537 11.7894 4.02071 11.5647 4.13937C11.4045 4.22698 11.2246 4.27246 11.042 4.27152C10.8594 4.27059 10.68 4.22328 10.5207 4.13404C10.3637 4.04064 10.233 3.90887 10.1408 3.75109C10.0487 3.59331 9.99821 3.4147 9.99406 3.23204C9.98472 2.97871 9.96072 2.80537 9.89872 2.65671C9.83171 2.49483 9.73346 2.34774 9.60957 2.22386C9.48569 2.09997 9.3386 2.00172 9.17672 1.93471Z" stroke="#202A31"/>
</g>
<defs>
<clipPath id="clip0_644_72">
<rect width="16" height="16" fill="white" transform="translate(0 0.5)"/>
</clipPath>
</defs>
</svg>
