<svg width="12" height="11" viewBox="0 0 12 11" fill="none" xmlns="http://www.w3.org/2000/svg">
<path d="M0.429443 1.3251C0.429443 0.648898 0.978243 0.100098 1.65444 0.100098H7.57574C8.25194 0.100098 8.80074 0.648898 8.80074 1.3251V2.2001H9.41744C9.61254 2.2001 9.80378 2.25447 9.96971 2.35709C10.1356 2.45972 10.2697 2.60654 10.3568 2.7811L11.4894 5.0456C11.5624 5.19118 11.6005 5.35175 11.6007 5.5146V8.1501C11.6007 8.42857 11.4901 8.69565 11.2932 8.89256C11.0963 9.08947 10.8292 9.2001 10.5507 9.2001H9.46574C9.38541 9.5957 9.17079 9.95136 8.85823 10.2068C8.54568 10.4623 8.15442 10.6019 7.75074 10.6019C7.34707 10.6019 6.95581 10.4623 6.64325 10.2068C6.3307 9.95136 6.11607 9.5957 6.03574 9.2001H5.26574C5.18541 9.5957 4.97079 9.95136 4.65823 10.2068C4.34568 10.4623 3.95442 10.6019 3.55074 10.6019C3.14707 10.6019 2.75581 10.4623 2.44325 10.2068C2.1307 9.95136 1.91607 9.5957 1.83574 9.2001H1.65444C1.32955 9.2001 1.01797 9.07104 0.788237 8.8413C0.558505 8.61157 0.429443 8.29999 0.429443 7.9751V1.3251ZM8.80074 2.9001V5.0001H10.6837L9.73104 3.0933C9.70195 3.03523 9.65727 2.98641 9.60201 2.95229C9.54675 2.91817 9.48309 2.9001 9.41814 2.9001H8.80074ZM3.55074 7.8001C3.27227 7.8001 3.00519 7.91072 2.80828 8.10764C2.61137 8.30455 2.50074 8.57162 2.50074 8.8501C2.50074 9.12857 2.61137 9.39565 2.80828 9.59256C3.00519 9.78947 3.27227 9.9001 3.55074 9.9001C3.82922 9.9001 4.09629 9.78947 4.29321 9.59256C4.49012 9.39565 4.60074 9.12857 4.60074 8.8501C4.60074 8.57162 4.49012 8.30455 4.29321 8.10764C4.09629 7.91072 3.82922 7.8001 3.55074 7.8001ZM6.70074 8.8501C6.70074 9.12857 6.81137 9.39565 7.00828 9.59256C7.20519 9.78947 7.47227 9.9001 7.75074 9.9001C8.02922 9.9001 8.29629 9.78947 8.49321 9.59256C8.69012 9.39565 8.80074 9.12857 8.80074 8.8501C8.80074 8.57162 8.69012 8.30455 8.49321 8.10764C8.29629 7.91072 8.02922 7.8001 7.75074 7.8001C7.47227 7.8001 7.20519 7.91072 7.00828 8.10764C6.81137 8.30455 6.70074 8.57162 6.70074 8.8501Z" fill="#1B1B1B"/>
</svg>
