<svg width="31" height="27" viewBox="0 0 31 27" fill="none" xmlns="http://www.w3.org/2000/svg">
<mask id="mask0_439_742" style="mask-type:alpha" maskUnits="userSpaceOnUse" x="0" y="0" width="32" height="27">
<rect width="31.0001" height="27" fill="white"/>
</mask>
<g mask="url(#mask0_439_742)">
<g clip-path="url(#clip0_439_742)">
<path d="M8.08533 14.5952C8.0946 13.7942 8.13866 12.9978 8.18968 12.2037C8.24301 11.4096 8.31025 10.6178 8.38677 9.82598C8.46329 9.03419 8.55373 8.24704 8.6488 7.45988C8.74619 6.67272 8.85518 5.88557 8.96648 5.10072C9.00822 4.8067 9.26329 4.5937 9.55082 4.59602H9.55778C10.0633 4.59602 10.5456 4.58213 11.0673 4.59602L11.4546 4.60528L11.8418 4.63075C12.1015 4.64232 12.3566 4.67473 12.614 4.70715C13.6412 4.83216 14.6546 5.06831 15.6261 5.40864C16.6 5.74666 17.5299 6.19811 18.3994 6.73292C19.2644 7.27235 20.076 7.89745 20.7739 8.62441C19.8928 8.13128 19.0139 7.67751 18.105 7.30013C17.2006 6.91813 16.2731 6.61484 15.334 6.37175C14.3972 6.12634 13.4418 5.97123 12.4841 5.87631C12.2453 5.85547 12.0041 5.83232 11.7653 5.82306L11.4059 5.80222L11.0441 5.79759C10.5665 5.78833 10.0517 5.79064 9.55778 5.78601L10.1491 5.28131C10.0169 6.06383 9.87778 6.84404 9.72937 7.62426C9.57865 8.40447 9.42561 9.18236 9.25633 9.95795C9.08706 10.7335 8.90851 11.5091 8.71605 12.2824C8.52358 13.0556 8.32185 13.8266 8.08301 14.5906L8.08533 14.5952Z" fill="#202A31"/>
<path d="M11.0647 9.14536C12.0989 9.0296 13.1308 8.94857 14.165 8.87911C14.6821 8.83975 15.1992 8.81429 15.7139 8.78419C16.231 8.75409 16.7481 8.724 17.2629 8.70779L18.0374 8.67769L18.4246 8.66149L18.6194 8.65454H18.8397C19.1388 8.65454 19.4496 8.70547 19.758 8.80966C20.064 8.91847 20.3609 9.08748 20.6043 9.31668C21.0959 9.77508 21.3556 10.3724 21.4948 10.935C21.6362 11.5022 21.6803 12.0602 21.6826 12.6065L21.1632 12.0115C22.1232 12.1342 23.0808 12.2708 24.0362 12.4051L25.4715 12.6181L25.831 12.6737C25.8866 12.6806 25.9585 12.6968 26.0327 12.713C26.1046 12.7292 26.1788 12.7454 26.2437 12.7663C26.5173 12.845 26.784 12.9515 27.0298 13.0927C27.5237 13.3705 27.9504 13.7641 28.2634 14.2295C28.4211 14.461 28.5463 14.7133 28.6437 14.9749L28.7109 15.1671L28.7643 15.3407L28.8709 15.6857L29.2953 17.0679L29.7034 18.457L29.7127 18.4894C29.7614 18.6584 29.6663 18.8343 29.497 18.8829C29.4622 18.8922 29.4275 18.8968 29.3927 18.8945C28.6738 18.8621 22.413 18.6445 21.6942 18.5658C22.413 18.4871 28.6738 18.2694 29.3927 18.237L29.0819 18.6746L28.5301 17.3364L27.9967 15.9913L27.8646 15.6556L27.7973 15.4866L27.7347 15.3431C27.6489 15.1578 27.5422 14.9865 27.4217 14.8245C27.1805 14.5027 26.8582 14.2457 26.5057 14.0651C26.3295 13.9748 26.1417 13.9077 25.9492 13.8614C25.9005 13.8475 25.8541 13.8405 25.8101 13.8313C25.766 13.822 25.7197 13.8127 25.6547 13.8081L25.2953 13.7664L23.8623 13.5882C22.9069 13.4631 21.9539 13.3381 21.0009 13.2038H20.9985C20.6994 13.1599 20.4814 12.9029 20.4814 12.6088C20.4814 12.125 20.4536 11.6457 20.3585 11.2082C20.2611 10.7706 20.0988 10.3793 19.8391 10.1177C19.5887 9.84917 19.2223 9.70331 18.7864 9.65932L18.6194 9.64543L18.4246 9.63849L18.0374 9.62228L17.2629 9.59218C16.7458 9.57366 16.2287 9.54588 15.7139 9.51578C15.1968 9.48569 14.6797 9.46253 14.165 9.42086C13.1308 9.34909 12.0989 9.27038 11.0647 9.15462V9.14536Z" fill="#202A31"/>
<path d="M0.404297 18.3481C0.404297 18.3481 3.8771 18.2046 5.93575 18.1097C8.76216 17.9793 12.9131 17.767 12.9131 17.767L12.2545 18.3481C12.2661 17.5054 12.716 16.6835 13.4302 16.1557C13.7849 15.8894 14.2046 15.695 14.6475 15.5815C14.8678 15.5259 15.0974 15.4959 15.3223 15.482C15.4359 15.4773 15.5496 15.482 15.6632 15.4796L15.9553 15.4959L16.2475 15.5167C16.3588 15.5283 16.4701 15.5375 16.5791 15.5537C16.7971 15.5908 17.0104 15.6417 17.2145 15.7158C17.6226 15.8593 17.9843 16.0885 18.2719 16.3617C18.8585 16.9058 19.1205 17.6721 19 18.3505C18.942 18.0101 18.8098 17.6929 18.622 17.4128C18.4295 17.1373 18.1837 16.9012 17.9032 16.7183C17.6203 16.5354 17.3026 16.4127 16.9779 16.3432C16.8156 16.3085 16.651 16.2923 16.4864 16.2876C16.4052 16.2876 16.3217 16.2923 16.2406 16.2946L15.9553 16.3131L15.6701 16.3293C15.5913 16.3386 15.5101 16.3455 15.4336 16.3571C15.2783 16.3849 15.1275 16.4242 14.9814 16.4752C14.6916 16.577 14.4342 16.7345 14.2186 16.9243C13.7873 17.3063 13.5507 17.8295 13.5693 18.3528C13.5809 18.663 13.3073 18.9223 12.9548 18.9316H12.9478H12.9107C12.9107 18.9316 8.49969 18.8083 5.67601 18.6668C3.61525 18.5635 0.404297 18.3875 0.404297 18.3875V18.3481Z" fill="#202A31"/>
</g>
</g>
<defs>
<clipPath id="clip0_439_742">
<rect width="59.3619" height="19.9104" fill="white" transform="translate(-29.6816 3.2926)"/>
</clipPath>
</defs>
</svg>
